u2194_noise 300 - 60.ufo
<glyph name="exclam" format="1">
  <advance width="410"/>
  <unicode hex="0021"/>
  <outline>
    <contour>
      <point x="154" y="160" type="curve" smooth="yes"/>
      <point x="248" y="260" type="line" smooth="yes"/>
      <point x="250" y="262"/>
      <point x="252" y="265"/>
      <point x="254" y="267" type="curve" smooth="yes"/>
      <point x="322" y="367" type="line" smooth="yes"/>
      <point x="337" y="389"/>
      <point x="334" y="423"/>
      <point x="316" y="442" type="curve" smooth="yes"/>
      <point x="261" y="500" type="line"/>
      <point x="320" y="559" type="line" smooth="yes"/>
      <point x="344" y="583"/>
      <point x="343" y="622"/>
      <point x="317" y="646" type="curve" smooth="yes"/>
      <point x="260" y="697" type="line"/>
      <point x="333" y="753" type="line" smooth="yes"/>
      <point x="359" y="773"/>
      <point x="364" y="812"/>
      <point x="345" y="837" type="curve" smooth="yes"/>
      <point x="325" y="863"/>
      <point x="286" y="868"/>
      <point x="261" y="849" type="curve" smooth="yes"/>
      <point x="130" y="749" type="line" smooth="yes"/>
      <point x="98" y="725"/>
      <point x="97" y="683"/>
      <point x="126" y="656" type="curve" smooth="yes"/>
      <point x="190" y="599" type="line"/>
      <point x="135" y="543" type="line" smooth="yes"/>
      <point x="113" y="520"/>
      <point x="112" y="483"/>
      <point x="134" y="460" type="curve" smooth="yes"/>
      <point x="195" y="395" type="line"/>
      <point x="157" y="339" type="line"/>
      <point x="66" y="242" type="line" smooth="yes"/>
      <point x="44" y="218"/>
      <point x="45" y="179"/>
      <point x="69" y="157" type="curve" smooth="yes"/>
      <point x="93" y="135"/>
      <point x="132" y="136"/>
    </contour>
    <contour>
      <point x="188" y="35" type="curve" smooth="yes"/>
      <point x="178" y="4"/>
      <point x="197" y="-30"/>
      <point x="228" y="-39" type="curve" smooth="yes"/>
      <point x="284" y="-56" type="line" smooth="yes"/>
      <point x="315" y="-66"/>
      <point x="349" y="-47"/>
      <point x="358" y="-16" type="curve" smooth="yes"/>
      <point x="368" y="15"/>
      <point x="349" y="49"/>
      <point x="318" y="58" type="curve" smooth="yes"/>
      <point x="262" y="75" type="line" smooth="yes"/>
      <point x="231" y="85"/>
      <point x="197" y="66"/>
    </contour>
  </outline>
</glyph>
<glyph name="numbersign" format="1">
  <advance width="953"/>
  <unicode hex="0023"/>
  <outline>
    <contour>
      <point x="382" y="538" type="line"/>
      <point x="382" y="539" type="line"/>
      <point x="549" y="539" type="line"/>
      <point x="547" y="530" type="line"/>
      <point x="460" y="451" type="line"/>
    </contour>
    <contour>
      <point x="335" y="259" type="curve"/>
      <point x="298" y="259" type="line"/>
      <point x="325" y="274" type="line"/>
      <point x="327" y="269"/>
      <point x="331" y="264"/>
    </contour>
    <contour>
      <point x="312" y="-56" type="curve" smooth="yes"/>
      <point x="341" y="-43"/>
      <point x="356" y="-7"/>
      <point x="343" y="23" type="curve" smooth="yes"/>
      <point x="300" y="123" type="line" smooth="yes"/>
      <point x="298" y="128"/>
      <point x="293" y="135"/>
      <point x="290" y="139" type="curve"/>
      <point x="397" y="139" type="line"/>
      <point x="381" y="121"/>
      <point x="376" y="93"/>
      <point x="388" y="71" type="curve" smooth="yes"/>
      <point x="440" y="-29" type="line" smooth="yes"/>
      <point x="455" y="-57"/>
      <point x="492" y="-69"/>
      <point x="521" y="-54" type="curve" smooth="yes"/>
      <point x="549" y="-39"/>
      <point x="561" y="-2"/>
      <point x="546" y="27" type="curve" smooth="yes"/>
      <point x="519" y="80" type="line"/>
      <point x="603" y="139" type="line"/>
      <point x="686" y="139" type="line" smooth="yes"/>
      <point x="718" y="139"/>
      <point x="746" y="167"/>
      <point x="746" y="199" type="curve" smooth="yes"/>
      <point x="746" y="231"/>
      <point x="718" y="259"/>
      <point x="686" y="259" type="curve" smooth="yes"/>
      <point x="598" y="259" type="line"/>
      <point x="487" y="314" type="line"/>
      <point x="532" y="355" type="line"/>
      <point x="642" y="455" type="line" smooth="yes"/>
      <point x="650" y="462"/>
      <point x="659" y="477"/>
      <point x="661" y="487" type="curve" smooth="yes"/>
      <point x="671" y="539" type="line"/>
      <point x="843" y="539" type="line" smooth="yes"/>
      <point x="875" y="539"/>
      <point x="903" y="567"/>
      <point x="903" y="599" type="curve" smooth="yes"/>
      <point x="903" y="631"/>
      <point x="875" y="659"/>
      <point x="843" y="659" type="curve" smooth="yes"/>
      <point x="654" y="659" type="line"/>
      <point x="611" y="724" type="line"/>
      <point x="585" y="816" type="line" smooth="yes"/>
      <point x="576" y="847"/>
      <point x="541" y="866"/>
      <point x="510" y="857" type="curve" smooth="yes"/>
      <point x="479" y="848"/>
      <point x="460" y="813"/>
      <point x="469" y="782" type="curve" smooth="yes"/>
      <point x="498" y="682" type="line" smooth="yes"/>
      <point x="500" y="677"/>
      <point x="503" y="670"/>
      <point x="506" y="666" type="curve" smooth="yes"/>
      <point x="511" y="659" type="line"/>
      <point x="458" y="659" type="line"/>
      <point x="473" y="676"/>
      <point x="478" y="701"/>
      <point x="470" y="722" type="curve" smooth="yes"/>
      <point x="429" y="822" type="line" smooth="yes"/>
      <point x="416" y="852"/>
      <point x="380" y="867"/>
      <point x="350" y="855" type="curve" smooth="yes"/>
      <point x="320" y="842"/>
      <point x="305" y="806"/>
      <point x="317" y="776" type="curve" smooth="yes"/>
      <point x="339" y="723" type="line"/>
      <point x="234" y="659" type="line"/>
      <point x="110" y="659" type="line" smooth="yes"/>
      <point x="78" y="659"/>
      <point x="50" y="631"/>
      <point x="50" y="599" type="curve" smooth="yes"/>
      <point x="50" y="567"/>
      <point x="78" y="539"/>
      <point x="110" y="539" type="curve" smooth="yes"/>
      <point x="223" y="539" type="line"/>
      <point x="292" y="460" type="line"/>
      <point x="331" y="415" type="line"/>
      <point x="217" y="351" type="line" smooth="yes"/>
      <point x="212" y="349"/>
      <point x="205" y="344"/>
      <point x="202" y="340" type="curve" smooth="yes"/>
      <point x="110" y="240" type="line" smooth="yes"/>
      <point x="89" y="217"/>
      <point x="89" y="181"/>
      <point x="110" y="159" type="curve" smooth="yes"/>
      <point x="194" y="66" type="line"/>
      <point x="233" y="-25" type="line" smooth="yes"/>
      <point x="246" y="-54"/>
      <point x="282" y="-69"/>
    </contour>
  </outline>
</glyph>
<glyph name="dollar" format="1">
  <advance width="1002"/>
  <unicode hex="0024"/>
  <outline>
    <contour>
      <point x="352" y="667" type="curve" smooth="yes"/>
      <point x="359" y="657" type="line"/>
      <point x="235" y="659" type="line"/>
      <point x="344" y="697" type="line"/>
      <point x="344" y="686"/>
      <point x="347" y="676"/>
    </contour>
    <contour>
      <point x="424" y="461" type="line"/>
      <point x="407" y="461" type="line"/>
      <point x="416" y="541" type="line"/>
      <point x="424" y="494" type="line"/>
    </contour>
    <contour>
      <point x="653" y="258" type="line" smooth="yes"/>
      <point x="657" y="262"/>
      <point x="660" y="266"/>
      <point x="662" y="271" type="curve"/>
      <point x="768" y="205" type="line"/>
      <point x="701" y="171" type="line" smooth="yes"/>
      <point x="662" y="150"/>
      <point x="656" y="104"/>
      <point x="688" y="74" type="curve"/>
      <point x="648" y="68" type="line"/>
      <point x="594" y="128" type="line"/>
      <point x="582" y="181" type="line"/>
    </contour>
    <contour>
      <point x="597" y="-61" type="line" smooth="yes"/>
      <point x="600" y="-61"/>
      <point x="604" y="-61"/>
      <point x="606" y="-60" type="curve" smooth="yes"/>
      <point x="615" y="-59" type="line"/>
      <point x="630" y="-63"/>
      <point x="647" y="-60"/>
      <point x="661" y="-52" type="curve"/>
      <point x="838" y="-23" type="line" smooth="yes"/>
      <point x="894" y="-15"/>
      <point x="911" y="46"/>
      <point x="867" y="82" type="curve" smooth="yes"/>
      <point x="838" y="106" type="line"/>
      <point x="917" y="148" type="line" smooth="yes"/>
      <point x="962" y="171"/>
      <point x="964" y="225"/>
      <point x="921" y="252" type="curve" smooth="yes"/>
      <point x="696" y="391" type="line"/>
      <point x="639" y="443" type="line" smooth="yes"/>
      <point x="630" y="452"/>
      <point x="611" y="459"/>
      <point x="599" y="459" type="curve" smooth="yes"/>
      <point x="544" y="459" type="line"/>
      <point x="544" y="500" type="line" smooth="yes"/>
      <point x="544" y="502"/>
      <point x="544" y="506"/>
      <point x="543" y="509" type="curve" smooth="yes"/>
      <point x="526" y="609" type="line" smooth="yes"/>
      <point x="525" y="616"/>
      <point x="521" y="626"/>
      <point x="518" y="631" type="curve" smooth="yes"/>
      <point x="481" y="688" type="line"/>
      <point x="540" y="739" type="line"/>
      <point x="582" y="739" type="line"/>
      <point x="787" y="707" type="line"/>
      <point x="790" y="704" type="line"/>
      <point x="679" y="654" type="line" smooth="yes"/>
      <point x="649" y="641"/>
      <point x="635" y="604"/>
      <point x="648" y="575" type="curve" smooth="yes"/>
      <point x="661" y="545"/>
      <point x="698" y="531"/>
      <point x="727" y="544" type="curve" smooth="yes"/>
      <point x="914" y="628" type="line" smooth="yes"/>
      <point x="954" y="645"/>
      <point x="963" y="690"/>
      <point x="934" y="723" type="curve" smooth="yes"/>
      <point x="862" y="803" type="line" smooth="yes"/>
      <point x="854" y="812"/>
      <point x="838" y="820"/>
      <point x="826" y="822" type="curve" smooth="yes"/>
      <point x="678" y="846" type="line"/>
      <point x="678" y="859" type="line"/>
      <point x="415" y="859" type="line" smooth="yes"/>
      <point x="406" y="859"/>
      <point x="393" y="856"/>
      <point x="386" y="851" type="curve" smooth="yes"/>
      <point x="325" y="818" type="line"/>
      <point x="101" y="739" type="line" smooth="yes"/>
      <point x="57" y="723"/>
      <point x="45" y="675"/>
      <point x="78" y="641" type="curve" smooth="yes"/>
      <point x="156" y="558" type="line" smooth="yes"/>
      <point x="166" y="548"/>
      <point x="185" y="539"/>
      <point x="199" y="539" type="curve" smooth="yes"/>
      <point x="295" y="538" type="line"/>
      <point x="290" y="498" type="line"/>
      <point x="199" y="461" type="line" smooth="yes"/>
      <point x="135" y="435"/>
      <point x="151" y="347"/>
      <point x="220" y="345" type="curve" smooth="yes"/>
      <point x="462" y="340" type="line"/>
      <point x="521" y="293" type="line"/>
      <point x="472" y="240" type="line" smooth="yes"/>
      <point x="460" y="227"/>
      <point x="454" y="203"/>
      <point x="458" y="186" type="curve" smooth="yes"/>
      <point x="481" y="86" type="line" smooth="yes"/>
      <point x="482" y="77"/>
      <point x="489" y="65"/>
      <point x="494" y="59" type="curve"/>
      <point x="457" y="59" type="line"/>
      <point x="411" y="102" type="line" smooth="yes"/>
      <point x="408" y="104"/>
      <point x="402" y="108"/>
      <point x="399" y="110" type="curve" smooth="yes"/>
      <point x="139" y="252" type="line" smooth="yes"/>
      <point x="110" y="267"/>
      <point x="73" y="256"/>
      <point x="57" y="228" type="curve" smooth="yes"/>
      <point x="42" y="199"/>
      <point x="53" y="162"/>
      <point x="81" y="146" type="curve" smooth="yes"/>
      <point x="335" y="8" type="line"/>
      <point x="393" y="-45" type="line" smooth="yes"/>
      <point x="402" y="-54"/>
      <point x="421" y="-61"/>
      <point x="434" y="-61" type="curve" smooth="yes"/>
    </contour>
  </outline>
</glyph>
<glyph name="percent" format="1">
  <advance width="1090"/>
  <unicode hex="0025"/>
  <outline>
    <contour>
      <point x="455" y="539" type="line"/>
      <point x="455" y="659" type="line"/>
      <point x="390" y="659" type="line"/>
      <point x="352" y="718" type="line"/>
      <point x="499" y="740" type="line" smooth="yes"/>
      <point x="531" y="744"/>
      <point x="554" y="776"/>
      <point x="549" y="808" type="curve" smooth="yes"/>
      <point x="545" y="840"/>
      <point x="513" y="863"/>
      <point x="481" y="858" type="curve" smooth="yes"/>
      <point x="238" y="822" type="line" smooth="yes"/>
      <point x="232" y="821"/>
      <point x="222" y="818"/>
      <point x="216" y="814" type="curve" smooth="yes"/>
      <point x="82" y="733" type="line" smooth="yes"/>
      <point x="39" y="708"/>
      <point x="40" y="655"/>
      <point x="82" y="630" type="curve" smooth="yes"/>
      <point x="226" y="547" type="line" smooth="yes"/>
      <point x="234" y="543"/>
      <point x="247" y="539"/>
      <point x="256" y="539" type="curve" smooth="yes"/>
    </contour>
    <contour>
      <point x="829" y="-21" type="curve" smooth="yes"/>
      <point x="834" y="-7"/>
      <point x="834" y="8"/>
      <point x="829" y="21" type="curve"/>
      <point x="953" y="59" type="line" smooth="yes"/>
      <point x="1011" y="76"/>
      <point x="1015" y="146"/>
      <point x="960" y="171" type="curve" smooth="yes"/>
      <point x="777" y="254" type="line" smooth="yes"/>
      <point x="770" y="257"/>
      <point x="759" y="259"/>
      <point x="752" y="259" type="curve" smooth="yes"/>
      <point x="569" y="259" type="line"/>
      <point x="568" y="264"/>
      <point x="566" y="268"/>
      <point x="564" y="271" type="curve" smooth="yes"/>
      <point x="511" y="354" type="line"/>
      <point x="489" y="384" type="line"/>
      <point x="555" y="430" type="line" smooth="yes"/>
      <point x="567" y="438"/>
      <point x="578" y="455"/>
      <point x="580" y="469" type="curve" smooth="yes"/>
      <point x="589" y="526" type="line"/>
      <point x="672" y="588" type="line"/>
      <point x="817" y="665" type="line"/>
      <point x="1003" y="744" type="line" smooth="yes"/>
      <point x="1033" y="756"/>
      <point x="1048" y="793"/>
      <point x="1035" y="822" type="curve" smooth="yes"/>
      <point x="1023" y="852"/>
      <point x="986" y="867"/>
      <point x="957" y="854" type="curve" smooth="yes"/>
      <point x="768" y="774" type="line" smooth="yes"/>
      <point x="766" y="774"/>
      <point x="764" y="773"/>
      <point x="763" y="772" type="curve" smooth="yes"/>
      <point x="612" y="692" type="line" smooth="yes"/>
      <point x="610" y="691"/>
      <point x="606" y="688"/>
      <point x="604" y="687" type="curve" smooth="yes"/>
      <point x="498" y="607" type="line" smooth="yes"/>
      <point x="487" y="599"/>
      <point x="477" y="582"/>
      <point x="475" y="569" type="curve" smooth="yes"/>
      <point x="466" y="514" type="line"/>
      <point x="371" y="448" type="line" smooth="yes"/>
      <point x="343" y="429"/>
      <point x="337" y="392"/>
      <point x="356" y="364" type="curve" smooth="yes"/>
      <point x="413" y="284" type="line"/>
      <point x="442" y="239" type="line"/>
      <point x="414" y="194" type="line"/>
      <point x="358" y="126" type="line"/>
      <point x="219" y="52" type="line" smooth="yes"/>
      <point x="190" y="37"/>
      <point x="179" y="-1"/>
      <point x="194" y="-29" type="curve" smooth="yes"/>
      <point x="209" y="-58"/>
      <point x="247" y="-69"/>
      <point x="275" y="-54" type="curve" smooth="yes"/>
      <point x="425" y="26" type="line" smooth="yes"/>
      <point x="431" y="29"/>
      <point x="439" y="36"/>
      <point x="443" y="41" type="curve" smooth="yes"/>
      <point x="509" y="121" type="line" smooth="yes"/>
      <point x="511" y="122"/>
      <point x="513" y="125"/>
      <point x="514" y="127" type="curve" smooth="yes"/>
      <point x="520" y="136" type="line"/>
      <point x="605" y="56" type="line" smooth="yes"/>
      <point x="607" y="54"/>
      <point x="609" y="52"/>
      <point x="611" y="51" type="curve"/>
      <point x="603" y="23"/>
      <point x="616" y="-8"/>
      <point x="652" y="-21" type="curve" smooth="yes"/>
      <point x="753" y="-57" type="line" smooth="yes"/>
      <point x="783" y="-68"/>
      <point x="819" y="-52"/>
    </contour>
    <contour>
      <point x="235" y="680" type="curve"/>
      <point x="231" y="683" type="line"/>
      <point x="234" y="685" type="line"/>
      <point x="234" y="683"/>
      <point x="235" y="682"/>
    </contour>
    <contour>
      <point x="766" y="127" type="line"/>
      <point x="705" y="108" type="line"/>
      <point x="703" y="120"/>
      <point x="698" y="130"/>
      <point x="691" y="139" type="curve"/>
      <point x="739" y="139" type="line"/>
    </contour>
  </outline>
</glyph>
<glyph name="ampersand" format="1">
  <advance width="963"/>
  <unicode hex="0026"/>
  <outline>
    <contour>
      <point x="717" y="-50" type="curve" smooth="yes"/>
      <point x="843" y="30" type="line" smooth="yes"/>
      <point x="857" y="39"/>
      <point x="870" y="60"/>
      <point x="871" y="77" type="curve" smooth="yes"/>
      <point x="876" y="157" type="line" smooth="yes"/>
      <point x="877" y="182"/>
      <point x="859" y="209"/>
      <point x="836" y="218" type="curve" smooth="yes"/>
      <point x="772" y="240" type="line"/>
      <point x="873" y="277" type="line" smooth="yes"/>
      <point x="909" y="291"/>
      <point x="923" y="330"/>
      <point x="904" y="363" type="curve" smooth="yes"/>
      <point x="866" y="430" type="line" smooth="yes"/>
      <point x="850" y="458"/>
      <point x="812" y="468"/>
      <point x="784" y="452" type="curve" smooth="yes"/>
      <point x="756" y="436"/>
      <point x="746" y="398"/>
      <point x="762" y="370" type="curve" smooth="yes"/>
      <point x="765" y="365" type="line"/>
      <point x="653" y="323" type="line" smooth="yes"/>
      <point x="648" y="322"/>
      <point x="642" y="318"/>
      <point x="638" y="315" type="curve" smooth="yes"/>
      <point x="614" y="298" type="line"/>
      <point x="574" y="336" type="line"/>
      <point x="578" y="347" type="line"/>
      <point x="598" y="349" type="line" smooth="yes"/>
      <point x="612" y="350"/>
      <point x="631" y="360"/>
      <point x="640" y="371" type="curve" smooth="yes"/>
      <point x="683" y="423" type="line" smooth="yes"/>
      <point x="685" y="426"/>
      <point x="688" y="430"/>
      <point x="689" y="433" type="curve" smooth="yes"/>
      <point x="763" y="575" type="line" smooth="yes"/>
      <point x="767" y="582"/>
      <point x="770" y="594"/>
      <point x="770" y="601" type="curve" smooth="yes"/>
      <point x="772" y="675" type="line"/>
      <point x="861" y="757" type="line" smooth="yes"/>
      <point x="904" y="797"/>
      <point x="879" y="861"/>
      <point x="820" y="861" type="curve" smooth="yes"/>
      <point x="476" y="861" type="line" smooth="yes"/>
      <point x="424" y="861"/>
      <point x="397" y="811"/>
      <point x="426" y="768" type="curve" smooth="yes"/>
      <point x="444" y="742" type="line"/>
      <point x="369" y="633" type="line" smooth="yes"/>
      <point x="351" y="608"/>
      <point x="356" y="571"/>
      <point x="381" y="552" type="curve" smooth="yes"/>
      <point x="460" y="489" type="line"/>
      <point x="439" y="461" type="line"/>
      <point x="275" y="453" type="line" smooth="yes"/>
      <point x="271" y="453"/>
      <point x="264" y="452"/>
      <point x="260" y="451" type="curve" smooth="yes"/>
      <point x="92" y="398" type="line" smooth="yes"/>
      <point x="67" y="390"/>
      <point x="48" y="362"/>
      <point x="50" y="336" type="curve" smooth="yes"/>
      <point x="63" y="194" type="line" smooth="yes"/>
      <point x="65" y="173"/>
      <point x="83" y="150"/>
      <point x="103" y="143" type="curve" smooth="yes"/>
      <point x="315" y="65" type="line"/>
      <point x="363" y="1" type="line" smooth="yes"/>
      <point x="396" y="-45"/>
      <point x="459" y="-31"/>
      <point x="470" y="25" type="curve" smooth="yes"/>
      <point x="483" y="91" type="line"/>
      <point x="607" y="145" type="line" smooth="yes"/>
      <point x="611" y="147"/>
      <point x="616" y="150"/>
      <point x="619" y="152" type="curve" smooth="yes"/>
      <point x="632" y="162" type="line"/>
      <point x="753" y="119" type="line"/>
      <point x="753" y="115" type="line"/>
      <point x="653" y="52" type="line" smooth="yes"/>
      <point x="625" y="34"/>
      <point x="617" y="-4"/>
      <point x="634" y="-31" type="curve" smooth="yes"/>
      <point x="652" y="-59"/>
      <point x="690" y="-67"/>
    </contour>
    <contour>
      <point x="580" y="547" type="curve" smooth="yes"/>
      <point x="499" y="611" type="line"/>
      <point x="565" y="707" type="line" smooth="yes"/>
      <point x="571" y="716"/>
      <point x="575" y="727"/>
      <point x="575" y="741" type="curve"/>
      <point x="668" y="741" type="line"/>
      <point x="660" y="731"/>
      <point x="653" y="716"/>
      <point x="653" y="704" type="curve" smooth="yes"/>
      <point x="650" y="619" type="line"/>
      <point x="599" y="520" type="line"/>
      <point x="596" y="531"/>
      <point x="589" y="540"/>
    </contour>
    <contour>
      <point x="373" y="172" type="curve"/>
      <point x="179" y="242" type="line"/>
      <point x="174" y="298" type="line"/>
      <point x="288" y="334" type="line"/>
      <point x="443" y="341" type="line"/>
      <point x="447" y="341" type="line"/>
      <point x="440" y="321"/>
      <point x="447" y="293"/>
      <point x="462" y="278" type="curve" smooth="yes"/>
      <point x="508" y="233" type="line"/>
      <point x="406" y="189" type="line" smooth="yes"/>
      <point x="397" y="185"/>
      <point x="388" y="177"/>
      <point x="382" y="168" type="curve"/>
      <point x="373" y="172"/>
      <point x="373" y="172"/>
    </contour>
  </outline>
</glyph>
<glyph name="asterisk" format="1">
  <advance width="675"/>
  <unicode hex="002A"/>
  <outline>
    <contour>
      <point x="450" y="278" type="curve" smooth="yes"/>
      <point x="463" y="307"/>
      <point x="449" y="344"/>
      <point x="419" y="357" type="curve" smooth="yes"/>
      <point x="334" y="395" type="line"/>
      <point x="339" y="402" type="line" smooth="yes"/>
      <point x="348" y="415"/>
      <point x="351" y="429"/>
      <point x="350" y="442" type="curve"/>
      <point x="565" y="442" type="line" smooth="yes"/>
      <point x="597" y="442"/>
      <point x="625" y="470"/>
      <point x="625" y="502" type="curve" smooth="yes"/>
      <point x="625" y="534"/>
      <point x="597" y="562"/>
      <point x="565" y="562" type="curve" smooth="yes"/>
      <point x="257" y="562" type="line"/>
      <point x="378" y="654" type="line" smooth="yes"/>
      <point x="404" y="674"/>
      <point x="409" y="712"/>
      <point x="390" y="738" type="curve" smooth="yes"/>
      <point x="370" y="764"/>
      <point x="332" y="769"/>
      <point x="306" y="750" type="curve" smooth="yes"/>
      <point x="174" y="650" type="line" smooth="yes"/>
      <point x="169" y="646"/>
      <point x="163" y="640"/>
      <point x="160" y="635" type="curve" smooth="yes"/>
      <point x="112" y="562" type="line"/>
      <point x="87" y="562"/>
      <point x="63" y="547"/>
      <point x="54" y="523" type="curve" smooth="yes"/>
      <point x="45" y="499"/>
      <point x="53" y="471"/>
      <point x="72" y="456" type="curve"/>
      <point x="75" y="399" type="line" smooth="yes"/>
      <point x="76" y="388"/>
      <point x="82" y="372"/>
      <point x="89" y="364" type="curve" smooth="yes"/>
      <point x="171" y="264" type="line" smooth="yes"/>
      <point x="191" y="239"/>
      <point x="230" y="235"/>
      <point x="255" y="256" type="curve" smooth="yes"/>
      <point x="266" y="264"/>
      <point x="273" y="276"/>
      <point x="275" y="290" type="curve"/>
      <point x="371" y="247" type="line" smooth="yes"/>
      <point x="400" y="234"/>
      <point x="437" y="248"/>
    </contour>
  </outline>
</glyph>
<glyph name="plus" format="1">
  <advance width="491"/>
  <unicode hex="002B"/>
  <outline>
    <contour>
      <point x="285" y="74" type="curve" smooth="yes"/>
      <point x="415" y="174" type="line" smooth="yes"/>
      <point x="452" y="204"/>
      <point x="448" y="253"/>
      <point x="408" y="274" type="curve"/>
      <point x="408" y="382" type="line"/>
      <point x="392" y="382" type="line"/>
      <point x="409" y="400"/>
      <point x="413" y="427"/>
      <point x="400" y="451" type="curve" smooth="yes"/>
      <point x="345" y="551" type="line" smooth="yes"/>
      <point x="329" y="579"/>
      <point x="291" y="590"/>
      <point x="263" y="575" type="curve" smooth="yes"/>
      <point x="235" y="559"/>
      <point x="224" y="521"/>
      <point x="239" y="493" type="curve" smooth="yes"/>
      <point x="262" y="451" type="line"/>
      <point x="101" y="382" type="line"/>
      <point x="99" y="382" type="line"/>
      <point x="99" y="381" type="line"/>
      <point x="89" y="377" type="line" smooth="yes"/>
      <point x="35" y="354"/>
      <point x="37" y="287"/>
      <point x="92" y="266" type="curve" smooth="yes"/>
      <point x="99" y="263" type="line"/>
      <point x="99" y="262" type="line"/>
      <point x="102" y="262" type="line"/>
      <point x="256" y="204" type="line"/>
      <point x="211" y="170" type="line" smooth="yes"/>
      <point x="186" y="150"/>
      <point x="181" y="111"/>
      <point x="200" y="85" type="curve" smooth="yes"/>
      <point x="220" y="60"/>
      <point x="259" y="55"/>
    </contour>
  </outline>
</glyph>
<glyph name="comma" format="1">
  <advance width="364"/>
  <unicode hex="002C"/>
  <outline>
    <contour>
      <point x="113" y="-118" type="curve" smooth="yes"/>
      <point x="130" y="-118" type="line" smooth="yes"/>
      <point x="155" y="-118"/>
      <point x="177" y="-102"/>
      <point x="186" y="-80" type="curve"/>
      <point x="288" y="-7" type="line" smooth="yes"/>
      <point x="318" y="14"/>
      <point x="322" y="54"/>
      <point x="298" y="82" type="curve" smooth="yes"/>
      <point x="210" y="182" type="line" smooth="yes"/>
      <point x="189" y="206"/>
      <point x="150" y="208"/>
      <point x="125" y="187" type="curve" smooth="yes"/>
      <point x="101" y="166"/>
      <point x="99" y="127"/>
      <point x="120" y="102" type="curve" smooth="yes"/>
      <point x="164" y="52" type="line"/>
      <point x="78" y="-9" type="line" smooth="yes"/>
      <point x="27" y="-46"/>
      <point x="50" y="-118"/>
    </contour>
  </outline>
</glyph>
<glyph name="hyphen" format="1">
  <advance width="264"/>
  <unicode hex="002D"/>
  <outline>
    <contour>
      <point x="50" y="296" type="curve" smooth="yes"/>
      <point x="50" y="264"/>
      <point x="78" y="236"/>
      <point x="110" y="236" type="curve" smooth="yes"/>
      <point x="154" y="236" type="line" smooth="yes"/>
      <point x="186" y="236"/>
      <point x="214" y="264"/>
      <point x="214" y="296" type="curve" smooth="yes"/>
      <point x="214" y="328"/>
      <point x="186" y="356"/>
      <point x="154" y="356" type="curve" smooth="yes"/>
      <point x="110" y="356" type="line" smooth="yes"/>
      <point x="78" y="356"/>
      <point x="50" y="328"/>
    </contour>
  </outline>
</glyph>
<glyph name="period" format="1">
  <advance width="433"/>
  <unicode hex="002E"/>
  <outline>
    <contour>
      <point x="50" y="13" type="curve" smooth="yes"/>
      <point x="49" y="-20"/>
      <point x="75" y="-48"/>
      <point x="107" y="-50" type="curve" smooth="yes"/>
      <point x="320" y="-60" type="line" smooth="yes"/>
      <point x="353" y="-61"/>
      <point x="381" y="-35"/>
      <point x="383" y="-3" type="curve" smooth="yes"/>
      <point x="384" y="30"/>
      <point x="358" y="58"/>
      <point x="326" y="60" type="curve" smooth="yes"/>
      <point x="113" y="70" type="line" smooth="yes"/>
      <point x="80" y="71"/>
      <point x="52" y="45"/>
    </contour>
  </outline>
</glyph>
<glyph name="slash" format="1">
  <advance width="876"/>
  <unicode hex="002F"/>
  <outline>
    <contour>
      <point x="328" y="-25" type="curve" smooth="yes"/>
      <point x="342" y="4"/>
      <point x="330" y="41"/>
      <point x="301" y="56" type="curve" smooth="yes"/>
      <point x="253" y="80" type="line"/>
      <point x="314" y="107" type="line" smooth="yes"/>
      <point x="321" y="111"/>
      <point x="332" y="119"/>
      <point x="337" y="126" type="curve" smooth="yes"/>
      <point x="395" y="202" type="line"/>
      <point x="474" y="279" type="line" smooth="yes"/>
      <point x="487" y="291"/>
      <point x="494" y="316"/>
      <point x="491" y="333" type="curve" smooth="yes"/>
      <point x="479" y="396" type="line"/>
      <point x="496" y="439" type="line"/>
      <point x="632" y="509" type="line" smooth="yes"/>
      <point x="669" y="527"/>
      <point x="677" y="571"/>
      <point x="650" y="602" type="curve" smooth="yes"/>
      <point x="638" y="615" type="line"/>
      <point x="784" y="665" type="line" smooth="yes"/>
      <point x="824" y="679"/>
      <point x="838" y="723"/>
      <point x="813" y="757" type="curve" smooth="yes"/>
      <point x="755" y="837" type="line" smooth="yes"/>
      <point x="736" y="863"/>
      <point x="697" y="870"/>
      <point x="671" y="851" type="curve" smooth="yes"/>
      <point x="645" y="832"/>
      <point x="638" y="793"/>
      <point x="657" y="767" type="curve" smooth="yes"/>
      <point x="668" y="752" type="line"/>
      <point x="514" y="699" type="line" smooth="yes"/>
      <point x="471" y="684"/>
      <point x="459" y="636"/>
      <point x="489" y="602" type="curve" smooth="yes"/>
      <point x="509" y="580" type="line"/>
      <point x="421" y="535" type="line" smooth="yes"/>
      <point x="409" y="530"/>
      <point x="397" y="515"/>
      <point x="392" y="504" type="curve" smooth="yes"/>
      <point x="361" y="424" type="line" smooth="yes"/>
      <point x="358" y="415"/>
      <point x="356" y="400"/>
      <point x="358" y="391" type="curve" smooth="yes"/>
      <point x="367" y="343" type="line"/>
      <point x="308" y="285" type="line" smooth="yes"/>
      <point x="306" y="283"/>
      <point x="304" y="280"/>
      <point x="302" y="278" type="curve" smooth="yes"/>
      <point x="250" y="210" type="line"/>
      <point x="88" y="137" type="line" smooth="yes"/>
      <point x="38" y="114"/>
      <point x="37" y="53"/>
      <point x="86" y="28" type="curve" smooth="yes"/>
      <point x="247" y="-52" type="line" smooth="yes"/>
      <point x="276" y="-66"/>
      <point x="313" y="-54"/>
    </contour>
  </outline>
</glyph>
<glyph name="zero" format="1">
  <advance width="982"/>
  <unicode hex="0030"/>
  <outline>
    <contour>
      <point x="487" y="-58" type="curve" smooth="yes"/>
      <point x="513" y="-58" type="line" smooth="yes"/>
      <point x="520" y="-58"/>
      <point x="531" y="-56"/>
      <point x="537" y="-53" type="curve" smooth="yes"/>
      <point x="615" y="-18" type="line"/>
      <point x="886" y="61" type="line" smooth="yes"/>
      <point x="944" y="78"/>
      <point x="949" y="149"/>
      <point x="893" y="173" type="curve" smooth="yes"/>
      <point x="725" y="249" type="line"/>
      <point x="696" y="301" type="line"/>
      <point x="734" y="366" type="line"/>
      <point x="824" y="461" type="line" smooth="yes"/>
      <point x="840" y="478"/>
      <point x="844" y="509"/>
      <point x="833" y="530" type="curve" smooth="yes"/>
      <point x="790" y="613" type="line"/>
      <point x="792" y="623" type="line"/>
      <point x="888" y="704" type="line" smooth="yes"/>
      <point x="931" y="741"/>
      <point x="914" y="801"/>
      <point x="859" y="809" type="curve" smooth="yes"/>
      <point x="531" y="861" type="line" smooth="yes"/>
      <point x="529" y="862"/>
      <point x="525" y="862"/>
      <point x="522" y="862" type="curve" smooth="yes"/>
      <point x="425" y="862" type="line" smooth="yes"/>
      <point x="419" y="862"/>
      <point x="409" y="860"/>
      <point x="404" y="858" type="curve" smooth="yes"/>
      <point x="308" y="822" type="line" smooth="yes"/>
      <point x="288" y="814"/>
      <point x="270" y="790"/>
      <point x="269" y="768" type="curve" smooth="yes"/>
      <point x="268" y="726" type="line"/>
      <point x="95" y="658" type="line" smooth="yes"/>
      <point x="70" y="648"/>
      <point x="54" y="619"/>
      <point x="58" y="593" type="curve" smooth="yes"/>
      <point x="72" y="504" type="line"/>
      <point x="52" y="415" type="line" smooth="yes"/>
      <point x="46" y="393"/>
      <point x="57" y="365"/>
      <point x="76" y="352" type="curve" smooth="yes"/>
      <point x="207" y="263" type="line"/>
      <point x="208" y="260" type="line"/>
      <point x="166" y="240"/>
      <point x="160" y="191"/>
      <point x="197" y="161" type="curve"/>
      <point x="191" y="152" type="line" smooth="yes"/>
      <point x="187" y="146"/>
      <point x="184" y="140"/>
      <point x="182" y="133" type="curve"/>
      <point x="132" y="111" type="line" smooth="yes"/>
      <point x="102" y="99"/>
      <point x="87" y="62"/>
      <point x="100" y="33" type="curve" smooth="yes"/>
      <point x="112" y="3"/>
      <point x="149" y="-12"/>
      <point x="178" y="1" type="curve" smooth="yes"/>
      <point x="254" y="33" type="line"/>
      <point x="309" y="-10" type="line" smooth="yes"/>
      <point x="315" y="-14"/>
      <point x="325" y="-19"/>
      <point x="332" y="-20" type="curve" smooth="yes"/>
      <point x="462" y="-52" type="line"/>
      <point x="469" y="-56"/>
      <point x="478" y="-58"/>
    </contour>
    <contour>
      <point x="312" y="325" type="line" smooth="yes"/>
      <point x="308" y="334"/>
      <point x="298" y="346"/>
      <point x="290" y="352" type="curve" smooth="yes"/>
      <point x="178" y="428" type="line"/>
      <point x="191" y="489" type="line" smooth="yes"/>
      <point x="193" y="495"/>
      <point x="193" y="505"/>
      <point x="192" y="511" type="curve" smooth="yes"/>
      <point x="184" y="564" type="line"/>
      <point x="348" y="629" type="line" smooth="yes"/>
      <point x="368" y="637"/>
      <point x="385" y="661"/>
      <point x="386" y="683" type="curve" smooth="yes"/>
      <point x="388" y="724" type="line"/>
      <point x="436" y="742" type="line"/>
      <point x="517" y="742" type="line"/>
      <point x="560" y="735" type="line"/>
      <point x="525" y="702" type="line" smooth="yes"/>
      <point x="504" y="683"/>
      <point x="500" y="647"/>
      <point x="517" y="624" type="curve" smooth="yes"/>
      <point x="562" y="561" type="line"/>
      <point x="568" y="502" type="line"/>
      <point x="569" y="469" type="line"/>
      <point x="454" y="411" type="line" smooth="yes"/>
      <point x="448" y="408"/>
      <point x="440" y="401"/>
      <point x="436" y="397" type="curve" smooth="yes"/>
      <point x="380" y="332" type="line"/>
      <point x="319" y="306" type="line"/>
    </contour>
    <contour>
      <point x="669" y="618" type="line" smooth="yes"/>
      <point x="645" y="651" type="line"/>
      <point x="687" y="690" type="line" smooth="yes"/>
      <point x="694" y="697"/>
      <point x="699" y="704"/>
      <point x="702" y="713" type="curve"/>
      <point x="711" y="711" type="line"/>
      <point x="697" y="700" type="line" smooth="yes"/>
      <point x="687" y="692"/>
      <point x="678" y="675"/>
      <point x="676" y="662" type="curve" smooth="yes"/>
      <point x="670" y="617" type="line"/>
    </contour>
    <contour>
      <point x="687" y="514" type="line"/>
      <point x="683" y="559" type="line"/>
      <point x="707" y="512" type="line"/>
      <point x="688" y="492" type="line"/>
    </contour>
    <contour>
      <point x="369" y="179" type="curve" smooth="yes"/>
      <point x="355" y="190" type="line"/>
      <point x="355" y="192" type="line"/>
      <point x="439" y="227" type="line" smooth="yes"/>
      <point x="447" y="230"/>
      <point x="457" y="237"/>
      <point x="462" y="243" type="curve" smooth="yes"/>
      <point x="519" y="309" type="line"/>
      <point x="580" y="340" type="line"/>
      <point x="575" y="332" type="line" smooth="yes"/>
      <point x="566" y="316"/>
      <point x="565" y="290"/>
      <point x="574" y="273" type="curve" smooth="yes"/>
      <point x="629" y="173" type="line" smooth="yes"/>
      <point x="635" y="163"/>
      <point x="647" y="152"/>
      <point x="658" y="147" type="curve" smooth="yes"/>
      <point x="696" y="130" type="line"/>
      <point x="578" y="96" type="line" smooth="yes"/>
      <point x="576" y="95"/>
      <point x="572" y="94"/>
      <point x="570" y="93" type="curve" smooth="yes"/>
      <point x="500" y="62" type="line"/>
      <point x="500" y="62" type="line"/>
      <point x="379" y="92" type="line"/>
      <point x="402" y="116"/>
      <point x="400" y="154"/>
    </contour>
  </outline>
</glyph>
<glyph name="one" format="1">
  <advance width="639"/>
  <unicode hex="0031"/>
  <outline>
    <contour>
      <point x="110" y="-59" type="curve" smooth="yes"/>
      <point x="589" y="-59" type="line"/>
      <point x="589" y="61" type="line"/>
      <point x="437" y="61" type="line"/>
      <point x="436" y="74"/>
      <point x="432" y="86"/>
      <point x="422" y="98" type="curve" smooth="yes"/>
      <point x="321" y="221" type="line"/>
      <point x="326" y="297" type="line"/>
      <point x="335" y="359" type="line"/>
      <point x="541" y="446" type="line" smooth="yes"/>
      <point x="588" y="465"/>
      <point x="594" y="519"/>
      <point x="554" y="549" type="curve" smooth="yes"/>
      <point x="485" y="601" type="line"/>
      <point x="525" y="609"/>
      <point x="544" y="649"/>
      <point x="526" y="686" type="curve" smooth="yes"/>
      <point x="455" y="828" type="line" smooth="yes"/>
      <point x="432" y="872"/>
      <point x="379" y="876"/>
      <point x="351" y="835" type="curve" smooth="yes"/>
      <point x="283" y="735" type="line" smooth="yes"/>
      <point x="275" y="722"/>
      <point x="272" y="704"/>
      <point x="275" y="688" type="curve"/>
      <point x="151" y="667" type="line" smooth="yes"/>
      <point x="148" y="667"/>
      <point x="144" y="666"/>
      <point x="142" y="665" type="curve" smooth="yes"/>
      <point x="120" y="658" type="line" smooth="yes"/>
      <point x="90" y="648"/>
      <point x="72" y="613"/>
      <point x="82" y="582" type="curve" smooth="yes"/>
      <point x="92" y="552"/>
      <point x="127" y="534"/>
      <point x="158" y="544" type="curve" smooth="yes"/>
      <point x="175" y="550" type="line"/>
      <point x="331" y="575" type="line"/>
      <point x="332" y="573" type="line" smooth="yes"/>
      <point x="335" y="567"/>
      <point x="343" y="558"/>
      <point x="349" y="553" type="curve" smooth="yes"/>
      <point x="399" y="516" type="line"/>
      <point x="258" y="456" type="line" smooth="yes"/>
      <point x="241" y="449"/>
      <point x="224" y="428"/>
      <point x="222" y="410" type="curve" smooth="yes"/>
      <point x="206" y="305" type="line"/>
      <point x="199" y="205" type="line" smooth="yes"/>
      <point x="198" y="192"/>
      <point x="204" y="173"/>
      <point x="213" y="163" type="curve" smooth="yes"/>
      <point x="271" y="93" type="line"/>
      <point x="176" y="67" type="line"/>
      <point x="144" y="61" type="line"/>
      <point x="110" y="61" type="line" smooth="yes"/>
      <point x="78" y="61"/>
      <point x="50" y="33"/>
      <point x="50" y="1" type="curve" smooth="yes"/>
      <point x="50" y="-31"/>
      <point x="78" y="-59"/>
    </contour>
  </outline>
</glyph>
<glyph name="two" format="1">
  <advance width="1075"/>
  <unicode hex="0032"/>
  <outline>
    <contour>
      <point x="840" y="-60" type="line"/>
      <point x="840" y="60" type="line"/>
      <point x="391" y="60" type="line"/>
      <point x="363" y="124" type="line" smooth="yes"/>
      <point x="358" y="135"/>
      <point x="346" y="148"/>
      <point x="335" y="154" type="curve" smooth="yes"/>
      <point x="175" y="234" type="line"/>
      <point x="183" y="289" type="line"/>
      <point x="478" y="334" type="line"/>
      <point x="515" y="340" type="line"/>
      <point x="716" y="347" type="line" smooth="yes"/>
      <point x="725" y="347"/>
      <point x="738" y="351"/>
      <point x="745" y="356" type="curve" smooth="yes"/>
      <point x="831" y="407" type="line" smooth="yes"/>
      <point x="854" y="421"/>
      <point x="866" y="453"/>
      <point x="856" y="479" type="curve" smooth="yes"/>
      <point x="828" y="557" type="line"/>
      <point x="977" y="594" type="line" smooth="yes"/>
      <point x="1030" y="606"/>
      <point x="1043" y="665"/>
      <point x="1000" y="699" type="curve" smooth="yes"/>
      <point x="878" y="795" type="line" smooth="yes"/>
      <point x="871" y="800"/>
      <point x="859" y="806"/>
      <point x="851" y="807" type="curve" smooth="yes"/>
      <point x="550" y="859" type="line" smooth="yes"/>
      <point x="546" y="860"/>
      <point x="538" y="860"/>
      <point x="533" y="860" type="curve" smooth="yes"/>
      <point x="470" y="853" type="line" smooth="yes"/>
      <point x="465" y="852"/>
      <point x="456" y="850"/>
      <point x="451" y="847" type="curve" smooth="yes"/>
      <point x="342" y="796" type="line" smooth="yes"/>
      <point x="338" y="794"/>
      <point x="332" y="790"/>
      <point x="329" y="787" type="curve" smooth="yes"/>
      <point x="165" y="645" type="line" smooth="yes"/>
      <point x="140" y="624"/>
      <point x="137" y="585"/>
      <point x="159" y="561" type="curve" smooth="yes"/>
      <point x="180" y="536"/>
      <point x="219" y="533"/>
      <point x="243" y="555" type="curve" smooth="yes"/>
      <point x="401" y="691" type="line"/>
      <point x="493" y="734" type="line"/>
      <point x="538" y="739" type="line"/>
      <point x="815" y="692" type="line"/>
      <point x="829" y="681" type="line"/>
      <point x="734" y="658" type="line" smooth="yes"/>
      <point x="698" y="650"/>
      <point x="679" y="614"/>
      <point x="692" y="579" type="curve" smooth="yes"/>
      <point x="727" y="484" type="line"/>
      <point x="697" y="466" type="line"/>
      <point x="507" y="460" type="line" smooth="yes"/>
      <point x="505" y="460"/>
      <point x="501" y="460"/>
      <point x="499" y="459" type="curve" smooth="yes"/>
      <point x="460" y="452" type="line"/>
      <point x="121" y="401" type="line" smooth="yes"/>
      <point x="97" y="397"/>
      <point x="74" y="374"/>
      <point x="71" y="350" type="curve" smooth="yes"/>
      <point x="51" y="208" type="line" smooth="yes"/>
      <point x="47" y="185"/>
      <point x="62" y="157"/>
      <point x="83" y="146" type="curve" smooth="yes"/>
      <point x="262" y="56" type="line"/>
      <point x="297" y="-24" type="line" smooth="yes"/>
      <point x="306" y="-44"/>
      <point x="330" y="-60"/>
      <point x="352" y="-60" type="curve" smooth="yes"/>
    </contour>
  </outline>
</glyph>
<glyph name="three" format="1">
  <advance width="927"/>
  <unicode hex="0033"/>
  <outline>
    <contour>
      <point x="312" y="-59" type="curve" smooth="yes"/>
      <point x="549" y="-59" type="line"/>
      <point x="648" y="-52" type="line" smooth="yes"/>
      <point x="651" y="-52"/>
      <point x="657" y="-51"/>
      <point x="661" y="-49" type="curve" smooth="yes"/>
      <point x="830" y="2" type="line" smooth="yes"/>
      <point x="877" y="16"/>
      <point x="890" y="67"/>
      <point x="856" y="101" type="curve" smooth="yes"/>
      <point x="717" y="243" type="line"/>
      <point x="701" y="260" type="line"/>
      <point x="834" y="309" type="line" smooth="yes"/>
      <point x="897" y="332"/>
      <point x="888" y="415"/>
      <point x="822" y="424" type="curve" smooth="yes"/>
      <point x="795" y="428" type="line"/>
      <point x="836" y="480" type="line" smooth="yes"/>
      <point x="860" y="510"/>
      <point x="852" y="551"/>
      <point x="819" y="570" type="curve" smooth="yes"/>
      <point x="707" y="633" type="line"/>
      <point x="718" y="722" type="line"/>
      <point x="748" y="769" type="line" smooth="yes"/>
      <point x="775" y="812"/>
      <point x="748" y="861"/>
      <point x="697" y="861" type="curve" smooth="yes"/>
      <point x="288" y="861" type="line" smooth="yes"/>
      <point x="283" y="861"/>
      <point x="274" y="860"/>
      <point x="269" y="858" type="curve" smooth="yes"/>
      <point x="162" y="822" type="line" smooth="yes"/>
      <point x="112" y="805"/>
      <point x="103" y="748"/>
      <point x="146" y="716" type="curve" smooth="yes"/>
      <point x="174" y="696" type="line"/>
      <point x="85" y="656" type="line" smooth="yes"/>
      <point x="56" y="642"/>
      <point x="42" y="605"/>
      <point x="55" y="576" type="curve" smooth="yes"/>
      <point x="69" y="547"/>
      <point x="106" y="533"/>
      <point x="135" y="546" type="curve" smooth="yes"/>
      <point x="317" y="630" type="line" smooth="yes"/>
      <point x="362" y="651"/>
      <point x="367" y="704"/>
      <point x="327" y="733" type="curve" smooth="yes"/>
      <point x="316" y="741" type="line"/>
      <point x="599" y="741" type="line"/>
      <point x="583" y="608" type="line" smooth="yes"/>
      <point x="581" y="586"/>
      <point x="594" y="560"/>
      <point x="613" y="549" type="curve" smooth="yes"/>
      <point x="699" y="500" type="line"/>
      <point x="692" y="492" type="line"/>
      <point x="538" y="461" type="line"/>
      <point x="362" y="461" type="line"/>
      <point x="362" y="341" type="line"/>
      <point x="543" y="341" type="line"/>
      <point x="567" y="338" type="line"/>
      <point x="529" y="320"/>
      <point x="520" y="275"/>
      <point x="551" y="243" type="curve" smooth="yes"/>
      <point x="631" y="159" type="line"/>
      <point x="701" y="88" type="line"/>
      <point x="632" y="67" type="line"/>
      <point x="541" y="61" type="line"/>
      <point x="318" y="61" type="line"/>
      <point x="184" y="86" type="line"/>
      <point x="187" y="109" type="line"/>
      <point x="202" y="190" type="line" smooth="yes"/>
      <point x="208" y="222"/>
      <point x="186" y="254"/>
      <point x="154" y="260" type="curve" smooth="yes"/>
      <point x="122" y="266"/>
      <point x="90" y="244"/>
      <point x="84" y="212" type="curve" smooth="yes"/>
      <point x="69" y="126" type="line"/>
      <point x="57" y="46" type="line" smooth="yes"/>
      <point x="52" y="14"/>
      <point x="74" y="-16"/>
      <point x="105" y="-22" type="curve" smooth="yes"/>
      <point x="301" y="-58" type="line" smooth="yes"/>
      <point x="304" y="-59"/>
      <point x="309" y="-59"/>
    </contour>
  </outline>
</glyph>
<glyph name="four" format="1">
  <advance width="936"/>
  <unicode hex="0034"/>
  <outline>
    <contour>
      <point x="752" y="-45" type="curve" smooth="yes"/>
      <point x="777" y="-24"/>
      <point x="781" y="14"/>
      <point x="760" y="39" type="curve" smooth="yes"/>
      <point x="738" y="66" type="line"/>
      <point x="754" y="89"/>
      <point x="752" y="123"/>
      <point x="730" y="144" type="curve" smooth="yes"/>
      <point x="728" y="146" type="line"/>
      <point x="737" y="161" type="line"/>
      <point x="852" y="254" type="line" smooth="yes"/>
      <point x="880" y="277"/>
      <point x="882" y="317"/>
      <point x="857" y="343" type="curve" smooth="yes"/>
      <point x="781" y="419" type="line"/>
      <point x="794" y="472" type="line"/>
      <point x="871" y="561" type="line" smooth="yes"/>
      <point x="893" y="585"/>
      <point x="890" y="624"/>
      <point x="865" y="645" type="curve" smooth="yes"/>
      <point x="841" y="667"/>
      <point x="802" y="664"/>
      <point x="781" y="639" type="curve" smooth="yes"/>
      <point x="694" y="540" type="line" smooth="yes"/>
      <point x="688" y="533"/>
      <point x="683" y="522"/>
      <point x="681" y="514" type="curve" smooth="yes"/>
      <point x="657" y="414" type="line" smooth="yes"/>
      <point x="652" y="396"/>
      <point x="659" y="371"/>
      <point x="672" y="358" type="curve" smooth="yes"/>
      <point x="725" y="305" type="line"/>
      <point x="653" y="247" type="line" smooth="yes"/>
      <point x="649" y="244"/>
      <point x="643" y="237"/>
      <point x="640" y="232" type="curve" smooth="yes"/>
      <point x="639" y="231" type="line"/>
      <point x="626" y="248" type="line"/>
      <point x="626" y="249" type="line" smooth="yes"/>
      <point x="682" y="283"/>
      <point x="660" y="360"/>
      <point x="595" y="360" type="curve" smooth="yes"/>
      <point x="239" y="360" type="line"/>
      <point x="227" y="369" type="line"/>
      <point x="324" y="412" type="line" smooth="yes"/>
      <point x="373" y="433"/>
      <point x="376" y="492"/>
      <point x="330" y="519" type="curve" smooth="yes"/>
      <point x="268" y="555" type="line"/>
      <point x="310" y="584" type="line"/>
      <point x="437" y="666" type="line" smooth="yes"/>
      <point x="450" y="675"/>
      <point x="462" y="694"/>
      <point x="464" y="710" type="curve" smooth="yes"/>
      <point x="474" y="793" type="line" smooth="yes"/>
      <point x="477" y="825"/>
      <point x="453" y="856"/>
      <point x="421" y="860" type="curve" smooth="yes"/>
      <point x="389" y="863"/>
      <point x="358" y="839"/>
      <point x="354" y="807" type="curve" smooth="yes"/>
      <point x="348" y="752" type="line"/>
      <point x="242" y="682" type="line"/>
      <point x="123" y="599" type="line" smooth="yes"/>
      <point x="84" y="572"/>
      <point x="86" y="522"/>
      <point x="127" y="498" type="curve" smooth="yes"/>
      <point x="168" y="474" type="line"/>
      <point x="88" y="438" type="line" smooth="yes"/>
      <point x="43" y="418"/>
      <point x="36" y="366"/>
      <point x="75" y="336" type="curve" smooth="yes"/>
      <point x="174" y="258" type="line"/>
      <point x="174" y="240" type="line"/>
      <point x="480" y="240" type="line"/>
      <point x="483" y="235"/>
      <point x="485" y="231"/>
      <point x="489" y="226" type="curve" smooth="yes"/>
      <point x="554" y="146" type="line" smooth="yes"/>
      <point x="556" y="144"/>
      <point x="558" y="141"/>
      <point x="560" y="140" type="curve" smooth="yes"/>
      <point x="576" y="124" type="line"/>
      <point x="568" y="105"/>
      <point x="572" y="79"/>
      <point x="585" y="62" type="curve" smooth="yes"/>
      <point x="668" y="-37" type="line" smooth="yes"/>
      <point x="689" y="-62"/>
      <point x="727" y="-66"/>
    </contour>
  </outline>
</glyph>
<glyph name="five" format="1">
  <advance width="1089"/>
  <unicode hex="0035"/>
  <outline>
    <contour>
      <point x="690" y="-59" type="line"/>
      <point x="690" y="-29" type="line"/>
      <point x="820" y="1" type="line" smooth="yes"/>
      <point x="828" y="3"/>
      <point x="839" y="8"/>
      <point x="845" y="13" type="curve" smooth="yes"/>
      <point x="1015" y="155" type="line" smooth="yes"/>
      <point x="1055" y="188"/>
      <point x="1044" y="243"/>
      <point x="995" y="258" type="curve" smooth="yes"/>
      <point x="888" y="292" type="line"/>
      <point x="930" y="310" type="line" smooth="yes"/>
      <point x="992" y="335"/>
      <point x="979" y="419"/>
      <point x="912" y="425" type="curve" smooth="yes"/>
      <point x="506" y="461" type="line" smooth="yes"/>
      <point x="505" y="461"/>
      <point x="502" y="461"/>
      <point x="501" y="461" type="curve" smooth="yes"/>
      <point x="301" y="461" type="line"/>
      <point x="301" y="462" type="line" smooth="yes"/>
      <point x="388" y="562" type="line" smooth="yes"/>
      <point x="390" y="564"/>
      <point x="393" y="568"/>
      <point x="395" y="571" type="curve" smooth="yes"/>
      <point x="443" y="654" type="line" smooth="yes"/>
      <point x="455" y="676"/>
      <point x="452" y="704"/>
      <point x="437" y="723" type="curve"/>
      <point x="597" y="741" type="line"/>
      <point x="699" y="741" type="line" smooth="yes"/>
      <point x="731" y="741"/>
      <point x="759" y="769"/>
      <point x="759" y="801" type="curve" smooth="yes"/>
      <point x="759" y="833"/>
      <point x="731" y="861"/>
      <point x="699" y="861" type="curve" smooth="yes"/>
      <point x="594" y="861" type="line" smooth="yes"/>
      <point x="592" y="861"/>
      <point x="589" y="861"/>
      <point x="587" y="861" type="curve" smooth="yes"/>
      <point x="267" y="825" type="line" smooth="yes"/>
      <point x="207" y="818"/>
      <point x="190" y="750"/>
      <point x="239" y="715" type="curve" smooth="yes"/>
      <point x="311" y="666" type="line"/>
      <point x="294" y="636" type="line"/>
      <point x="216" y="546" type="line"/>
      <point x="79" y="450" type="line" smooth="yes"/>
      <point x="27" y="414"/>
      <point x="50" y="341"/>
      <point x="113" y="341" type="curve" smooth="yes"/>
      <point x="498" y="341" type="line"/>
      <point x="669" y="326" type="line"/>
      <point x="637" y="296"/>
      <point x="647" y="243"/>
      <point x="696" y="227" type="curve" smooth="yes"/>
      <point x="854" y="177" type="line"/>
      <point x="780" y="115" type="line"/>
      <point x="571" y="66" type="line" smooth="yes"/>
      <point x="565" y="65"/>
      <point x="560" y="63"/>
      <point x="556" y="61" type="curve"/>
      <point x="506" y="61" type="line"/>
      <point x="420" y="79" type="line"/>
      <point x="424" y="87" type="line" smooth="yes"/>
      <point x="440" y="113"/>
      <point x="433" y="148"/>
      <point x="408" y="166" type="curve" smooth="yes"/>
      <point x="293" y="250" type="line" smooth="yes"/>
      <point x="267" y="269"/>
      <point x="228" y="262"/>
      <point x="209" y="236" type="curve" smooth="yes"/>
      <point x="190" y="210"/>
      <point x="197" y="171"/>
      <point x="223" y="152" type="curve" smooth="yes"/>
      <point x="293" y="101" type="line"/>
      <point x="273" y="68" type="line" smooth="yes"/>
      <point x="250" y="30"/>
      <point x="269" y="-13"/>
      <point x="312" y="-22" type="curve" smooth="yes"/>
      <point x="488" y="-58" type="line" smooth="yes"/>
      <point x="491" y="-58"/>
      <point x="497" y="-59"/>
      <point x="500" y="-59" type="curve" smooth="yes"/>
    </contour>
  </outline>
</glyph>
<glyph name="six" format="1">
  <advance width="996"/>
  <unicode hex="0036"/>
  <outline>
    <contour>
      <point x="440" y="-59" type="curve" smooth="yes"/>
      <point x="618" y="-59" type="line" smooth="yes"/>
      <point x="620" y="-59"/>
      <point x="623" y="-59"/>
      <point x="624" y="-59" type="curve" smooth="yes"/>
      <point x="691" y="-52" type="line" smooth="yes"/>
      <point x="709" y="-50"/>
      <point x="731" y="-35"/>
      <point x="739" y="-18" type="curve" smooth="yes"/>
      <point x="763" y="34" type="line" smooth="yes"/>
      <point x="764" y="36"/>
      <point x="766" y="41"/>
      <point x="767" y="43" type="curve" smooth="yes"/>
      <point x="806" y="185" type="line" smooth="yes"/>
      <point x="809" y="196"/>
      <point x="808" y="213"/>
      <point x="804" y="223" type="curve" smooth="yes"/>
      <point x="771" y="306" type="line" smooth="yes"/>
      <point x="769" y="312"/>
      <point x="763" y="321"/>
      <point x="759" y="325" type="curve" smooth="yes"/>
      <point x="685" y="406" type="line" smooth="yes"/>
      <point x="678" y="413"/>
      <point x="663" y="421"/>
      <point x="653" y="424" type="curve" smooth="yes"/>
      <point x="485" y="460" type="line" smooth="yes"/>
      <point x="481" y="460"/>
      <point x="476" y="461"/>
      <point x="472" y="461" type="curve" smooth="yes"/>
      <point x="363" y="461" type="line"/>
      <point x="377" y="475" type="line" smooth="yes"/>
      <point x="392" y="490"/>
      <point x="398" y="518"/>
      <point x="392" y="537" type="curve" smooth="yes"/>
      <point x="363" y="621" type="line" smooth="yes"/>
      <point x="353" y="647"/>
      <point x="325" y="664"/>
      <point x="298" y="660" type="curve"/>
      <point x="213" y="710" type="line"/>
      <point x="217" y="719" type="line"/>
      <point x="267" y="741" type="line"/>
      <point x="554" y="741" type="line"/>
      <point x="688" y="734" type="line"/>
      <point x="777" y="710" type="line"/>
      <point x="718" y="640" type="line" smooth="yes"/>
      <point x="697" y="615"/>
      <point x="701" y="576"/>
      <point x="725" y="555" type="curve" smooth="yes"/>
      <point x="750" y="534"/>
      <point x="789" y="538"/>
      <point x="810" y="562" type="curve" smooth="yes"/>
      <point x="930" y="704" type="line" smooth="yes"/>
      <point x="960" y="740"/>
      <point x="945" y="788"/>
      <point x="900" y="800" type="curve" smooth="yes"/>
      <point x="713" y="852" type="line" smooth="yes"/>
      <point x="710" y="853"/>
      <point x="704" y="854"/>
      <point x="700" y="854" type="curve" smooth="yes"/>
      <point x="558" y="861" type="line" smooth="yes"/>
      <point x="557" y="861"/>
      <point x="556" y="861"/>
      <point x="555" y="861" type="curve" smooth="yes"/>
      <point x="254" y="861" type="line" smooth="yes"/>
      <point x="247" y="861"/>
      <point x="236" y="859"/>
      <point x="230" y="856" type="curve" smooth="yes"/>
      <point x="147" y="820" type="line" smooth="yes"/>
      <point x="135" y="815"/>
      <point x="122" y="801"/>
      <point x="116" y="789" type="curve" smooth="yes"/>
      <point x="81" y="709" type="line" smooth="yes"/>
      <point x="69" y="681"/>
      <point x="80" y="647"/>
      <point x="106" y="632" type="curve" smooth="yes"/>
      <point x="173" y="594" type="line"/>
      <point x="114" y="549" type="line" smooth="yes"/>
      <point x="81" y="524"/>
      <point x="80" y="479"/>
      <point x="113" y="454" type="curve" smooth="yes"/>
      <point x="224" y="367" type="line"/>
      <point x="237" y="299" type="line"/>
      <point x="230" y="241" type="line"/>
      <point x="86" y="172" type="line" smooth="yes"/>
      <point x="42" y="150"/>
      <point x="37" y="98"/>
      <point x="77" y="69" type="curve" smooth="yes"/>
      <point x="188" y="-12" type="line" smooth="yes"/>
      <point x="195" y="-16"/>
      <point x="206" y="-21"/>
      <point x="214" y="-22" type="curve" smooth="yes"/>
      <point x="430" y="-58" type="line" smooth="yes"/>
      <point x="433" y="-59"/>
      <point x="437" y="-59"/>
    </contour>
    <contour>
      <point x="311" y="147" type="line" smooth="yes"/>
      <point x="327" y="155"/>
      <point x="342" y="175"/>
      <point x="344" y="193" type="curve" smooth="yes"/>
      <point x="357" y="293" type="line" smooth="yes"/>
      <point x="358" y="299"/>
      <point x="358" y="307"/>
      <point x="357" y="313" type="curve" smooth="yes"/>
      <point x="351" y="341" type="line"/>
      <point x="466" y="341" type="line"/>
      <point x="609" y="310" type="line"/>
      <point x="663" y="252" type="line"/>
      <point x="685" y="198" type="line"/>
      <point x="652" y="80" type="line"/>
      <point x="645" y="64" type="line"/>
      <point x="615" y="61" type="line"/>
      <point x="445" y="61" type="line"/>
      <point x="247" y="94" type="line"/>
      <point x="229" y="107" type="line"/>
    </contour>
  </outline>
</glyph>
<glyph name="seven" format="1">
  <advance width="899"/>
  <unicode hex="0037"/>
  <outline>
    <contour>
      <point x="350" y="-17" type="curve" smooth="yes"/>
      <point x="370" y="69" type="line"/>
      <point x="383" y="128" type="line"/>
      <point x="531" y="200" type="line" smooth="yes"/>
      <point x="536" y="203"/>
      <point x="544" y="209"/>
      <point x="549" y="214" type="curve" smooth="yes"/>
      <point x="626" y="300" type="line" smooth="yes"/>
      <point x="640" y="316"/>
      <point x="645" y="345"/>
      <point x="636" y="364" type="curve" smooth="yes"/>
      <point x="623" y="393" type="line"/>
      <point x="782" y="455" type="line" smooth="yes"/>
      <point x="812" y="467"/>
      <point x="827" y="501"/>
      <point x="816" y="532" type="curve" smooth="yes"/>
      <point x="796" y="588" type="line"/>
      <point x="837" y="646" type="line" smooth="yes"/>
      <point x="862" y="680"/>
      <point x="848" y="723"/>
      <point x="808" y="737" type="curve" smooth="yes"/>
      <point x="587" y="816" type="line"/>
      <point x="529" y="849" type="line" smooth="yes"/>
      <point x="521" y="853"/>
      <point x="508" y="857"/>
      <point x="499" y="857" type="curve" smooth="yes"/>
      <point x="110" y="857" type="line" smooth="yes"/>
      <point x="78" y="857"/>
      <point x="50" y="829"/>
      <point x="50" y="797" type="curve" smooth="yes"/>
      <point x="50" y="765"/>
      <point x="78" y="737"/>
      <point x="110" y="737" type="curve" smooth="yes"/>
      <point x="483" y="737" type="line"/>
      <point x="532" y="709" type="line" smooth="yes"/>
      <point x="535" y="707"/>
      <point x="539" y="705"/>
      <point x="542" y="704" type="curve" smooth="yes"/>
      <point x="693" y="650" type="line"/>
      <point x="680" y="632" type="line" smooth="yes"/>
      <point x="670" y="618"/>
      <point x="667" y="593"/>
      <point x="673" y="577" type="curve" smooth="yes"/>
      <point x="684" y="546" type="line"/>
      <point x="521" y="481" type="line" smooth="yes"/>
      <point x="489" y="469"/>
      <point x="474" y="433"/>
      <point x="488" y="401" type="curve" smooth="yes"/>
      <point x="510" y="351" type="line"/>
      <point x="467" y="303" type="line"/>
      <point x="303" y="222" type="line" smooth="yes"/>
      <point x="289" y="215"/>
      <point x="275" y="197"/>
      <point x="271" y="181" type="curve" smooth="yes"/>
      <point x="254" y="96" type="line"/>
      <point x="234" y="11" type="line" smooth="yes"/>
      <point x="226" y="-21"/>
      <point x="247" y="-54"/>
      <point x="278" y="-61" type="curve" smooth="yes"/>
      <point x="310" y="-69"/>
      <point x="343" y="-48"/>
    </contour>
  </outline>
</glyph>
<glyph name="eight" format="1">
  <advance width="998"/>
  <unicode hex="0038"/>
  <outline>
    <contour>
      <point x="439" y="-60" type="curve" smooth="yes"/>
      <point x="487" y="-60" type="line"/>
      <point x="753" y="-53" type="line" smooth="yes"/>
      <point x="795" y="-52"/>
      <point x="821" y="-15"/>
      <point x="809" y="25" type="curve" smooth="yes"/>
      <point x="794" y="70" type="line"/>
      <point x="784" y="207" type="line"/>
      <point x="774" y="291" type="line" smooth="yes"/>
      <point x="773" y="294"/>
      <point x="772" y="299"/>
      <point x="771" y="301" type="curve" smooth="yes"/>
      <point x="757" y="346" type="line"/>
      <point x="799" y="347" type="line" smooth="yes"/>
      <point x="807" y="347"/>
      <point x="819" y="351"/>
      <point x="826" y="355" type="curve" smooth="yes"/>
      <point x="917" y="406" type="line" smooth="yes"/>
      <point x="953" y="427"/>
      <point x="959" y="472"/>
      <point x="929" y="501" type="curve" smooth="yes"/>
      <point x="785" y="643" type="line"/>
      <point x="721" y="705" type="line"/>
      <point x="729" y="755" type="line" smooth="yes"/>
      <point x="734" y="787"/>
      <point x="712" y="817"/>
      <point x="680" y="823" type="curve" smooth="yes"/>
      <point x="475" y="859" type="line" smooth="yes"/>
      <point x="473" y="860"/>
      <point x="468" y="860"/>
      <point x="465" y="860" type="curve" smooth="yes"/>
      <point x="362" y="860" type="line" smooth="yes"/>
      <point x="322" y="860"/>
      <point x="295" y="826"/>
      <point x="303" y="787" type="curve" smooth="yes"/>
      <point x="309" y="761" type="line"/>
      <point x="191" y="642" type="line"/>
      <point x="95" y="562" type="line" smooth="yes"/>
      <point x="57" y="530"/>
      <point x="66" y="477"/>
      <point x="113" y="460" type="curve" smooth="yes"/>
      <point x="233" y="416" type="line"/>
      <point x="229" y="400"/>
      <point x="233" y="380"/>
      <point x="247" y="363" type="curve" smooth="yes"/>
      <point x="254" y="354" type="line"/>
      <point x="104" y="249" type="line" smooth="yes"/>
      <point x="96" y="243"/>
      <point x="86" y="230"/>
      <point x="82" y="220" type="curve" smooth="yes"/>
      <point x="53" y="136" type="line" smooth="yes"/>
      <point x="42" y="103"/>
      <point x="60" y="69"/>
      <point x="93" y="59" type="curve" smooth="yes"/>
      <point x="361" y="-19" type="line"/>
      <point x="405" y="-49" type="line" smooth="yes"/>
      <point x="413" y="-55"/>
      <point x="429" y="-60"/>
    </contour>
    <contour>
      <point x="374" y="492" type="line"/>
      <point x="252" y="537" type="line"/>
      <point x="275" y="558" type="line"/>
      <point x="417" y="699" type="line" smooth="yes"/>
      <point x="427" y="709"/>
      <point x="433" y="725"/>
      <point x="435" y="740" type="curve"/>
      <point x="460" y="740" type="line"/>
      <point x="601" y="715" type="line"/>
      <point x="598" y="693" type="line" smooth="yes"/>
      <point x="595" y="676"/>
      <point x="603" y="652"/>
      <point x="615" y="640" type="curve" smooth="yes"/>
      <point x="701" y="557" type="line"/>
      <point x="788" y="471" type="line"/>
      <point x="780" y="466" type="line"/>
      <point x="597" y="460" type="line"/>
      <point x="453" y="460" type="line"/>
    </contour>
    <contour>
      <point x="483" y="60" type="line"/>
      <point x="458" y="60" type="line"/>
      <point x="422" y="85" type="line" smooth="yes"/>
      <point x="417" y="88"/>
      <point x="409" y="92"/>
      <point x="404" y="94" type="curve" smooth="yes"/>
      <point x="187" y="157" type="line"/>
      <point x="189" y="162" type="line"/>
      <point x="375" y="293" type="line" smooth="yes"/>
      <point x="391" y="304"/>
      <point x="400" y="321"/>
      <point x="400" y="340" type="curve"/>
      <point x="632" y="340" type="line"/>
      <point x="634" y="336" type="line"/>
      <point x="655" y="271" type="line"/>
      <point x="664" y="193" type="line"/>
      <point x="674" y="65" type="line"/>
    </contour>
  </outline>
</glyph>
<glyph name="nine" format="1">
  <advance width="1080"/>
  <unicode hex="0039"/>
  <outline>
    <contour>
      <point x="270" y="550" type="line" smooth="yes"/>
      <point x="297" y="568"/>
      <point x="305" y="604"/>
      <point x="288" y="631" type="curve" smooth="yes"/>
      <point x="234" y="720" type="line"/>
      <point x="258" y="733" type="line"/>
      <point x="488" y="740" type="line"/>
      <point x="753" y="740" type="line"/>
      <point x="812" y="711" type="line"/>
      <point x="875" y="672" type="line"/>
      <point x="851" y="647" type="line"/>
      <point x="694" y="551" type="line" smooth="yes"/>
      <point x="658" y="529"/>
      <point x="653" y="487"/>
      <point x="680" y="460" type="curve"/>
      <point x="332" y="460" type="line"/>
      <point x="229" y="490" type="line"/>
      <point x="208" y="509" type="line"/>
    </contour>
    <contour>
      <point x="315" y="-60" type="curve" smooth="yes"/>
      <point x="708" y="-60" type="line" smooth="yes"/>
      <point x="714" y="-60"/>
      <point x="724" y="-58"/>
      <point x="729" y="-56" type="curve" smooth="yes"/>
      <point x="824" y="-20" type="line" smooth="yes"/>
      <point x="826" y="-19"/>
      <point x="829" y="-18"/>
      <point x="831" y="-17" type="curve" smooth="yes"/>
      <point x="980" y="64" type="line" smooth="yes"/>
      <point x="1014" y="82"/>
      <point x="1022" y="123"/>
      <point x="998" y="154" type="curve" smooth="yes"/>
      <point x="932" y="237" type="line" smooth="yes"/>
      <point x="929" y="242"/>
      <point x="922" y="247"/>
      <point x="918" y="250" type="curve" smooth="yes"/>
      <point x="881" y="274" type="line"/>
      <point x="939" y="315" type="line" smooth="yes"/>
      <point x="976" y="341"/>
      <point x="976" y="387"/>
      <point x="945" y="410" type="curve"/>
      <point x="942" y="426"/>
      <point x="932" y="440"/>
      <point x="916" y="451" type="curve" smooth="yes"/>
      <point x="839" y="499" type="line"/>
      <point x="920" y="549" type="line" smooth="yes"/>
      <point x="924" y="551"/>
      <point x="929" y="555"/>
      <point x="932" y="558" type="curve" smooth="yes"/>
      <point x="1012" y="642" type="line" smooth="yes"/>
      <point x="1040" y="671"/>
      <point x="1035" y="713"/>
      <point x="1001" y="734" type="curve" smooth="yes"/>
      <point x="874" y="815" type="line" smooth="yes"/>
      <point x="872" y="816"/>
      <point x="869" y="817"/>
      <point x="868" y="818" type="curve" smooth="yes"/>
      <point x="793" y="854" type="line" smooth="yes"/>
      <point x="786" y="857"/>
      <point x="775" y="860"/>
      <point x="767" y="860" type="curve" smooth="yes"/>
      <point x="470" y="860" type="line"/>
      <point x="470" y="860" type="line"/>
      <point x="240" y="853" type="line" smooth="yes"/>
      <point x="232" y="853"/>
      <point x="219" y="849"/>
      <point x="212" y="845" type="curve" smooth="yes"/>
      <point x="121" y="794" type="line" smooth="yes"/>
      <point x="91" y="777"/>
      <point x="81" y="740"/>
      <point x="99" y="710" type="curve" smooth="yes"/>
      <point x="156" y="618" type="line"/>
      <point x="78" y="567" type="line" smooth="yes"/>
      <point x="44" y="544"/>
      <point x="40" y="500"/>
      <point x="70" y="472" type="curve" smooth="yes"/>
      <point x="158" y="392" type="line" smooth="yes"/>
      <point x="163" y="387"/>
      <point x="174" y="381"/>
      <point x="182" y="378" type="curve" smooth="yes"/>
      <point x="307" y="342" type="line" smooth="yes"/>
      <point x="312" y="341"/>
      <point x="319" y="340"/>
      <point x="324" y="340" type="curve" smooth="yes"/>
      <point x="685" y="340" type="line"/>
      <point x="659" y="313"/>
      <point x="663" y="272"/>
      <point x="697" y="250" type="curve" smooth="yes"/>
      <point x="754" y="213" type="line"/>
      <point x="770" y="176" type="line" smooth="yes"/>
      <point x="783" y="146"/>
      <point x="819" y="132"/>
      <point x="849" y="145" type="curve" smooth="yes"/>
      <point x="851" y="146" type="line"/>
      <point x="860" y="135" type="line"/>
      <point x="778" y="91" type="line"/>
      <point x="697" y="60" type="line"/>
      <point x="464" y="60" type="line"/>
      <point x="464" y="66" type="line" smooth="yes"/>
      <point x="462" y="76"/>
      <point x="456" y="91"/>
      <point x="449" y="99" type="curve" smooth="yes"/>
      <point x="321" y="240" type="line" smooth="yes"/>
      <point x="299" y="264"/>
      <point x="260" y="266"/>
      <point x="236" y="245" type="curve" smooth="yes"/>
      <point x="212" y="223"/>
      <point x="210" y="184"/>
      <point x="231" y="160" type="curve" smooth="yes"/>
      <point x="321" y="61" type="line"/>
      <point x="311" y="60" type="line" smooth="yes"/>
      <point x="233" y="54"/>
      <point x="237" y="-60"/>
    </contour>
  </outline>
</glyph>
<glyph name="colon" format="1">
  <advance width="459"/>
  <unicode hex="003A"/>
  <outline>
    <contour>
      <point x="168" y="579" type="curve" smooth="yes"/>
      <point x="171" y="546"/>
      <point x="200" y="521"/>
      <point x="232" y="523" type="curve" smooth="yes"/>
      <point x="353" y="532" type="line" smooth="yes"/>
      <point x="386" y="535"/>
      <point x="411" y="564"/>
      <point x="409" y="596" type="curve" smooth="yes"/>
      <point x="406" y="629"/>
      <point x="377" y="654"/>
      <point x="345" y="652" type="curve" smooth="yes"/>
      <point x="224" y="643" type="line" smooth="yes"/>
      <point x="191" y="640"/>
      <point x="166" y="611"/>
    </contour>
    <contour>
      <point x="380" y="0" type="curve" smooth="yes"/>
      <point x="381" y="32"/>
      <point x="354" y="60"/>
      <point x="321" y="61" type="curve" smooth="yes"/>
      <point x="111" y="65" type="line" smooth="yes"/>
      <point x="79" y="66"/>
      <point x="51" y="39"/>
      <point x="50" y="6" type="curve" smooth="yes"/>
      <point x="49" y="-26"/>
      <point x="76" y="-54"/>
      <point x="109" y="-55" type="curve" smooth="yes"/>
      <point x="319" y="-59" type="line" smooth="yes"/>
      <point x="351" y="-60"/>
      <point x="379" y="-33"/>
    </contour>
  </outline>
</glyph>
<glyph name="semicolon" format="1">
  <advance width="463"/>
  <unicode hex="003B"/>
  <outline>
    <contour>
      <point x="158" y="578" type="curve" smooth="yes"/>
      <point x="161" y="546"/>
      <point x="191" y="520"/>
      <point x="223" y="523" type="curve" smooth="yes"/>
      <point x="329" y="532" type="line" smooth="yes"/>
      <point x="361" y="535"/>
      <point x="387" y="565"/>
      <point x="384" y="597" type="curve" smooth="yes"/>
      <point x="381" y="629"/>
      <point x="351" y="655"/>
      <point x="319" y="652" type="curve" smooth="yes"/>
      <point x="213" y="643" type="line" smooth="yes"/>
      <point x="181" y="640"/>
      <point x="155" y="610"/>
    </contour>
    <contour>
      <point x="161" y="-68" type="curve" smooth="yes"/>
      <point x="350" y="-68" type="line" smooth="yes"/>
      <point x="420" y="-68"/>
      <point x="437" y="21"/>
      <point x="373" y="47" type="curve" smooth="yes"/>
      <point x="175" y="130" type="line"/>
      <point x="181" y="185" type="line" smooth="yes"/>
      <point x="184" y="218"/>
      <point x="160" y="248"/>
      <point x="128" y="252" type="curve" smooth="yes"/>
      <point x="95" y="255"/>
      <point x="65" y="231"/>
      <point x="61" y="199" type="curve" smooth="yes"/>
      <point x="50" y="99" type="line" smooth="yes"/>
      <point x="48" y="74"/>
      <point x="64" y="46"/>
      <point x="87" y="37" type="curve" smooth="yes"/>
      <point x="112" y="26" type="line"/>
      <point x="105" y="16"/>
      <point x="101" y="5"/>
      <point x="101" y="-8" type="curve" smooth="yes"/>
      <point x="101" y="-40"/>
      <point x="129" y="-68"/>
    </contour>
  </outline>
</glyph>
<glyph name="less" format="1">
  <advance width="627"/>
  <unicode hex="003C"/>
  <outline>
    <contour>
      <point x="505" y="79" type="curve" smooth="yes"/>
      <point x="527" y="129" type="line" smooth="yes"/>
      <point x="543" y="166"/>
      <point x="523" y="205"/>
      <point x="483" y="212" type="curve" smooth="yes"/>
      <point x="277" y="250" type="line"/>
      <point x="277" y="262"/>
      <point x="274" y="274"/>
      <point x="267" y="285" type="curve"/>
      <point x="304" y="295" type="line" smooth="yes"/>
      <point x="305" y="296"/>
      <point x="308" y="297"/>
      <point x="310" y="298" type="curve" smooth="yes"/>
      <point x="430" y="348" type="line" smooth="yes"/>
      <point x="438" y="351"/>
      <point x="448" y="359"/>
      <point x="453" y="365" type="curve" smooth="yes"/>
      <point x="489" y="409" type="line"/>
      <point x="552" y="454" type="line" smooth="yes"/>
      <point x="578" y="473"/>
      <point x="585" y="512"/>
      <point x="566" y="538" type="curve" smooth="yes"/>
      <point x="547" y="564"/>
      <point x="508" y="571"/>
      <point x="482" y="552" type="curve" smooth="yes"/>
      <point x="413" y="502" type="line" smooth="yes"/>
      <point x="409" y="499"/>
      <point x="404" y="494"/>
      <point x="402" y="491" type="curve" smooth="yes"/>
      <point x="370" y="453" type="line"/>
      <point x="267" y="410" type="line"/>
      <point x="96" y="361" type="line" smooth="yes"/>
      <point x="39" y="344"/>
      <point x="33" y="275"/>
      <point x="87" y="249" type="curve" smooth="yes"/>
      <point x="143" y="222" type="line"/>
      <point x="131" y="186"/>
      <point x="152" y="151"/>
      <point x="189" y="144" type="curve" smooth="yes"/>
      <point x="390" y="107" type="line"/>
      <point x="389" y="83"/>
      <point x="402" y="58"/>
      <point x="426" y="48" type="curve" smooth="yes"/>
      <point x="455" y="35"/>
      <point x="492" y="49"/>
    </contour>
  </outline>
</glyph>
<glyph name="equal" format="1">
  <advance width="872"/>
  <unicode hex="003D"/>
  <outline>
    <contour>
      <point x="656" y="378" type="line"/>
      <point x="656" y="498" type="line"/>
      <point x="127" y="498" type="line" smooth="yes"/>
      <point x="95" y="498"/>
      <point x="67" y="470"/>
      <point x="67" y="438" type="curve" smooth="yes"/>
      <point x="67" y="406"/>
      <point x="95" y="378"/>
      <point x="127" y="378" type="curve" smooth="yes"/>
    </contour>
    <contour>
      <point x="762" y="78" type="line" smooth="yes"/>
      <point x="794" y="78"/>
      <point x="822" y="106"/>
      <point x="822" y="138" type="curve" smooth="yes"/>
      <point x="822" y="170"/>
      <point x="794" y="198"/>
      <point x="762" y="198" type="curve" smooth="yes"/>
      <point x="110" y="198" type="line" smooth="yes"/>
      <point x="78" y="198"/>
      <point x="50" y="170"/>
      <point x="50" y="138" type="curve" smooth="yes"/>
      <point x="50" y="106"/>
      <point x="78" y="78"/>
      <point x="110" y="78" type="curve" smooth="yes"/>
    </contour>
  </outline>
</glyph>
<glyph name="greater" format="1">
  <advance width="729"/>
  <unicode hex="003E"/>
  <outline>
    <contour>
      <point x="315" y="100" type="curve" smooth="yes"/>
      <point x="330" y="139" type="line"/>
      <point x="358" y="172" type="line"/>
      <point x="437" y="214" type="line"/>
      <point x="631" y="262" type="line" smooth="yes"/>
      <point x="693" y="277"/>
      <point x="697" y="355"/>
      <point x="636" y="377" type="curve" smooth="yes"/>
      <point x="496" y="426" type="line"/>
      <point x="369" y="476" type="line" smooth="yes"/>
      <point x="367" y="477"/>
      <point x="363" y="478"/>
      <point x="361" y="478" type="curve" smooth="yes"/>
      <point x="177" y="522" type="line"/>
      <point x="163" y="549" type="line" smooth="yes"/>
      <point x="147" y="577"/>
      <point x="110" y="588"/>
      <point x="81" y="573" type="curve" smooth="yes"/>
      <point x="53" y="557"/>
      <point x="42" y="520"/>
      <point x="57" y="491" type="curve" smooth="yes"/>
      <point x="84" y="441" type="line" smooth="yes"/>
      <point x="91" y="428"/>
      <point x="109" y="415"/>
      <point x="123" y="412" type="curve" smooth="yes"/>
      <point x="329" y="363" type="line"/>
      <point x="411" y="330" type="line"/>
      <point x="401" y="328" type="line" smooth="yes"/>
      <point x="398" y="327"/>
      <point x="392" y="325"/>
      <point x="388" y="323" type="curve" smooth="yes"/>
      <point x="292" y="273" type="line" smooth="yes"/>
      <point x="287" y="270"/>
      <point x="279" y="264"/>
      <point x="275" y="259" type="curve" smooth="yes"/>
      <point x="232" y="209" type="line" smooth="yes"/>
      <point x="228" y="204"/>
      <point x="223" y="196"/>
      <point x="221" y="190" type="curve" smooth="yes"/>
      <point x="203" y="140" type="line" smooth="yes"/>
      <point x="192" y="110"/>
      <point x="208" y="75"/>
      <point x="239" y="64" type="curve" smooth="yes"/>
      <point x="269" y="53"/>
      <point x="304" y="69"/>
    </contour>
  </outline>
</glyph>
<glyph name="question" format="1">
  <advance width="758"/>
  <unicode hex="003F"/>
  <outline>
    <contour>
      <point x="396" y="162" type="curve" smooth="yes"/>
      <point x="478" y="261" type="line" smooth="yes"/>
      <point x="488" y="273"/>
      <point x="493" y="293"/>
      <point x="491" y="308" type="curve" smooth="yes"/>
      <point x="481" y="382" type="line"/>
      <point x="511" y="421" type="line"/>
      <point x="622" y="563" type="line" smooth="yes"/>
      <point x="639" y="584"/>
      <point x="638" y="618"/>
      <point x="621" y="639" type="curve" smooth="yes"/>
      <point x="596" y="667" type="line"/>
      <point x="675" y="712" type="line" smooth="yes"/>
      <point x="730" y="743"/>
      <point x="714" y="817"/>
      <point x="651" y="824" type="curve" smooth="yes"/>
      <point x="292" y="860" type="line" smooth="yes"/>
      <point x="268" y="862"/>
      <point x="248" y="853"/>
      <point x="236" y="839" type="curve"/>
      <point x="96" y="799" type="line" smooth="yes"/>
      <point x="50" y="786"/>
      <point x="35" y="736"/>
      <point x="68" y="701" type="curve" smooth="yes"/>
      <point x="199" y="558" type="line" smooth="yes"/>
      <point x="221" y="535"/>
      <point x="260" y="533"/>
      <point x="284" y="555" type="curve" smooth="yes"/>
      <point x="307" y="577"/>
      <point x="309" y="616"/>
      <point x="287" y="640" type="curve" smooth="yes"/>
      <point x="222" y="710" type="line"/>
      <point x="311" y="735" type="line" smooth="yes"/>
      <point x="313" y="736"/>
      <point x="314" y="736"/>
      <point x="315" y="737" type="curve"/>
      <point x="458" y="722" type="line"/>
      <point x="438" y="701"/>
      <point x="437" y="669"/>
      <point x="458" y="644" type="curve" smooth="yes"/>
      <point x="497" y="598" type="line"/>
      <point x="417" y="495" type="line"/>
      <point x="371" y="436" type="line" smooth="yes"/>
      <point x="362" y="425"/>
      <point x="357" y="405"/>
      <point x="359" y="391" type="curve" smooth="yes"/>
      <point x="369" y="317" type="line"/>
      <point x="304" y="238" type="line" smooth="yes"/>
      <point x="283" y="213"/>
      <point x="287" y="174"/>
      <point x="312" y="154" type="curve" smooth="yes"/>
      <point x="337" y="133"/>
      <point x="376" y="137"/>
    </contour>
    <contour>
      <point x="246" y="-5" type="curve" smooth="yes"/>
      <point x="249" y="-37"/>
      <point x="279" y="-62"/>
      <point x="311" y="-60" type="curve" smooth="yes"/>
      <point x="448" y="-49" type="line" smooth="yes"/>
      <point x="480" y="-46"/>
      <point x="505" y="-16"/>
      <point x="503" y="16" type="curve" smooth="yes"/>
      <point x="500" y="48"/>
      <point x="470" y="73"/>
      <point x="438" y="71" type="curve" smooth="yes"/>
      <point x="301" y="60" type="line" smooth="yes"/>
      <point x="269" y="57"/>
      <point x="244" y="27"/>
    </contour>
  </outline>
</glyph>
<glyph name="at" format="1">
  <advance width="1016"/>
  <unicode hex="0040"/>
  <outline>
    <contour>
      <point x="576" y="513" type="line" smooth="yes"/>
      <point x="601" y="534"/>
      <point x="604" y="573"/>
      <point x="582" y="597" type="curve" smooth="yes"/>
      <point x="566" y="616"/>
      <point x="540" y="622"/>
      <point x="517" y="614" type="curve"/>
      <point x="506" y="618"/>
      <point x="494" y="619"/>
      <point x="482" y="616" type="curve" smooth="yes"/>
      <point x="454" y="608"/>
      <point x="435" y="580"/>
      <point x="438" y="552" type="curve"/>
      <point x="431" y="545" type="line" smooth="yes"/>
      <point x="418" y="534"/>
      <point x="409" y="510"/>
      <point x="410" y="493" type="curve" smooth="yes"/>
      <point x="420" y="403" type="line"/>
      <point x="295" y="370" type="line"/>
      <point x="294" y="376"/>
      <point x="294" y="376"/>
      <point x="294" y="376" type="curve"/>
      <point x="269" y="466" type="line"/>
      <point x="276" y="534" type="line"/>
      <point x="343" y="601" type="line" smooth="yes"/>
      <point x="359" y="617"/>
      <point x="365" y="646"/>
      <point x="356" y="666" type="curve" smooth="yes"/>
      <point x="352" y="678" type="line"/>
      <point x="455" y="698" type="line"/>
      <point x="465" y="698" type="line"/>
      <point x="618" y="663" type="line"/>
      <point x="807" y="607" type="line"/>
      <point x="797" y="592" type="line" smooth="yes"/>
      <point x="794" y="588"/>
      <point x="790" y="580"/>
      <point x="789" y="575" type="curve" smooth="yes"/>
      <point x="760" y="480" type="line"/>
      <point x="714" y="385" type="line" smooth="yes"/>
      <point x="710" y="377"/>
      <point x="708" y="365"/>
      <point x="709" y="356" type="curve"/>
      <point x="630" y="402" type="line"/>
      <point x="581" y="482" type="line"/>
      <point x="573" y="510" type="line"/>
    </contour>
    <contour>
      <point x="619" y="252" type="line" smooth="yes"/>
      <point x="613" y="258"/>
      <point x="603" y="264"/>
      <point x="595" y="267" type="curve" smooth="yes"/>
      <point x="498" y="299" type="line"/>
      <point x="500" y="300" type="line" smooth="yes"/>
      <point x="515" y="304"/>
      <point x="528" y="314"/>
      <point x="536" y="327" type="curve"/>
      <point x="536" y="326" type="line" smooth="yes"/>
      <point x="540" y="319"/>
      <point x="549" y="311"/>
      <point x="556" y="306" type="curve" smooth="yes"/>
      <point x="641" y="256" type="line"/>
      <point x="625" y="246" type="line"/>
    </contour>
    <contour>
      <point x="492" y="-102" type="line" smooth="yes"/>
      <point x="524" y="-102"/>
      <point x="552" y="-74"/>
      <point x="552" y="-42" type="curve" smooth="yes"/>
      <point x="552" y="-10"/>
      <point x="524" y="18"/>
      <point x="492" y="18" type="curve" smooth="yes"/>
      <point x="404" y="18" type="line"/>
      <point x="226" y="50" type="line"/>
      <point x="181" y="90" type="line"/>
      <point x="200" y="134" type="line" smooth="yes"/>
      <point x="203" y="141"/>
      <point x="205" y="151"/>
      <point x="205" y="157" type="curve" smooth="yes"/>
      <point x="206" y="236" type="line"/>
      <point x="236" y="270" type="line"/>
      <point x="244" y="261"/>
      <point x="254" y="254"/>
      <point x="268" y="249" type="curve" smooth="yes"/>
      <point x="539" y="159" type="line"/>
      <point x="539" y="148"/>
      <point x="542" y="136"/>
      <point x="548" y="126" type="curve" smooth="yes"/>
      <point x="565" y="99"/>
      <point x="602" y="90"/>
      <point x="629" y="106" type="curve"/>
      <point x="631" y="106"/>
      <point x="633" y="107"/>
      <point x="636" y="107" type="curve" smooth="yes"/>
      <point x="833" y="159" type="line" smooth="yes"/>
      <point x="868" y="168"/>
      <point x="886" y="203"/>
      <point x="875" y="237" type="curve" smooth="yes"/>
      <point x="833" y="355" type="line"/>
      <point x="870" y="432" type="line" smooth="yes"/>
      <point x="871" y="435"/>
      <point x="873" y="439"/>
      <point x="873" y="441" type="curve" smooth="yes"/>
      <point x="901" y="531" type="line"/>
      <point x="954" y="607" type="line" smooth="yes"/>
      <point x="979" y="643"/>
      <point x="963" y="687"/>
      <point x="921" y="699" type="curve" smooth="yes"/>
      <point x="644" y="780" type="line"/>
      <point x="485" y="817" type="line" smooth="yes"/>
      <point x="482" y="817"/>
      <point x="476" y="818"/>
      <point x="472" y="818" type="curve" smooth="yes"/>
      <point x="449" y="818" type="line" smooth="yes"/>
      <point x="446" y="818"/>
      <point x="441" y="817"/>
      <point x="437" y="817" type="curve" smooth="yes"/>
      <point x="257" y="781" type="line" smooth="yes"/>
      <point x="218" y="774"/>
      <point x="198" y="736"/>
      <point x="213" y="700" type="curve" smooth="yes"/>
      <point x="230" y="658" type="line"/>
      <point x="177" y="605" type="line" smooth="yes"/>
      <point x="168" y="596"/>
      <point x="161" y="580"/>
      <point x="159" y="568" type="curve" smooth="yes"/>
      <point x="148" y="467" type="line" smooth="yes"/>
      <point x="148" y="461"/>
      <point x="148" y="451"/>
      <point x="150" y="445" type="curve" smooth="yes"/>
      <point x="169" y="375" type="line"/>
      <point x="101" y="299" type="line" smooth="yes"/>
      <point x="93" y="290"/>
      <point x="86" y="272"/>
      <point x="86" y="260" type="curve" smooth="yes"/>
      <point x="85" y="171" type="line"/>
      <point x="54" y="98" type="line" smooth="yes"/>
      <point x="45" y="76"/>
      <point x="52" y="46"/>
      <point x="69" y="30" type="curve" smooth="yes"/>
      <point x="159" y="-51" type="line" smooth="yes"/>
      <point x="166" y="-57"/>
      <point x="179" y="-63"/>
      <point x="188" y="-65" type="curve" smooth="yes"/>
      <point x="388" y="-101" type="line" smooth="yes"/>
      <point x="391" y="-102"/>
      <point x="396" y="-102"/>
      <point x="399" y="-102" type="curve" smooth="yes"/>
    </contour>
  </outline>
</glyph>
<glyph name="A" format="1">
  <advance width="1107"/>
  <unicode hex="0041"/>
  <outline>
    <contour>
      <point x="284" y="435" type="line"/>
      <point x="212" y="526" type="line"/>
      <point x="197" y="587" type="line"/>
      <point x="232" y="636" type="line"/>
      <point x="351" y="706" type="line"/>
      <point x="426" y="736" type="line"/>
      <point x="567" y="736" type="line"/>
      <point x="622" y="710" type="line"/>
      <point x="689" y="638" type="line" smooth="yes"/>
      <point x="693" y="634"/>
      <point x="700" y="629"/>
      <point x="704" y="626" type="curve" smooth="yes"/>
      <point x="848" y="549" type="line"/>
      <point x="906" y="472" type="line"/>
      <point x="925" y="406" type="line"/>
      <point x="537" y="406" type="line" smooth="yes"/>
      <point x="530" y="406"/>
      <point x="519" y="404"/>
      <point x="513" y="401" type="curve" smooth="yes"/>
      <point x="436" y="368" type="line"/>
      <point x="349" y="348" type="line"/>
    </contour>
    <contour>
      <point x="453" y="-7" type="curve" smooth="yes"/>
      <point x="456" y="70" type="line" smooth="yes"/>
      <point x="457" y="91"/>
      <point x="443" y="116"/>
      <point x="425" y="126" type="curve" smooth="yes"/>
      <point x="282" y="202" type="line"/>
      <point x="281" y="203" type="line"/>
      <point x="293" y="211" type="line"/>
      <point x="468" y="252" type="line" smooth="yes"/>
      <point x="471" y="253"/>
      <point x="476" y="254"/>
      <point x="479" y="255" type="curve" smooth="yes"/>
      <point x="549" y="286" type="line"/>
      <point x="749" y="286" type="line"/>
      <point x="728" y="268"/>
      <point x="721" y="237"/>
      <point x="734" y="212" type="curve" smooth="yes"/>
      <point x="798" y="90" type="line"/>
      <point x="809" y="69" type="line"/>
      <point x="753" y="54" type="line" smooth="yes"/>
      <point x="721" y="46"/>
      <point x="702" y="12"/>
      <point x="710" y="-19" type="curve" smooth="yes"/>
      <point x="718" y="-51"/>
      <point x="752" y="-70"/>
      <point x="783" y="-62" type="curve" smooth="yes"/>
      <point x="912" y="-28" type="line" smooth="yes"/>
      <point x="951" y="-18"/>
      <point x="969" y="22"/>
      <point x="950" y="58" type="curve" smooth="yes"/>
      <point x="904" y="146" type="line"/>
      <point x="866" y="219" type="line"/>
      <point x="1029" y="323" type="line" smooth="yes"/>
      <point x="1050" y="336"/>
      <point x="1061" y="367"/>
      <point x="1055" y="390" type="curve" smooth="yes"/>
      <point x="1019" y="516" type="line" smooth="yes"/>
      <point x="1017" y="522"/>
      <point x="1013" y="531"/>
      <point x="1009" y="536" type="curve" smooth="yes"/>
      <point x="936" y="632" type="line" smooth="yes"/>
      <point x="931" y="638"/>
      <point x="923" y="645"/>
      <point x="916" y="649" type="curve" smooth="yes"/>
      <point x="770" y="727" type="line"/>
      <point x="702" y="801" type="line" smooth="yes"/>
      <point x="697" y="805"/>
      <point x="689" y="811"/>
      <point x="683" y="814" type="curve" smooth="yes"/>
      <point x="605" y="850" type="line" smooth="yes"/>
      <point x="599" y="853"/>
      <point x="587" y="856"/>
      <point x="580" y="856" type="curve" smooth="yes"/>
      <point x="415" y="856" type="line" smooth="yes"/>
      <point x="409" y="856"/>
      <point x="399" y="854"/>
      <point x="393" y="852" type="curve" smooth="yes"/>
      <point x="302" y="816" type="line" smooth="yes"/>
      <point x="300" y="815"/>
      <point x="296" y="814"/>
      <point x="294" y="812" type="curve" smooth="yes"/>
      <point x="160" y="733" type="line" smooth="yes"/>
      <point x="154" y="730"/>
      <point x="146" y="722"/>
      <point x="142" y="717" type="curve" smooth="yes"/>
      <point x="83" y="635" type="line" smooth="yes"/>
      <point x="74" y="623"/>
      <point x="70" y="600"/>
      <point x="74" y="586" type="curve" smooth="yes"/>
      <point x="99" y="485" type="line" smooth="yes"/>
      <point x="100" y="478"/>
      <point x="105" y="468"/>
      <point x="110" y="462" type="curve" smooth="yes"/>
      <point x="188" y="363" type="line"/>
      <point x="221" y="318" type="line"/>
      <point x="100" y="290" type="line" smooth="yes"/>
      <point x="42" y="277"/>
      <point x="32" y="210"/>
      <point x="83" y="180" type="curve" smooth="yes"/>
      <point x="113" y="162" type="line"/>
      <point x="122" y="89" type="line" smooth="yes"/>
      <point x="125" y="71"/>
      <point x="140" y="50"/>
      <point x="156" y="43" type="curve" smooth="yes"/>
      <point x="367" y="-58" type="line" smooth="yes"/>
      <point x="409" y="-78"/>
      <point x="451" y="-53"/>
    </contour>
  </outline>
</glyph>
<glyph name="B" format="1">
  <advance width="1052"/>
  <unicode hex="0042"/>
  <outline>
    <contour>
      <point x="527" y="-56" type="curve" smooth="yes"/>
      <point x="591" y="-56" type="line"/>
      <point x="713" y="-49" type="line" smooth="yes"/>
      <point x="721" y="-48"/>
      <point x="732" y="-45"/>
      <point x="739" y="-41" type="curve" smooth="yes"/>
      <point x="831" y="10" type="line" smooth="yes"/>
      <point x="856" y="24"/>
      <point x="868" y="57"/>
      <point x="858" y="83" type="curve" smooth="yes"/>
      <point x="819" y="189" type="line"/>
      <point x="874" y="245" type="line" smooth="yes"/>
      <point x="899" y="271"/>
      <point x="897" y="310"/>
      <point x="870" y="333" type="curve" smooth="yes"/>
      <point x="822" y="374" type="line"/>
      <point x="955" y="405" type="line" smooth="yes"/>
      <point x="999" y="416"/>
      <point x="1016" y="461"/>
      <point x="990" y="498" type="curve" smooth="yes"/>
      <point x="891" y="640" type="line" smooth="yes"/>
      <point x="887" y="646"/>
      <point x="878" y="654"/>
      <point x="872" y="658" type="curve" smooth="yes"/>
      <point x="784" y="709" type="line"/>
      <point x="801" y="735" type="line" smooth="yes"/>
      <point x="826" y="773"/>
      <point x="808" y="818"/>
      <point x="764" y="827" type="curve" smooth="yes"/>
      <point x="598" y="863" type="line" smooth="yes"/>
      <point x="594" y="863"/>
      <point x="589" y="864"/>
      <point x="585" y="864" type="curve" smooth="yes"/>
      <point x="425" y="864" type="line"/>
      <point x="425" y="859" type="line"/>
      <point x="169" y="828" type="line" smooth="yes"/>
      <point x="156" y="827"/>
      <point x="139" y="817"/>
      <point x="131" y="807" type="curve" smooth="yes"/>
      <point x="64" y="729" type="line" smooth="yes"/>
      <point x="44" y="705"/>
      <point x="46" y="668"/>
      <point x="69" y="646" type="curve" smooth="yes"/>
      <point x="156" y="564" type="line" smooth="yes"/>
      <point x="159" y="562"/>
      <point x="164" y="558"/>
      <point x="168" y="556" type="curve" smooth="yes"/>
      <point x="247" y="511" type="line"/>
      <point x="136" y="459" type="line" smooth="yes"/>
      <point x="116" y="450"/>
      <point x="101" y="424"/>
      <point x="102" y="401" type="curve" smooth="yes"/>
      <point x="108" y="300" type="line" smooth="yes"/>
      <point x="109" y="284"/>
      <point x="121" y="263"/>
      <point x="135" y="254" type="curve" smooth="yes"/>
      <point x="220" y="197" type="line"/>
      <point x="112" y="107" type="line" smooth="yes"/>
      <point x="73" y="74"/>
      <point x="83" y="22"/>
      <point x="129" y="4" type="curve" smooth="yes"/>
      <point x="265" y="-46" type="line" smooth="yes"/>
      <point x="270" y="-48"/>
      <point x="279" y="-50"/>
      <point x="285" y="-50" type="curve" smooth="yes"/>
      <point x="525" y="-56" type="line" smooth="yes"/>
      <point x="526" y="-56"/>
      <point x="527" y="-56"/>
    </contour>
    <contour>
      <point x="659" y="460" type="line" smooth="yes"/>
      <point x="653" y="462"/>
      <point x="644" y="464"/>
      <point x="638" y="464" type="curve" smooth="yes"/>
      <point x="421" y="464" type="line"/>
      <point x="451" y="491"/>
      <point x="447" y="537"/>
      <point x="407" y="559" type="curve" smooth="yes"/>
      <point x="233" y="657" type="line"/>
      <point x="193" y="695" type="line"/>
      <point x="207" y="712" type="line"/>
      <point x="471" y="744" type="line"/>
      <point x="579" y="744" type="line"/>
      <point x="653" y="728" type="line"/>
      <point x="648" y="722" type="line" smooth="yes"/>
      <point x="629" y="693"/>
      <point x="638" y="655"/>
      <point x="669" y="637" type="curve" smooth="yes"/>
      <point x="800" y="561" type="line"/>
      <point x="841" y="502" type="line"/>
      <point x="703" y="470" type="line"/>
      <point x="675" y="462" type="line" smooth="yes"/>
      <point x="671" y="461"/>
      <point x="668" y="460"/>
      <point x="664" y="458" type="curve"/>
    </contour>
    <contour>
      <point x="591" y="64" type="line"/>
      <point x="528" y="64" type="line"/>
      <point x="298" y="70" type="line"/>
      <point x="268" y="81" type="line"/>
      <point x="358" y="156" type="line" smooth="yes"/>
      <point x="391" y="183"/>
      <point x="389" y="228"/>
      <point x="353" y="252" type="curve" smooth="yes"/>
      <point x="226" y="337" type="line"/>
      <point x="226" y="344" type="line"/>
      <point x="627" y="344" type="line"/>
      <point x="706" y="315" type="line"/>
      <point x="743" y="284" type="line"/>
      <point x="706" y="246" type="line" smooth="yes"/>
      <point x="691" y="231"/>
      <point x="685" y="203"/>
      <point x="693" y="183" type="curve" smooth="yes"/>
      <point x="728" y="90" type="line"/>
      <point x="692" y="70" type="line"/>
    </contour>
  </outline>
</glyph>
<glyph name="C" format="1">
  <advance width="980"/>
  <unicode hex="0043"/>
  <outline>
    <contour>
      <point x="451" y="-62" type="line" smooth="yes"/>
      <point x="454" y="-62"/>
      <point x="458" y="-62"/>
      <point x="460" y="-61" type="curve" smooth="yes"/>
      <point x="505" y="-54" type="line"/>
      <point x="768" y="-3" type="line" smooth="yes"/>
      <point x="780" y="0"/>
      <point x="796" y="9"/>
      <point x="804" y="19" type="curve" smooth="yes"/>
      <point x="918" y="160" type="line" smooth="yes"/>
      <point x="938" y="186"/>
      <point x="934" y="224"/>
      <point x="909" y="245" type="curve" smooth="yes"/>
      <point x="883" y="265"/>
      <point x="845" y="261"/>
      <point x="824" y="236" type="curve" smooth="yes"/>
      <point x="724" y="111" type="line"/>
      <point x="486" y="64" type="line"/>
      <point x="446" y="58" type="line"/>
      <point x="395" y="58" type="line"/>
      <point x="363" y="63" type="line"/>
      <point x="234" y="105" type="line"/>
      <point x="186" y="186" type="line"/>
      <point x="257" y="254" type="line" smooth="yes"/>
      <point x="263" y="260"/>
      <point x="270" y="270"/>
      <point x="273" y="277" type="curve" smooth="yes"/>
      <point x="309" y="379" type="line" smooth="yes"/>
      <point x="316" y="399"/>
      <point x="309" y="427"/>
      <point x="294" y="442" type="curve" smooth="yes"/>
      <point x="203" y="532" type="line"/>
      <point x="189" y="579" type="line"/>
      <point x="263" y="635" type="line"/>
      <point x="368" y="710" type="line"/>
      <point x="428" y="736" type="line"/>
      <point x="605" y="719" type="line"/>
      <point x="602" y="715"/>
      <point x="599" y="710"/>
      <point x="597" y="706" type="curve" smooth="yes"/>
      <point x="559" y="623" type="line" smooth="yes"/>
      <point x="546" y="593"/>
      <point x="560" y="557"/>
      <point x="589" y="543" type="curve" smooth="yes"/>
      <point x="619" y="530"/>
      <point x="655" y="544"/>
      <point x="669" y="573" type="curve" smooth="yes"/>
      <point x="699" y="640" type="line"/>
      <point x="816" y="711" type="line" smooth="yes"/>
      <point x="870" y="743"/>
      <point x="853" y="816"/>
      <point x="791" y="822" type="curve" smooth="yes"/>
      <point x="436" y="856" type="line"/>
      <point x="431" y="857"/>
      <point x="425" y="858"/>
      <point x="419" y="858" type="curve" smooth="yes"/>
      <point x="413" y="858" type="line" smooth="yes"/>
      <point x="395" y="858"/>
      <point x="381" y="852"/>
      <point x="371" y="842" type="curve"/>
      <point x="314" y="818" type="line" smooth="yes"/>
      <point x="311" y="816"/>
      <point x="306" y="814"/>
      <point x="304" y="812" type="curve" smooth="yes"/>
      <point x="193" y="733" type="line"/>
      <point x="84" y="650" type="line" smooth="yes"/>
      <point x="66" y="636"/>
      <point x="56" y="607"/>
      <point x="62" y="585" type="curve" smooth="yes"/>
      <point x="92" y="483" type="line" smooth="yes"/>
      <point x="95" y="475"/>
      <point x="102" y="464"/>
      <point x="108" y="458" type="curve" smooth="yes"/>
      <point x="183" y="383" type="line"/>
      <point x="164" y="331" type="line"/>
      <point x="69" y="239" type="line" smooth="yes"/>
      <point x="49" y="221"/>
      <point x="45" y="188"/>
      <point x="58" y="165" type="curve" smooth="yes"/>
      <point x="143" y="24" type="line" smooth="yes"/>
      <point x="149" y="13"/>
      <point x="164" y="1"/>
      <point x="176" y="-3" type="curve" smooth="yes"/>
      <point x="331" y="-53" type="line" smooth="yes"/>
      <point x="333" y="-54"/>
      <point x="337" y="-55"/>
      <point x="340" y="-55" type="curve" smooth="yes"/>
      <point x="381" y="-61" type="line" smooth="yes"/>
      <point x="383" y="-62"/>
      <point x="387" y="-62"/>
      <point x="390" y="-62" type="curve" smooth="yes"/>
    </contour>
  </outline>
</glyph>
<glyph name="D" format="1">
  <advance width="1016"/>
  <unicode hex="0044"/>
  <outline>
    <contour>
      <point x="160" y="-61" type="curve" smooth="yes"/>
      <point x="505" y="-61" type="line"/>
      <point x="770" y="-54" type="line" smooth="yes"/>
      <point x="778" y="-54"/>
      <point x="791" y="-50"/>
      <point x="798" y="-46" type="curve" smooth="yes"/>
      <point x="889" y="5" type="line" smooth="yes"/>
      <point x="928" y="27"/>
      <point x="933" y="73"/>
      <point x="900" y="102" type="curve" smooth="yes"/>
      <point x="777" y="211" type="line"/>
      <point x="805" y="261" type="line"/>
      <point x="912" y="354" type="line" smooth="yes"/>
      <point x="918" y="360"/>
      <point x="926" y="371"/>
      <point x="929" y="380" type="curve" smooth="yes"/>
      <point x="963" y="480" type="line" smooth="yes"/>
      <point x="973" y="509"/>
      <point x="958" y="542"/>
      <point x="930" y="554" type="curve"/>
      <point x="941" y="564"/>
      <point x="949" y="577"/>
      <point x="951" y="593" type="curve" smooth="yes"/>
      <point x="959" y="676" type="line" smooth="yes"/>
      <point x="962" y="701"/>
      <point x="945" y="729"/>
      <point x="922" y="738" type="curve" smooth="yes"/>
      <point x="735" y="813" type="line"/>
      <point x="717" y="836" type="line" smooth="yes"/>
      <point x="707" y="849"/>
      <point x="686" y="859"/>
      <point x="670" y="859" type="curve" smooth="yes"/>
      <point x="141" y="859" type="line" smooth="yes"/>
      <point x="76" y="859"/>
      <point x="54" y="782"/>
      <point x="109" y="748" type="curve" smooth="yes"/>
      <point x="249" y="662" type="line"/>
      <point x="261" y="604" type="line"/>
      <point x="227" y="521" type="line" smooth="yes"/>
      <point x="222" y="507"/>
      <point x="223" y="485"/>
      <point x="230" y="471" type="curve" smooth="yes"/>
      <point x="278" y="379" type="line"/>
      <point x="287" y="334" type="line"/>
      <point x="110" y="254" type="line" smooth="yes"/>
      <point x="96" y="247"/>
      <point x="81" y="229"/>
      <point x="77" y="214" type="curve" smooth="yes"/>
      <point x="51" y="114" type="line" smooth="yes"/>
      <point x="48" y="102"/>
      <point x="50" y="83"/>
      <point x="56" y="72" type="curve" smooth="yes"/>
      <point x="107" y="-28" type="line" smooth="yes"/>
      <point x="116" y="-46"/>
      <point x="140" y="-61"/>
    </contour>
    <contour>
      <point x="505" y="59" type="line"/>
      <point x="197" y="59" type="line"/>
      <point x="173" y="106" type="line"/>
      <point x="186" y="156" type="line"/>
      <point x="380" y="244" type="line" smooth="yes"/>
      <point x="404" y="255"/>
      <point x="419" y="285"/>
      <point x="414" y="311" type="curve" smooth="yes"/>
      <point x="394" y="411" type="line" smooth="yes"/>
      <point x="393" y="415"/>
      <point x="390" y="423"/>
      <point x="388" y="427" type="curve" smooth="yes"/>
      <point x="349" y="502" type="line"/>
      <point x="379" y="577" type="line" smooth="yes"/>
      <point x="382" y="586"/>
      <point x="384" y="602"/>
      <point x="382" y="611" type="curve" smooth="yes"/>
      <point x="361" y="711" type="line" smooth="yes"/>
      <point x="359" y="720"/>
      <point x="353" y="731"/>
      <point x="346" y="739" type="curve"/>
      <point x="641" y="739" type="line"/>
      <point x="651" y="726" type="line" smooth="yes"/>
      <point x="656" y="719"/>
      <point x="668" y="711"/>
      <point x="676" y="707" type="curve" smooth="yes"/>
      <point x="835" y="643" type="line"/>
      <point x="831" y="605" type="line" smooth="yes"/>
      <point x="829" y="579"/>
      <point x="844" y="555"/>
      <point x="867" y="544" type="curve"/>
      <point x="859" y="537"/>
      <point x="853" y="529"/>
      <point x="849" y="518" type="curve" smooth="yes"/>
      <point x="820" y="434" type="line"/>
      <point x="718" y="344" type="line" smooth="yes"/>
      <point x="714" y="340"/>
      <point x="709" y="334"/>
      <point x="706" y="329" type="curve" smooth="yes"/>
      <point x="649" y="229" type="line" smooth="yes"/>
      <point x="636" y="205"/>
      <point x="641" y="172"/>
      <point x="661" y="154" type="curve" smooth="yes"/>
      <point x="757" y="69" type="line"/>
      <point x="752" y="66" type="line"/>
    </contour>
  </outline>
</glyph>
<glyph name="E" format="1">
  <advance width="1085"/>
  <unicode hex="0045"/>
  <outline>
    <contour>
      <point x="637" y="-60" type="line" smooth="yes"/>
      <point x="642" y="-60"/>
      <point x="646" y="-59"/>
      <point x="651" y="-58" type="curve"/>
      <point x="659" y="-60"/>
      <point x="667" y="-61"/>
      <point x="676" y="-59" type="curve" smooth="yes"/>
      <point x="852" y="-24" type="line" smooth="yes"/>
      <point x="861" y="-22"/>
      <point x="872" y="-16"/>
      <point x="879" y="-11" type="curve" smooth="yes"/>
      <point x="974" y="68" type="line" smooth="yes"/>
      <point x="980" y="72"/>
      <point x="987" y="82"/>
      <point x="990" y="88" type="curve" smooth="yes"/>
      <point x="1029" y="170" type="line" smooth="yes"/>
      <point x="1043" y="199"/>
      <point x="1030" y="236"/>
      <point x="1001" y="250" type="curve" smooth="yes"/>
      <point x="972" y="264"/>
      <point x="935" y="251"/>
      <point x="921" y="222" type="curve" smooth="yes"/>
      <point x="887" y="152" type="line"/>
      <point x="814" y="91" type="line"/>
      <point x="652" y="59" type="line" smooth="yes"/>
      <point x="650" y="58" type="line"/>
      <point x="646" y="59"/>
      <point x="642" y="60"/>
      <point x="637" y="60" type="curve" smooth="yes"/>
      <point x="590" y="60" type="line"/>
      <point x="423" y="63" type="line"/>
      <point x="422" y="67"/>
      <point x="422" y="70"/>
      <point x="421" y="72" type="curve" smooth="yes"/>
      <point x="382" y="214" type="line" smooth="yes"/>
      <point x="380" y="221"/>
      <point x="375" y="231"/>
      <point x="370" y="236" type="curve" smooth="yes"/>
      <point x="310" y="310" type="line"/>
      <point x="331" y="323" type="line"/>
      <point x="493" y="337" type="line"/>
      <point x="555" y="341" type="line" smooth="yes"/>
      <point x="632" y="346"/>
      <point x="629" y="461"/>
      <point x="551" y="461" type="curve" smooth="yes"/>
      <point x="366" y="462" type="line"/>
      <point x="343" y="471" type="line"/>
      <point x="260" y="519" type="line"/>
      <point x="189" y="599" type="line"/>
      <point x="223" y="638" type="line"/>
      <point x="306" y="706" type="line"/>
      <point x="575" y="740" type="line"/>
      <point x="652" y="740" type="line"/>
      <point x="778" y="736" type="line"/>
      <point x="790" y="597" type="line" smooth="yes"/>
      <point x="793" y="564"/>
      <point x="823" y="539"/>
      <point x="855" y="542" type="curve" smooth="yes"/>
      <point x="888" y="545"/>
      <point x="913" y="575"/>
      <point x="910" y="607" type="curve" smooth="yes"/>
      <point x="898" y="740" type="line"/>
      <point x="906" y="782" type="line" smooth="yes"/>
      <point x="914" y="820"/>
      <point x="888" y="853"/>
      <point x="849" y="854" type="curve" smooth="yes"/>
      <point x="656" y="860" type="line"/>
      <point x="571" y="860" type="line" smooth="yes"/>
      <point x="569" y="860"/>
      <point x="566" y="860"/>
      <point x="563" y="860" type="curve" smooth="yes"/>
      <point x="274" y="823" type="line" smooth="yes"/>
      <point x="264" y="822"/>
      <point x="251" y="816"/>
      <point x="244" y="810" type="curve" smooth="yes"/>
      <point x="143" y="728" type="line" smooth="yes"/>
      <point x="141" y="726"/>
      <point x="138" y="723"/>
      <point x="136" y="721" type="curve" smooth="yes"/>
      <point x="64" y="637" type="line" smooth="yes"/>
      <point x="45" y="615"/>
      <point x="45" y="580"/>
      <point x="64" y="558" type="curve" smooth="yes"/>
      <point x="177" y="432" type="line" smooth="yes"/>
      <point x="180" y="428"/>
      <point x="187" y="423"/>
      <point x="191" y="420" type="curve" smooth="yes"/>
      <point x="227" y="399" type="line"/>
      <point x="188" y="376" type="line" smooth="yes"/>
      <point x="157" y="356"/>
      <point x="150" y="316"/>
      <point x="174" y="287" type="curve" smooth="yes"/>
      <point x="270" y="170" type="line"/>
      <point x="292" y="88" type="line"/>
      <point x="238" y="60" type="line" smooth="yes"/>
      <point x="178" y="29"/>
      <point x="197" y="-52"/>
      <point x="264" y="-54" type="curve" smooth="yes"/>
      <point x="588" y="-60" type="line" smooth="yes"/>
      <point x="588" y="-60"/>
      <point x="589" y="-60"/>
      <point x="589" y="-60" type="curve" smooth="yes"/>
    </contour>
  </outline>
</glyph>
<glyph name="F" format="1">
  <advance width="1006"/>
  <unicode hex="0046"/>
  <outline>
    <contour>
      <point x="310" y="-53" type="curve" smooth="yes"/>
      <point x="338" y="-38"/>
      <point x="350" y="-1"/>
      <point x="335" y="28" type="curve" smooth="yes"/>
      <point x="284" y="127" type="line" smooth="yes"/>
      <point x="281" y="131"/>
      <point x="276" y="138"/>
      <point x="273" y="142" type="curve" smooth="yes"/>
      <point x="232" y="182" type="line"/>
      <point x="407" y="270" type="line" smooth="yes"/>
      <point x="434" y="284"/>
      <point x="446" y="309"/>
      <point x="442" y="333" type="curve"/>
      <point x="538" y="337" type="line"/>
      <point x="615" y="341" type="line" smooth="yes"/>
      <point x="693" y="345"/>
      <point x="691" y="461"/>
      <point x="613" y="461" type="curve" smooth="yes"/>
      <point x="336" y="463" type="line"/>
      <point x="332" y="466" type="line" smooth="yes"/>
      <point x="328" y="469"/>
      <point x="319" y="473"/>
      <point x="314" y="475" type="curve" smooth="yes"/>
      <point x="263" y="490" type="line"/>
      <point x="361" y="546" type="line" smooth="yes"/>
      <point x="407" y="573"/>
      <point x="404" y="631"/>
      <point x="356" y="653" type="curve" smooth="yes"/>
      <point x="298" y="679" type="line"/>
      <point x="367" y="708" type="line" smooth="yes"/>
      <point x="381" y="714"/>
      <point x="393" y="726"/>
      <point x="399" y="740" type="curve"/>
      <point x="650" y="740" type="line"/>
      <point x="654" y="738"/>
      <point x="659" y="736"/>
      <point x="664" y="735" type="curve" smooth="yes"/>
      <point x="757" y="714" type="line"/>
      <point x="673" y="649" type="line" smooth="yes"/>
      <point x="648" y="630"/>
      <point x="643" y="591"/>
      <point x="663" y="565" type="curve" smooth="yes"/>
      <point x="682" y="540"/>
      <point x="721" y="535"/>
      <point x="747" y="555" type="curve" smooth="yes"/>
      <point x="930" y="696" type="line" smooth="yes"/>
      <point x="974" y="730"/>
      <point x="960" y="789"/>
      <point x="907" y="802" type="curve" smooth="yes"/>
      <point x="792" y="829" type="line"/>
      <point x="783" y="847"/>
      <point x="765" y="860"/>
      <point x="738" y="860" type="curve" smooth="yes"/>
      <point x="338" y="860" type="line" smooth="yes"/>
      <point x="303" y="860"/>
      <point x="277" y="833"/>
      <point x="278" y="801" type="curve"/>
      <point x="124" y="737" type="line" smooth="yes"/>
      <point x="71" y="715"/>
      <point x="70" y="651"/>
      <point x="122" y="627" type="curve" smooth="yes"/>
      <point x="200" y="592" type="line"/>
      <point x="83" y="525" type="line" smooth="yes"/>
      <point x="33" y="496"/>
      <point x="41" y="432"/>
      <point x="96" y="415" type="curve" smooth="yes"/>
      <point x="141" y="402" type="line"/>
      <point x="130" y="373"/>
      <point x="143" y="336"/>
      <point x="182" y="324" type="curve" smooth="yes"/>
      <point x="222" y="311" type="line"/>
      <point x="103" y="252" type="line" smooth="yes"/>
      <point x="64" y="232"/>
      <point x="57" y="186"/>
      <point x="88" y="155" type="curve" smooth="yes"/>
      <point x="182" y="63" type="line"/>
      <point x="229" y="-28" type="line" smooth="yes"/>
      <point x="244" y="-56"/>
      <point x="281" y="-68"/>
    </contour>
  </outline>
</glyph>
<glyph name="G" format="1">
  <advance width="842"/>
  <unicode hex="0047"/>
  <outline>
    <contour>
      <point x="398" y="-56" type="curve" smooth="yes"/>
      <point x="579" y="-56" type="line" smooth="yes"/>
      <point x="588" y="-56"/>
      <point x="602" y="-52"/>
      <point x="609" y="-48" type="curve" smooth="yes"/>
      <point x="671" y="-12" type="line" smooth="yes"/>
      <point x="678" y="-8"/>
      <point x="687" y="1"/>
      <point x="691" y="7" type="curve" smooth="yes"/>
      <point x="743" y="88" type="line" smooth="yes"/>
      <point x="750" y="98"/>
      <point x="754" y="116"/>
      <point x="752" y="128" type="curve" smooth="yes"/>
      <point x="743" y="205" type="line"/>
      <point x="751" y="299" type="line" smooth="yes"/>
      <point x="751" y="301"/>
      <point x="751" y="303"/>
      <point x="751" y="304" type="curve" smooth="yes"/>
      <point x="751" y="404" type="line" smooth="yes"/>
      <point x="751" y="437"/>
      <point x="724" y="464"/>
      <point x="691" y="464" type="curve" smooth="yes"/>
      <point x="684" y="464" type="line"/>
      <point x="507" y="481" type="line"/>
      <point x="510" y="484"/>
      <point x="512" y="488"/>
      <point x="514" y="491" type="curve" smooth="yes"/>
      <point x="562" y="574" type="line" smooth="yes"/>
      <point x="578" y="602"/>
      <point x="568" y="640"/>
      <point x="540" y="656" type="curve" smooth="yes"/>
      <point x="512" y="672"/>
      <point x="474" y="662"/>
      <point x="458" y="634" type="curve" smooth="yes"/>
      <point x="419" y="566" type="line"/>
      <point x="301" y="504" type="line"/>
      <point x="246" y="546" type="line"/>
      <point x="220" y="583" type="line"/>
      <point x="314" y="634" type="line" smooth="yes"/>
      <point x="319" y="637"/>
      <point x="326" y="642"/>
      <point x="330" y="647" type="curve" smooth="yes"/>
      <point x="397" y="721" type="line"/>
      <point x="435" y="744" type="line"/>
      <point x="585" y="744" type="line"/>
      <point x="617" y="722" type="line"/>
      <point x="662" y="675" type="line"/>
      <point x="642" y="628" type="line" smooth="yes"/>
      <point x="629" y="598"/>
      <point x="644" y="561"/>
      <point x="673" y="549" type="curve" smooth="yes"/>
      <point x="703" y="536"/>
      <point x="740" y="551"/>
      <point x="752" y="580" type="curve" smooth="yes"/>
      <point x="788" y="664" type="line" smooth="yes"/>
      <point x="796" y="684"/>
      <point x="791" y="713"/>
      <point x="776" y="729" type="curve" smooth="yes"/>
      <point x="700" y="809" type="line" smooth="yes"/>
      <point x="697" y="812"/>
      <point x="693" y="815"/>
      <point x="690" y="817" type="curve" smooth="yes"/>
      <point x="638" y="853" type="line" smooth="yes"/>
      <point x="630" y="859"/>
      <point x="614" y="864"/>
      <point x="604" y="864" type="curve" smooth="yes"/>
      <point x="418" y="864" type="line" smooth="yes"/>
      <point x="409" y="864"/>
      <point x="395" y="860"/>
      <point x="387" y="855" type="curve" smooth="yes"/>
      <point x="327" y="819" type="line" smooth="yes"/>
      <point x="323" y="816"/>
      <point x="317" y="812"/>
      <point x="314" y="808" type="curve" smooth="yes"/>
      <point x="248" y="735" type="line"/>
      <point x="103" y="657" type="line" smooth="yes"/>
      <point x="71" y="639"/>
      <point x="62" y="600"/>
      <point x="83" y="570" type="curve" smooth="yes"/>
      <point x="153" y="470" type="line" smooth="yes"/>
      <point x="156" y="465"/>
      <point x="162" y="459"/>
      <point x="166" y="456" type="curve" smooth="yes"/>
      <point x="216" y="417" type="line"/>
      <point x="85" y="359" type="line" smooth="yes"/>
      <point x="52" y="344"/>
      <point x="40" y="306"/>
      <point x="58" y="274" type="curve" smooth="yes"/>
      <point x="115" y="174" type="line" smooth="yes"/>
      <point x="118" y="169"/>
      <point x="123" y="162"/>
      <point x="128" y="159" type="curve" smooth="yes"/>
      <point x="207" y="90" type="line"/>
      <point x="214" y="32" type="line" smooth="yes"/>
      <point x="217" y="11"/>
      <point x="236" y="-11"/>
      <point x="257" y="-18" type="curve" smooth="yes"/>
      <point x="381" y="-54" type="line" smooth="yes"/>
      <point x="386" y="-55"/>
      <point x="393" y="-56"/>
    </contour>
    <contour>
      <point x="323" y="128" type="line" smooth="yes"/>
      <point x="321" y="141"/>
      <point x="312" y="158"/>
      <point x="303" y="166" type="curve" smooth="yes"/>
      <point x="214" y="243" type="line"/>
      <point x="195" y="276" type="line"/>
      <point x="358" y="349" type="line" smooth="yes"/>
      <point x="370" y="355"/>
      <point x="379" y="363"/>
      <point x="386" y="372" type="curve"/>
      <point x="631" y="349" type="line"/>
      <point x="631" y="306" type="line"/>
      <point x="623" y="209" type="line" smooth="yes"/>
      <point x="623" y="206"/>
      <point x="623" y="200"/>
      <point x="623" y="197" type="curve" smooth="yes"/>
      <point x="631" y="135" type="line"/>
      <point x="598" y="85" type="line"/>
      <point x="563" y="64" type="line"/>
      <point x="407" y="64" type="line"/>
      <point x="328" y="87" type="line"/>
    </contour>
  </outline>
</glyph>
<glyph name="H" format="1">
  <advance width="1034"/>
  <unicode hex="0048"/>
  <outline>
    <contour>
      <point x="411" y="37" type="curve" smooth="yes"/>
      <point x="334" y="119" type="line"/>
      <point x="384" y="141" type="line" smooth="yes"/>
      <point x="415" y="154"/>
      <point x="429" y="189"/>
      <point x="416" y="220" type="curve" smooth="yes"/>
      <point x="373" y="320" type="line" smooth="yes"/>
      <point x="371" y="325"/>
      <point x="367" y="331"/>
      <point x="362" y="336" type="curve"/>
      <point x="639" y="336" type="line"/>
      <point x="632" y="314" type="line" smooth="yes"/>
      <point x="626" y="295"/>
      <point x="632" y="268"/>
      <point x="647" y="254" type="curve" smooth="yes"/>
      <point x="747" y="154" type="line" smooth="yes"/>
      <point x="748" y="152"/>
      <point x="751" y="149"/>
      <point x="753" y="148" type="curve" smooth="yes"/>
      <point x="832" y="89" type="line"/>
      <point x="782" y="38" type="line" smooth="yes"/>
      <point x="759" y="15"/>
      <point x="760" y="-25"/>
      <point x="783" y="-47" type="curve" smooth="yes"/>
      <point x="806" y="-70"/>
      <point x="846" y="-69"/>
      <point x="868" y="-46" type="curve" smooth="yes"/>
      <point x="965" y="54" type="line" smooth="yes"/>
      <point x="991" y="81"/>
      <point x="988" y="122"/>
      <point x="958" y="144" type="curve" smooth="yes"/>
      <point x="828" y="241" type="line"/>
      <point x="757" y="313" type="line"/>
      <point x="765" y="336" type="line"/>
      <point x="773" y="336"/>
      <point x="788" y="341"/>
      <point x="797" y="347" type="curve" smooth="yes"/>
      <point x="848" y="383" type="line" smooth="yes"/>
      <point x="865" y="396"/>
      <point x="876" y="423"/>
      <point x="872" y="445" type="curve" smooth="yes"/>
      <point x="869" y="457" type="line"/>
      <point x="892" y="484"/>
      <point x="888" y="523"/>
      <point x="858" y="544" type="curve" smooth="yes"/>
      <point x="807" y="582" type="line"/>
      <point x="947" y="641" type="line" smooth="yes"/>
      <point x="980" y="654"/>
      <point x="993" y="691"/>
      <point x="978" y="723" type="curve" smooth="yes"/>
      <point x="928" y="823" type="line" smooth="yes"/>
      <point x="904" y="871"/>
      <point x="845" y="871"/>
      <point x="820" y="823" type="curve" smooth="yes"/>
      <point x="777" y="736" type="line"/>
      <point x="647" y="645" type="line" smooth="yes"/>
      <point x="611" y="620"/>
      <point x="610" y="573"/>
      <point x="646" y="548" type="curve" smooth="yes"/>
      <point x="728" y="487" type="line"/>
      <point x="696" y="456" type="line"/>
      <point x="314" y="456" type="line" smooth="yes"/>
      <point x="310" y="456"/>
      <point x="305" y="455"/>
      <point x="301" y="455" type="curve" smooth="yes"/>
      <point x="203" y="433" type="line"/>
      <point x="197" y="437" type="line"/>
      <point x="187" y="461" type="line"/>
      <point x="397" y="540" type="line" smooth="yes"/>
      <point x="450" y="560"/>
      <point x="454" y="624"/>
      <point x="403" y="650" type="curve" smooth="yes"/>
      <point x="284" y="709" type="line"/>
      <point x="331" y="751" type="line" smooth="yes"/>
      <point x="356" y="772"/>
      <point x="359" y="811"/>
      <point x="337" y="835" type="curve" smooth="yes"/>
      <point x="316" y="860"/>
      <point x="277" y="863"/>
      <point x="253" y="841" type="curve" smooth="yes"/>
      <point x="138" y="741" type="line" smooth="yes"/>
      <point x="103" y="711"/>
      <point x="109" y="663"/>
      <point x="150" y="642" type="curve" smooth="yes"/>
      <point x="227" y="604" type="line"/>
      <point x="89" y="552" type="line" smooth="yes"/>
      <point x="58" y="540"/>
      <point x="42" y="506"/>
      <point x="54" y="475" type="curve" smooth="yes"/>
      <point x="90" y="380" type="line"/>
      <point x="85" y="368"/>
      <point x="85" y="354"/>
      <point x="90" y="340" type="curve" smooth="yes"/>
      <point x="112" y="276" type="line"/>
      <point x="97" y="209" type="line" smooth="yes"/>
      <point x="92" y="192"/>
      <point x="99" y="169"/>
      <point x="111" y="155" type="curve"/>
      <point x="103" y="151" type="line" smooth="yes"/>
      <point x="49" y="129"/>
      <point x="49" y="63"/>
      <point x="103" y="41" type="curve" smooth="yes"/>
      <point x="344" y="-59" type="line" smooth="yes"/>
      <point x="407" y="-86"/>
      <point x="458" y="-13"/>
    </contour>
    <contour>
      <point x="233" y="266" type="line" smooth="yes"/>
      <point x="233" y="268"/>
      <point x="234" y="272"/>
      <point x="234" y="276" type="curve"/>
      <point x="271" y="254" type="line"/>
      <point x="282" y="228" type="line"/>
      <point x="235" y="207" type="line"/>
      <point x="222" y="218" type="line"/>
    </contour>
  </outline>
</glyph>
<glyph name="I" format="1">
  <advance width="720"/>
  <unicode hex="0049"/>
  <outline>
    <contour>
      <point x="180" y="-61" type="curve" smooth="yes"/>
      <point x="608" y="-61" type="line" smooth="yes"/>
      <point x="659" y="-61"/>
      <point x="686" y="-13"/>
      <point x="659" y="31" type="curve" smooth="yes"/>
      <point x="649" y="46" type="line" smooth="yes"/>
      <point x="641" y="59"/>
      <point x="623" y="71"/>
      <point x="607" y="73" type="curve" smooth="yes"/>
      <point x="345" y="113" type="line"/>
      <point x="332" y="188" type="line"/>
      <point x="377" y="270" type="line" smooth="yes"/>
      <point x="380" y="276"/>
      <point x="383" y="286"/>
      <point x="384" y="293" type="curve" smooth="yes"/>
      <point x="391" y="369" type="line"/>
      <point x="489" y="454" type="line" smooth="yes"/>
      <point x="520" y="481"/>
      <point x="518" y="524"/>
      <point x="485" y="548" type="curve" smooth="yes"/>
      <point x="400" y="610" type="line"/>
      <point x="480" y="699" type="line" smooth="yes"/>
      <point x="490" y="711"/>
      <point x="496" y="725"/>
      <point x="497" y="739" type="curve"/>
      <point x="646" y="739" type="line"/>
      <point x="646" y="859" type="line"/>
      <point x="287" y="859" type="line"/>
      <point x="205" y="859" type="line"/>
      <point x="107" y="852" type="line" smooth="yes"/>
      <point x="31" y="846"/>
      <point x="31" y="737"/>
      <point x="107" y="732" type="curve" smooth="yes"/>
      <point x="202" y="726" type="line"/>
      <point x="321" y="701" type="line"/>
      <point x="266" y="640" type="line" smooth="yes"/>
      <point x="242" y="613"/>
      <point x="246" y="573"/>
      <point x="276" y="551" type="curve" smooth="yes"/>
      <point x="353" y="495" type="line"/>
      <point x="294" y="445" type="line" smooth="yes"/>
      <point x="284" y="436"/>
      <point x="274" y="418"/>
      <point x="273" y="404" type="curve" smooth="yes"/>
      <point x="265" y="316" type="line"/>
      <point x="216" y="227" type="line" smooth="yes"/>
      <point x="211" y="217"/>
      <point x="208" y="199"/>
      <point x="210" y="188" type="curve" smooth="yes"/>
      <point x="232" y="59" type="line"/>
      <point x="180" y="59" type="line" smooth="yes"/>
      <point x="148" y="59"/>
      <point x="120" y="31"/>
      <point x="120" y="-1" type="curve" smooth="yes"/>
      <point x="120" y="-33"/>
      <point x="148" y="-61"/>
    </contour>
  </outline>
</glyph>
<glyph name="J" format="1">
  <advance width="777"/>
  <unicode hex="004A"/>
  <outline>
    <contour>
      <point x="111" y="-61" type="curve" smooth="yes"/>
      <point x="158" y="-61" type="line" smooth="yes"/>
      <point x="170" y="-61"/>
      <point x="181" y="-57"/>
      <point x="190" y="-51" type="curve"/>
      <point x="396" y="-25" type="line" smooth="yes"/>
      <point x="426" y="-21"/>
      <point x="449" y="6"/>
      <point x="449" y="36" type="curve" smooth="yes"/>
      <point x="447" y="116" type="line" smooth="yes"/>
      <point x="447" y="128"/>
      <point x="440" y="145"/>
      <point x="433" y="154" type="curve" smooth="yes"/>
      <point x="386" y="208" type="line"/>
      <point x="408" y="254" type="line"/>
      <point x="598" y="345" type="line" smooth="yes"/>
      <point x="637" y="363"/>
      <point x="645" y="408"/>
      <point x="616" y="440" type="curve" smooth="yes"/>
      <point x="532" y="530" type="line"/>
      <point x="509" y="616" type="line" smooth="yes"/>
      <point x="506" y="625"/>
      <point x="499" y="638"/>
      <point x="491" y="644" type="curve" smooth="yes"/>
      <point x="387" y="739" type="line"/>
      <point x="667" y="739" type="line" smooth="yes"/>
      <point x="699" y="739"/>
      <point x="727" y="767"/>
      <point x="727" y="799" type="curve" smooth="yes"/>
      <point x="727" y="831"/>
      <point x="699" y="859"/>
      <point x="667" y="859" type="curve" smooth="yes"/>
      <point x="353" y="859" type="line" smooth="yes"/>
      <point x="339" y="859"/>
      <point x="319" y="850"/>
      <point x="309" y="840" type="curve" smooth="yes"/>
      <point x="254" y="780" type="line" smooth="yes"/>
      <point x="231" y="756"/>
      <point x="233" y="717"/>
      <point x="257" y="695" type="curve" smooth="yes"/>
      <point x="398" y="567" type="line"/>
      <point x="420" y="484" type="line" smooth="yes"/>
      <point x="422" y="476"/>
      <point x="429" y="465"/>
      <point x="434" y="459" type="curve" smooth="yes"/>
      <point x="472" y="418" type="line"/>
      <point x="336" y="353" type="line" smooth="yes"/>
      <point x="325" y="347"/>
      <point x="312" y="334"/>
      <point x="307" y="323" type="curve" smooth="yes"/>
      <point x="261" y="223" type="line" smooth="yes"/>
      <point x="253" y="204"/>
      <point x="257" y="175"/>
      <point x="270" y="159" type="curve" smooth="yes"/>
      <point x="327" y="92" type="line"/>
      <point x="328" y="87" type="line"/>
      <point x="103" y="59" type="line" smooth="yes"/>
      <point x="27" y="49"/>
      <point x="35" y="-61"/>
    </contour>
  </outline>
</glyph>
<glyph name="K" format="1">
  <advance width="1099"/>
  <unicode hex="004B"/>
  <outline>
    <contour>
      <point x="739" y="-48" type="curve" smooth="yes"/>
      <point x="910" y="53" type="line" smooth="yes"/>
      <point x="945" y="74"/>
      <point x="951" y="118"/>
      <point x="922" y="147" type="curve" smooth="yes"/>
      <point x="835" y="235" type="line"/>
      <point x="816" y="345" type="line"/>
      <point x="826" y="382" type="line" smooth="yes"/>
      <point x="830" y="397"/>
      <point x="829" y="411"/>
      <point x="824" y="423" type="curve"/>
      <point x="940" y="464" type="line" smooth="yes"/>
      <point x="948" y="467"/>
      <point x="960" y="476"/>
      <point x="966" y="483" type="curve" smooth="yes"/>
      <point x="1034" y="566" type="line" smooth="yes"/>
      <point x="1061" y="599"/>
      <point x="1049" y="644"/>
      <point x="1009" y="660" type="curve" smooth="yes"/>
      <point x="854" y="722" type="line"/>
      <point x="897" y="758" type="line" smooth="yes"/>
      <point x="921" y="779"/>
      <point x="925" y="818"/>
      <point x="904" y="843" type="curve" smooth="yes"/>
      <point x="883" y="867"/>
      <point x="844" y="871"/>
      <point x="819" y="850" type="curve" smooth="yes"/>
      <point x="701" y="750" type="line" smooth="yes"/>
      <point x="663" y="718"/>
      <point x="672" y="667"/>
      <point x="717" y="648" type="curve" smooth="yes"/>
      <point x="889" y="579" type="line"/>
      <point x="883" y="571" type="line"/>
      <point x="674" y="497" type="line" smooth="yes"/>
      <point x="672" y="496"/>
      <point x="669" y="495"/>
      <point x="667" y="494" type="curve" smooth="yes"/>
      <point x="609" y="464" type="line"/>
      <point x="564" y="464" type="line" smooth="yes"/>
      <point x="562" y="464"/>
      <point x="559" y="464"/>
      <point x="558" y="464" type="curve" smooth="yes"/>
      <point x="381" y="445" type="line"/>
      <point x="376" y="451"/>
      <point x="369" y="455"/>
      <point x="361" y="459" type="curve" smooth="yes"/>
      <point x="265" y="502" type="line"/>
      <point x="377" y="549" type="line" smooth="yes"/>
      <point x="393" y="555"/>
      <point x="408" y="574"/>
      <point x="412" y="590" type="curve" smooth="yes"/>
      <point x="436" y="690" type="line" smooth="yes"/>
      <point x="442" y="712"/>
      <point x="431" y="740"/>
      <point x="413" y="753" type="curve" smooth="yes"/>
      <point x="275" y="853" type="line" smooth="yes"/>
      <point x="249" y="872"/>
      <point x="210" y="865"/>
      <point x="191" y="839" type="curve" smooth="yes"/>
      <point x="172" y="813"/>
      <point x="179" y="774"/>
      <point x="205" y="755" type="curve" smooth="yes"/>
      <point x="310" y="679" type="line"/>
      <point x="303" y="648" type="line"/>
      <point x="90" y="559" type="line" smooth="yes"/>
      <point x="37" y="537"/>
      <point x="36" y="473"/>
      <point x="89" y="449" type="curve" smooth="yes"/>
      <point x="175" y="410" type="line"/>
      <point x="169" y="404"/>
      <point x="163" y="397"/>
      <point x="160" y="389" type="curve" smooth="yes"/>
      <point x="133" y="317" type="line"/>
      <point x="73" y="241" type="line" smooth="yes"/>
      <point x="62" y="228"/>
      <point x="57" y="203"/>
      <point x="63" y="186" type="curve" smooth="yes"/>
      <point x="94" y="86" type="line" smooth="yes"/>
      <point x="102" y="63"/>
      <point x="127" y="44"/>
      <point x="151" y="44" type="curve" smooth="yes"/>
      <point x="249" y="44" type="line" smooth="yes"/>
      <point x="297" y="44"/>
      <point x="324" y="87"/>
      <point x="303" y="130" type="curve" smooth="yes"/>
      <point x="270" y="198" type="line"/>
      <point x="320" y="269" type="line"/>
      <point x="355" y="322" type="line"/>
      <point x="567" y="344" type="line"/>
      <point x="605" y="344" type="line"/>
      <point x="695" y="341" type="line"/>
      <point x="696" y="337" type="line" smooth="yes"/>
      <point x="720" y="196" type="line" smooth="yes"/>
      <point x="722" y="186"/>
      <point x="729" y="171"/>
      <point x="736" y="164" type="curve" smooth="yes"/>
      <point x="782" y="118" type="line"/>
      <point x="677" y="56" type="line" smooth="yes"/>
      <point x="650" y="39"/>
      <point x="640" y="1"/>
      <point x="656" y="-27" type="curve" smooth="yes"/>
      <point x="673" y="-54"/>
      <point x="711" y="-64"/>
    </contour>
  </outline>
</glyph>
<glyph name="L" format="1">
  <advance width="856"/>
  <unicode hex="004C"/>
  <outline>
    <contour>
      <point x="746" y="-60" type="line" smooth="yes"/>
      <point x="778" y="-60"/>
      <point x="806" y="-32"/>
      <point x="806" y="0" type="curve" smooth="yes"/>
      <point x="806" y="32"/>
      <point x="778" y="60"/>
      <point x="746" y="60" type="curve" smooth="yes"/>
      <point x="521" y="60" type="line"/>
      <point x="515" y="63"/>
      <point x="508" y="65"/>
      <point x="501" y="66" type="curve" smooth="yes"/>
      <point x="198" y="112" type="line"/>
      <point x="176" y="188" type="line"/>
      <point x="234" y="264" type="line" smooth="yes"/>
      <point x="236" y="267"/>
      <point x="240" y="274"/>
      <point x="242" y="278" type="curve" smooth="yes"/>
      <point x="282" y="378" type="line" smooth="yes"/>
      <point x="290" y="398"/>
      <point x="284" y="427"/>
      <point x="268" y="442" type="curve" smooth="yes"/>
      <point x="214" y="497" type="line"/>
      <point x="281" y="555" type="line" smooth="yes"/>
      <point x="286" y="559"/>
      <point x="292" y="567"/>
      <point x="295" y="572" type="curve" smooth="yes"/>
      <point x="346" y="669" type="line"/>
      <point x="412" y="766" type="line" smooth="yes"/>
      <point x="430" y="793"/>
      <point x="423" y="831"/>
      <point x="396" y="850" type="curve" smooth="yes"/>
      <point x="369" y="868"/>
      <point x="331" y="861"/>
      <point x="312" y="834" type="curve" smooth="yes"/>
      <point x="244" y="734" type="line" smooth="yes"/>
      <point x="243" y="732"/>
      <point x="242" y="729"/>
      <point x="241" y="728" type="curve" smooth="yes"/>
      <point x="194" y="638" type="line"/>
      <point x="87" y="545" type="line" smooth="yes"/>
      <point x="60" y="522"/>
      <point x="58" y="483"/>
      <point x="84" y="458" type="curve" smooth="yes"/>
      <point x="156" y="386" type="line"/>
      <point x="133" y="330" type="line"/>
      <point x="62" y="236" type="line" smooth="yes"/>
      <point x="52" y="223"/>
      <point x="48" y="199"/>
      <point x="52" y="183" type="curve" smooth="yes"/>
      <point x="93" y="42" type="line" smooth="yes"/>
      <point x="99" y="21"/>
      <point x="121" y="2"/>
      <point x="142" y="-1" type="curve" smooth="yes"/>
      <point x="253" y="-18" type="line"/>
      <point x="260" y="-41"/>
      <point x="279" y="-60"/>
      <point x="311" y="-60" type="curve" smooth="yes"/>
    </contour>
  </outline>
</glyph>
<glyph name="M" format="1">
  <advance width="1008"/>
  <unicode hex="004D"/>
  <outline>
    <contour>
      <point x="316" y="499" type="line"/>
      <point x="416" y="544" type="line" smooth="yes"/>
      <point x="459" y="564"/>
      <point x="466" y="613"/>
      <point x="431" y="643" type="curve"/>
      <point x="519" y="590" type="line"/>
      <point x="468" y="544" type="line" smooth="yes"/>
      <point x="462" y="538"/>
      <point x="454" y="526"/>
      <point x="451" y="518" type="curve" smooth="yes"/>
      <point x="428" y="449" type="line"/>
    </contour>
    <contour>
      <point x="135" y="-55" type="curve" smooth="yes"/>
      <point x="351" y="45" type="line" smooth="yes"/>
      <point x="390" y="63"/>
      <point x="399" y="108"/>
      <point x="370" y="140" type="curve" smooth="yes"/>
      <point x="313" y="201" type="line"/>
      <point x="363" y="262" type="line"/>
      <point x="435" y="352" type="line"/>
      <point x="445" y="344"/>
      <point x="459" y="339"/>
      <point x="475" y="339" type="curve" smooth="yes"/>
      <point x="525" y="339" type="line" smooth="yes"/>
      <point x="542" y="339"/>
      <point x="564" y="350"/>
      <point x="573" y="363" type="curve" smooth="yes"/>
      <point x="648" y="463" type="line" smooth="yes"/>
      <point x="650" y="466"/>
      <point x="652" y="470"/>
      <point x="654" y="473" type="curve" smooth="yes"/>
      <point x="701" y="573" type="line" smooth="yes"/>
      <point x="708" y="588"/>
      <point x="708" y="611"/>
      <point x="701" y="625" type="curve" smooth="yes"/>
      <point x="646" y="737" type="line"/>
      <point x="698" y="739" type="line"/>
      <point x="695" y="703" type="line" smooth="yes"/>
      <point x="695" y="698"/>
      <point x="696" y="689"/>
      <point x="697" y="684" type="curve" smooth="yes"/>
      <point x="720" y="593" type="line"/>
      <point x="714" y="503" type="line" smooth="yes"/>
      <point x="714" y="496"/>
      <point x="715" y="484"/>
      <point x="718" y="477" type="curve" smooth="yes"/>
      <point x="757" y="377" type="line" smooth="yes"/>
      <point x="758" y="376"/>
      <point x="759" y="374"/>
      <point x="759" y="372" type="curve" smooth="yes"/>
      <point x="808" y="275" type="line"/>
      <point x="829" y="217" type="line"/>
      <point x="746" y="144" type="line" smooth="yes"/>
      <point x="744" y="142"/>
      <point x="741" y="139"/>
      <point x="739" y="136" type="curve" smooth="yes"/>
      <point x="659" y="36" type="line" smooth="yes"/>
      <point x="639" y="11"/>
      <point x="643" y="-28"/>
      <point x="669" y="-48" type="curve" smooth="yes"/>
      <point x="694" y="-68"/>
      <point x="733" y="-64"/>
      <point x="753" y="-38" type="curve" smooth="yes"/>
      <point x="830" y="57" type="line"/>
      <point x="939" y="154" type="line" smooth="yes"/>
      <point x="956" y="169"/>
      <point x="963" y="198"/>
      <point x="955" y="219" type="curve" smooth="yes"/>
      <point x="919" y="319" type="line" smooth="yes"/>
      <point x="919" y="321"/>
      <point x="918" y="324"/>
      <point x="917" y="326" type="curve" smooth="yes"/>
      <point x="868" y="423" type="line"/>
      <point x="835" y="508" type="line"/>
      <point x="841" y="595" type="line" smooth="yes"/>
      <point x="841" y="600"/>
      <point x="840" y="609"/>
      <point x="839" y="614" type="curve" smooth="yes"/>
      <point x="816" y="705" type="line"/>
      <point x="822" y="795" type="line" smooth="yes"/>
      <point x="824" y="830"/>
      <point x="797" y="859"/>
      <point x="762" y="859" type="curve" smooth="yes"/>
      <point x="709" y="859" type="line"/>
      <point x="530" y="852" type="line" smooth="yes"/>
      <point x="475" y="850"/>
      <point x="451" y="794"/>
      <point x="487" y="753" type="curve" smooth="yes"/>
      <point x="493" y="747" type="line"/>
      <point x="424" y="788" type="line"/>
      <point x="370" y="842" type="line" smooth="yes"/>
      <point x="360" y="851"/>
      <point x="342" y="859"/>
      <point x="328" y="859" type="curve" smooth="yes"/>
      <point x="226" y="859" type="line" smooth="yes"/>
      <point x="180" y="859"/>
      <point x="153" y="818"/>
      <point x="171" y="775" type="curve" smooth="yes"/>
      <point x="214" y="675" type="line" smooth="yes"/>
      <point x="217" y="668"/>
      <point x="225" y="658"/>
      <point x="231" y="653" type="curve" smooth="yes"/>
      <point x="278" y="614" type="line"/>
      <point x="143" y="554" type="line" smooth="yes"/>
      <point x="92" y="531"/>
      <point x="92" y="467"/>
      <point x="144" y="444" type="curve" smooth="yes"/>
      <point x="300" y="375" type="line"/>
      <point x="269" y="336" type="line"/>
      <point x="188" y="237" type="line" smooth="yes"/>
      <point x="169" y="215"/>
      <point x="170" y="180"/>
      <point x="190" y="158" type="curve" smooth="yes"/>
      <point x="226" y="119" type="line"/>
      <point x="85" y="53" type="line" smooth="yes"/>
      <point x="55" y="40"/>
      <point x="42" y="3"/>
      <point x="56" y="-26" type="curve" smooth="yes"/>
      <point x="69" y="-56"/>
      <point x="106" y="-69"/>
    </contour>
  </outline>
</glyph>
<glyph name="N" format="1">
  <advance width="1097"/>
  <unicode hex="004E"/>
  <outline>
    <contour>
      <point x="747" y="-61" type="line"/>
      <point x="793" y="-61" type="line" smooth="yes"/>
      <point x="827" y="-61"/>
      <point x="854" y="-33"/>
      <point x="853" y="1" type="curve" smooth="yes"/>
      <point x="851" y="70" type="line"/>
      <point x="957" y="151" type="line" smooth="yes"/>
      <point x="994" y="180"/>
      <point x="990" y="230"/>
      <point x="948" y="252" type="curve" smooth="yes"/>
      <point x="852" y="303" type="line"/>
      <point x="925" y="348" type="line" smooth="yes"/>
      <point x="967" y="374"/>
      <point x="966" y="427"/>
      <point x="923" y="451" type="curve" smooth="yes"/>
      <point x="783" y="530" type="line"/>
      <point x="789" y="558" type="line"/>
      <point x="967" y="645" type="line" smooth="yes"/>
      <point x="978" y="650"/>
      <point x="990" y="663"/>
      <point x="995" y="673" type="curve" smooth="yes"/>
      <point x="1042" y="773" type="line" smooth="yes"/>
      <point x="1056" y="803"/>
      <point x="1043" y="840"/>
      <point x="1014" y="853" type="curve" smooth="yes"/>
      <point x="984" y="867"/>
      <point x="947" y="854"/>
      <point x="934" y="825" type="curve" smooth="yes"/>
      <point x="896" y="744" type="line"/>
      <point x="710" y="653" type="line" smooth="yes"/>
      <point x="695" y="646"/>
      <point x="680" y="627"/>
      <point x="677" y="611" type="curve" smooth="yes"/>
      <point x="670" y="575" type="line"/>
      <point x="629" y="625" type="line"/>
      <point x="608" y="750" type="line" smooth="yes"/>
      <point x="604" y="773"/>
      <point x="583" y="794"/>
      <point x="561" y="799" type="curve" smooth="yes"/>
      <point x="467" y="820" type="line"/>
      <point x="460" y="842"/>
      <point x="440" y="859"/>
      <point x="410" y="859" type="curve" smooth="yes"/>
      <point x="148" y="859" type="line" smooth="yes"/>
      <point x="89" y="859"/>
      <point x="64" y="796"/>
      <point x="107" y="755" type="curve" smooth="yes"/>
      <point x="210" y="658" type="line"/>
      <point x="253" y="604" type="line"/>
      <point x="188" y="542" type="line" smooth="yes"/>
      <point x="176" y="530"/>
      <point x="168" y="507"/>
      <point x="171" y="490" type="curve" smooth="yes"/>
      <point x="183" y="415" type="line"/>
      <point x="122" y="335" type="line" smooth="yes"/>
      <point x="109" y="318"/>
      <point x="107" y="289"/>
      <point x="118" y="270" type="curve" smooth="yes"/>
      <point x="174" y="170" type="line" smooth="yes"/>
      <point x="175" y="168"/>
      <point x="177" y="165"/>
      <point x="178" y="163" type="curve" smooth="yes"/>
      <point x="211" y="119" type="line"/>
      <point x="82" y="52" type="line" smooth="yes"/>
      <point x="53" y="37"/>
      <point x="42" y="0"/>
      <point x="57" y="-29" type="curve" smooth="yes"/>
      <point x="72" y="-58"/>
      <point x="109" y="-69"/>
      <point x="138" y="-54" type="curve" smooth="yes"/>
      <point x="329" y="46" type="line" smooth="yes"/>
      <point x="363" y="64"/>
      <point x="372" y="104"/>
      <point x="349" y="135" type="curve" smooth="yes"/>
      <point x="276" y="232" type="line"/>
      <point x="242" y="294" type="line"/>
      <point x="294" y="363" type="line" smooth="yes"/>
      <point x="302" y="374"/>
      <point x="307" y="394"/>
      <point x="305" y="408" type="curve" smooth="yes"/>
      <point x="294" y="477" type="line"/>
      <point x="376" y="556" type="line" smooth="yes"/>
      <point x="397" y="577"/>
      <point x="400" y="613"/>
      <point x="381" y="636" type="curve" smooth="yes"/>
      <point x="304" y="732" type="line"/>
      <point x="496" y="691" type="line"/>
      <point x="513" y="589" type="line" smooth="yes"/>
      <point x="514" y="580"/>
      <point x="520" y="567"/>
      <point x="526" y="560" type="curve" smooth="yes"/>
      <point x="574" y="503" type="line"/>
      <point x="510" y="442" type="line" smooth="yes"/>
      <point x="502" y="434"/>
      <point x="494" y="418"/>
      <point x="493" y="407" type="curve" smooth="yes"/>
      <point x="480" y="307" type="line" smooth="yes"/>
      <point x="479" y="302"/>
      <point x="479" y="294"/>
      <point x="480" y="289" type="curve" smooth="yes"/>
      <point x="495" y="202" type="line"/>
      <point x="457" y="74" type="line" smooth="yes"/>
      <point x="454" y="62"/>
      <point x="455" y="43"/>
      <point x="461" y="32" type="curve" smooth="yes"/>
      <point x="485" y="-20" type="line" smooth="yes"/>
      <point x="494" y="-38"/>
      <point x="517" y="-53"/>
      <point x="538" y="-54" type="curve" smooth="yes"/>
    </contour>
    <contour>
      <point x="614" y="182" type="line" smooth="yes"/>
      <point x="616" y="190"/>
      <point x="616" y="202"/>
      <point x="615" y="209" type="curve" smooth="yes"/>
      <point x="600" y="300" type="line"/>
      <point x="609" y="370" type="line"/>
      <point x="688" y="446" type="line"/>
      <point x="775" y="397" type="line"/>
      <point x="700" y="350" type="line" smooth="yes"/>
      <point x="658" y="323"/>
      <point x="660" y="270"/>
      <point x="704" y="246" type="curve" smooth="yes"/>
      <point x="810" y="190" type="line"/>
      <point x="753" y="147" type="line" smooth="yes"/>
      <point x="740" y="136"/>
      <point x="730" y="114"/>
      <point x="730" y="97" type="curve" smooth="yes"/>
      <point x="731" y="60" type="line"/>
      <point x="580" y="65" type="line"/>
    </contour>
  </outline>
</glyph>
<glyph name="O" format="1">
  <advance width="1055"/>
  <unicode hex="004F"/>
  <outline>
    <contour>
      <point x="294" y="-61" type="curve" smooth="yes"/>
      <point x="599" y="-61" type="line" smooth="yes"/>
      <point x="617" y="-61"/>
      <point x="633" y="-53"/>
      <point x="644" y="-40" type="curve"/>
      <point x="726" y="-24" type="line" smooth="yes"/>
      <point x="737" y="-22"/>
      <point x="752" y="-13"/>
      <point x="759" y="-5" type="curve" smooth="yes"/>
      <point x="832" y="75" type="line" smooth="yes"/>
      <point x="856" y="102"/>
      <point x="853" y="141"/>
      <point x="825" y="163" type="curve" smooth="yes"/>
      <point x="752" y="219" type="line"/>
      <point x="765" y="254" type="line"/>
      <point x="969" y="344" type="line" smooth="yes"/>
      <point x="1001" y="358"/>
      <point x="1014" y="395"/>
      <point x="998" y="426" type="curve" smooth="yes"/>
      <point x="953" y="515" type="line"/>
      <point x="947" y="603" type="line" smooth="yes"/>
      <point x="947" y="607"/>
      <point x="945" y="614"/>
      <point x="944" y="618" type="curve" smooth="yes"/>
      <point x="919" y="695" type="line"/>
      <point x="912" y="768" type="line" smooth="yes"/>
      <point x="910" y="791"/>
      <point x="891" y="814"/>
      <point x="869" y="820" type="curve" smooth="yes"/>
      <point x="747" y="857" type="line" smooth="yes"/>
      <point x="742" y="858"/>
      <point x="735" y="859"/>
      <point x="730" y="859" type="curve" smooth="yes"/>
      <point x="447" y="859" type="line" smooth="yes"/>
      <point x="444" y="859"/>
      <point x="440" y="859"/>
      <point x="437" y="858" type="curve" smooth="yes"/>
      <point x="221" y="822" type="line" smooth="yes"/>
      <point x="171" y="813"/>
      <point x="153" y="762"/>
      <point x="186" y="723" type="curve" smooth="yes"/>
      <point x="203" y="704" type="line"/>
      <point x="89" y="654" type="line" smooth="yes"/>
      <point x="39" y="632"/>
      <point x="37" y="573"/>
      <point x="84" y="547" type="curve" smooth="yes"/>
      <point x="219" y="471" type="line"/>
      <point x="200" y="419" type="line" smooth="yes"/>
      <point x="196" y="406"/>
      <point x="197" y="386"/>
      <point x="202" y="374" type="curve" smooth="yes"/>
      <point x="240" y="293" type="line"/>
      <point x="223" y="221" type="line"/>
      <point x="179" y="145" type="line" smooth="yes"/>
      <point x="162" y="115"/>
      <point x="173" y="77"/>
      <point x="205" y="62" type="curve" smooth="yes"/>
      <point x="249" y="40" type="line"/>
      <point x="213" y="5"/>
      <point x="234" y="-61"/>
    </contour>
    <contour>
      <point x="421" y="89" type="curve" smooth="yes"/>
      <point x="315" y="141" type="line"/>
      <point x="331" y="169" type="line" smooth="yes"/>
      <point x="333" y="173"/>
      <point x="336" y="180"/>
      <point x="337" y="185" type="curve" smooth="yes"/>
      <point x="361" y="285" type="line" smooth="yes"/>
      <point x="364" y="296"/>
      <point x="362" y="314"/>
      <point x="358" y="324" type="curve" smooth="yes"/>
      <point x="322" y="402" type="line"/>
      <point x="349" y="479" type="line" smooth="yes"/>
      <point x="358" y="505"/>
      <point x="346" y="538"/>
      <point x="321" y="551" type="curve" smooth="yes"/>
      <point x="247" y="593" type="line"/>
      <point x="325" y="627" type="line" smooth="yes"/>
      <point x="365" y="644"/>
      <point x="375" y="689"/>
      <point x="347" y="721" type="curve" smooth="yes"/>
      <point x="347" y="721" type="line"/>
      <point x="452" y="739" type="line"/>
      <point x="721" y="739" type="line"/>
      <point x="796" y="717" type="line"/>
      <point x="800" y="677" type="line" smooth="yes"/>
      <point x="800" y="673"/>
      <point x="801" y="667"/>
      <point x="803" y="664" type="curve" smooth="yes"/>
      <point x="828" y="587" type="line"/>
      <point x="834" y="495" type="line" smooth="yes"/>
      <point x="835" y="488"/>
      <point x="837" y="478"/>
      <point x="841" y="472" type="curve" smooth="yes"/>
      <point x="863" y="428" type="line"/>
      <point x="694" y="354" type="line" smooth="yes"/>
      <point x="681" y="348"/>
      <point x="667" y="333"/>
      <point x="662" y="320" type="curve" smooth="yes"/>
      <point x="624" y="220" type="line" smooth="yes"/>
      <point x="615" y="197"/>
      <point x="624" y="167"/>
      <point x="643" y="152" type="curve" smooth="yes"/>
      <point x="700" y="108" type="line"/>
      <point x="684" y="90" type="line"/>
      <point x="523" y="59" type="line"/>
      <point x="451" y="59" type="line"/>
      <point x="446" y="71"/>
      <point x="435" y="81"/>
    </contour>
  </outline>
</glyph>
<glyph name="P" format="1">
  <advance width="1045"/>
  <unicode hex="0050"/>
  <outline>
    <contour>
      <point x="308" y="-37" type="curve" smooth="yes"/>
      <point x="330" y="-13"/>
      <point x="328" y="26"/>
      <point x="304" y="47" type="curve" smooth="yes"/>
      <point x="240" y="106" type="line"/>
      <point x="291" y="158" type="line"/>
      <point x="312" y="174" type="line"/>
      <point x="448" y="211" type="line" smooth="yes"/>
      <point x="455" y="213"/>
      <point x="465" y="218"/>
      <point x="471" y="223" type="curve" smooth="yes"/>
      <point x="500" y="247" type="line"/>
      <point x="594" y="247" type="line" smooth="yes"/>
      <point x="596" y="247"/>
      <point x="600" y="247"/>
      <point x="602" y="248" type="curve" smooth="yes"/>
      <point x="862" y="284" type="line" smooth="yes"/>
      <point x="875" y="285"/>
      <point x="892" y="295"/>
      <point x="901" y="305" type="curve" smooth="yes"/>
      <point x="966" y="386" type="line" smooth="yes"/>
      <point x="993" y="419"/>
      <point x="981" y="463"/>
      <point x="942" y="479" type="curve" smooth="yes"/>
      <point x="866" y="510" type="line"/>
      <point x="953" y="548" type="line" smooth="yes"/>
      <point x="972" y="556"/>
      <point x="988" y="579"/>
      <point x="989" y="599" type="curve" smooth="yes"/>
      <point x="994" y="682" type="line" smooth="yes"/>
      <point x="996" y="707"/>
      <point x="978" y="735"/>
      <point x="955" y="743" type="curve" smooth="yes"/>
      <point x="728" y="823" type="line"/>
      <point x="635" y="859" type="line" smooth="yes"/>
      <point x="630" y="861"/>
      <point x="620" y="863"/>
      <point x="614" y="863" type="curve" smooth="yes"/>
      <point x="438" y="863" type="line" smooth="yes"/>
      <point x="431" y="863"/>
      <point x="421" y="861"/>
      <point x="414" y="858" type="curve" smooth="yes"/>
      <point x="327" y="822" type="line" smooth="yes"/>
      <point x="296" y="809"/>
      <point x="282" y="773"/>
      <point x="296" y="742" type="curve" smooth="yes"/>
      <point x="309" y="713" type="line"/>
      <point x="202" y="656" type="line" smooth="yes"/>
      <point x="159" y="633"/>
      <point x="156" y="581"/>
      <point x="196" y="553" type="curve" smooth="yes"/>
      <point x="248" y="518" type="line"/>
      <point x="92" y="459" type="line" smooth="yes"/>
      <point x="35" y="438"/>
      <point x="36" y="368"/>
      <point x="92" y="347" type="curve" smooth="yes"/>
      <point x="259" y="285" type="line"/>
      <point x="257" y="283" type="line"/>
      <point x="107" y="242" type="line" smooth="yes"/>
      <point x="71" y="233"/>
      <point x="53" y="196"/>
      <point x="67" y="162" type="curve" smooth="yes"/>
      <point x="94" y="96" type="line"/>
      <point x="96" y="82"/>
      <point x="102" y="69"/>
      <point x="114" y="59" type="curve" smooth="yes"/>
      <point x="116" y="56" type="line"/>
      <point x="117" y="56"/>
      <point x="117" y="55"/>
      <point x="118" y="55" type="curve"/>
      <point x="224" y="-41" type="line" smooth="yes"/>
      <point x="248" y="-63"/>
      <point x="287" y="-61"/>
    </contour>
    <contour>
      <point x="440" y="353" type="curve" smooth="yes"/>
      <point x="428" y="343" type="line"/>
      <point x="422" y="350"/>
      <point x="413" y="355"/>
      <point x="403" y="359" type="curve" smooth="yes"/>
      <point x="284" y="404" type="line"/>
      <point x="398" y="447" type="line" smooth="yes"/>
      <point x="448" y="466"/>
      <point x="454" y="523"/>
      <point x="411" y="553" type="curve" smooth="yes"/>
      <point x="346" y="596" type="line"/>
      <point x="415" y="633" type="line" smooth="yes"/>
      <point x="443" y="647"/>
      <point x="455" y="682"/>
      <point x="442" y="711" type="curve" smooth="yes"/>
      <point x="431" y="735" type="line"/>
      <point x="450" y="743" type="line"/>
      <point x="603" y="743" type="line"/>
      <point x="688" y="710" type="line"/>
      <point x="872" y="645" type="line"/>
      <point x="872" y="643" type="line"/>
      <point x="687" y="562" type="line" smooth="yes"/>
      <point x="634" y="539"/>
      <point x="635" y="473"/>
      <point x="689" y="451" type="curve" smooth="yes"/>
      <point x="820" y="399" type="line"/>
      <point x="590" y="367" type="line"/>
      <point x="479" y="367" type="line" smooth="yes"/>
      <point x="467" y="367"/>
      <point x="449" y="361"/>
    </contour>
  </outline>
</glyph>
<glyph name="Q" format="1">
  <advance width="1009"/>
  <unicode hex="0051"/>
  <outline>
    <contour>
      <point x="406" y="-61" type="curve" smooth="yes"/>
      <point x="489" y="-61" type="line" smooth="yes"/>
      <point x="568" y="-61"/>
      <point x="570" y="57"/>
      <point x="491" y="59" type="curve" smooth="yes"/>
      <point x="275" y="66" type="line"/>
      <point x="267" y="69" type="line"/>
      <point x="368" y="153" type="line" smooth="yes"/>
      <point x="405" y="183"/>
      <point x="398" y="234"/>
      <point x="355" y="254" type="curve" smooth="yes"/>
      <point x="191" y="328" type="line"/>
      <point x="208" y="365" type="line"/>
      <point x="296" y="458" type="line" smooth="yes"/>
      <point x="316" y="479"/>
      <point x="317" y="515"/>
      <point x="298" y="538" type="curve" smooth="yes"/>
      <point x="261" y="581" type="line"/>
      <point x="351" y="629" type="line" smooth="yes"/>
      <point x="386" y="647"/>
      <point x="395" y="689"/>
      <point x="370" y="720" type="curve" smooth="yes"/>
      <point x="364" y="727" type="line"/>
      <point x="410" y="739" type="line"/>
      <point x="482" y="739" type="line"/>
      <point x="688" y="721" type="line"/>
      <point x="665" y="696"/>
      <point x="668" y="657"/>
      <point x="700" y="634" type="curve" smooth="yes"/>
      <point x="742" y="604" type="line"/>
      <point x="651" y="551" type="line" smooth="yes"/>
      <point x="620" y="532"/>
      <point x="612" y="492"/>
      <point x="634" y="463" type="curve" smooth="yes"/>
      <point x="710" y="363" type="line" smooth="yes"/>
      <point x="712" y="360"/>
      <point x="715" y="357"/>
      <point x="718" y="355" type="curve" smooth="yes"/>
      <point x="769" y="308" type="line"/>
      <point x="678" y="250" type="line" smooth="yes"/>
      <point x="674" y="247"/>
      <point x="668" y="242"/>
      <point x="665" y="238" type="curve" smooth="yes"/>
      <point x="614" y="180" type="line" smooth="yes"/>
      <point x="604" y="169"/>
      <point x="598" y="148"/>
      <point x="600" y="133" type="curve" smooth="yes"/>
      <point x="619" y="-9" type="line" smooth="yes"/>
      <point x="623" y="-41"/>
      <point x="654" y="-65"/>
      <point x="686" y="-60" type="curve" smooth="yes"/>
      <point x="718" y="-56"/>
      <point x="742" y="-25"/>
      <point x="737" y="7" type="curve" smooth="yes"/>
      <point x="722" y="122" type="line"/>
      <point x="749" y="153" type="line"/>
      <point x="900" y="248" type="line" smooth="yes"/>
      <point x="936" y="271"/>
      <point x="939" y="315"/>
      <point x="908" y="343" type="curve" smooth="yes"/>
      <point x="802" y="440" type="line"/>
      <point x="771" y="482" type="line"/>
      <point x="882" y="547" type="line" smooth="yes"/>
      <point x="922" y="571"/>
      <point x="924" y="620"/>
      <point x="886" y="648" type="curve" smooth="yes"/>
      <point x="851" y="673" type="line"/>
      <point x="923" y="709" type="line" smooth="yes"/>
      <point x="981" y="738"/>
      <point x="966" y="817"/>
      <point x="901" y="823" type="curve" smooth="yes"/>
      <point x="490" y="859" type="line" smooth="yes"/>
      <point x="489" y="859"/>
      <point x="486" y="859"/>
      <point x="485" y="859" type="curve" smooth="yes"/>
      <point x="403" y="859" type="line" smooth="yes"/>
      <point x="399" y="859"/>
      <point x="392" y="858"/>
      <point x="388" y="857" type="curve" smooth="yes"/>
      <point x="244" y="821" type="line" smooth="yes"/>
      <point x="198" y="809"/>
      <point x="182" y="762"/>
      <point x="212" y="725" type="curve" smooth="yes"/>
      <point x="231" y="701" type="line"/>
      <point x="139" y="652" type="line" smooth="yes"/>
      <point x="103" y="633"/>
      <point x="95" y="591"/>
      <point x="121" y="560" type="curve" smooth="yes"/>
      <point x="172" y="501" type="line"/>
      <point x="114" y="440" type="line" smooth="yes"/>
      <point x="111" y="436"/>
      <point x="106" y="430"/>
      <point x="104" y="425" type="curve" smooth="yes"/>
      <point x="56" y="325" type="line" smooth="yes"/>
      <point x="41" y="294"/>
      <point x="54" y="258"/>
      <point x="85" y="244" type="curve" smooth="yes"/>
      <point x="218" y="184" type="line"/>
      <point x="120" y="104" type="line" smooth="yes"/>
      <point x="84" y="74"/>
      <point x="89" y="25"/>
      <point x="131" y="4" type="curve" smooth="yes"/>
      <point x="232" y="-48" type="line" smooth="yes"/>
      <point x="239" y="-51"/>
      <point x="250" y="-54"/>
      <point x="258" y="-54" type="curve" smooth="yes"/>
      <point x="387" y="-58" type="line"/>
      <point x="393" y="-60"/>
      <point x="399" y="-61"/>
    </contour>
  </outline>
</glyph>
<glyph name="R" format="1">
  <advance width="1054"/>
  <unicode hex="0052"/>
  <outline>
    <contour>
      <point x="303" y="470" type="line" smooth="yes"/>
      <point x="315" y="495"/>
      <point x="306" y="528"/>
      <point x="284" y="544" type="curve" smooth="yes"/>
      <point x="223" y="589" type="line"/>
      <point x="290" y="627" type="line" smooth="yes"/>
      <point x="315" y="641"/>
      <point x="327" y="674"/>
      <point x="316" y="702" type="curve" smooth="yes"/>
      <point x="302" y="736" type="line"/>
      <point x="684" y="736" type="line"/>
      <point x="737" y="706" type="line"/>
      <point x="868" y="641" type="line"/>
      <point x="869" y="635" type="line"/>
      <point x="671" y="551" type="line" smooth="yes"/>
      <point x="615" y="528"/>
      <point x="618" y="458"/>
      <point x="675" y="439" type="curve" smooth="yes"/>
      <point x="829" y="388" type="line"/>
      <point x="545" y="356" type="line"/>
      <point x="340" y="356" type="line"/>
      <point x="276" y="412" type="line"/>
    </contour>
    <contour>
      <point x="168" y="-58" type="curve" smooth="yes"/>
      <point x="384" y="42" type="line" smooth="yes"/>
      <point x="435" y="65"/>
      <point x="435" y="128"/>
      <point x="384" y="151" type="curve" smooth="yes"/>
      <point x="271" y="201" type="line"/>
      <point x="333" y="236" type="line"/>
      <point x="619" y="236" type="line"/>
      <point x="711" y="233" type="line"/>
      <point x="713" y="221"/>
      <point x="717" y="209"/>
      <point x="726" y="200" type="curve" smooth="yes"/>
      <point x="801" y="114" type="line"/>
      <point x="682" y="48" type="line" smooth="yes"/>
      <point x="654" y="33"/>
      <point x="643" y="-5"/>
      <point x="659" y="-33" type="curve" smooth="yes"/>
      <point x="674" y="-61"/>
      <point x="712" y="-72"/>
      <point x="740" y="-56" type="curve" smooth="yes"/>
      <point x="924" y="46" type="line" smooth="yes"/>
      <point x="959" y="65"/>
      <point x="967" y="107"/>
      <point x="940" y="138" type="curve" smooth="yes"/>
      <point x="854" y="236" type="line"/>
      <point x="865" y="246" type="line" smooth="yes"/>
      <point x="873" y="255"/>
      <point x="879" y="264"/>
      <point x="883" y="273" type="curve"/>
      <point x="895" y="275"/>
      <point x="911" y="284"/>
      <point x="919" y="293" type="curve" smooth="yes"/>
      <point x="988" y="373" type="line" smooth="yes"/>
      <point x="1018" y="408"/>
      <point x="1005" y="455"/>
      <point x="961" y="469" type="curve" smooth="yes"/>
      <point x="863" y="502" type="line"/>
      <point x="954" y="541" type="line" smooth="yes"/>
      <point x="976" y="550"/>
      <point x="992" y="576"/>
      <point x="991" y="599" type="curve" smooth="yes"/>
      <point x="986" y="683" type="line" smooth="yes"/>
      <point x="985" y="702"/>
      <point x="970" y="725"/>
      <point x="953" y="733" type="curve" smooth="yes"/>
      <point x="790" y="814" type="line"/>
      <point x="730" y="848" type="line" smooth="yes"/>
      <point x="722" y="852"/>
      <point x="709" y="856"/>
      <point x="700" y="856" type="curve" smooth="yes"/>
      <point x="258" y="856" type="line" smooth="yes"/>
      <point x="243" y="856"/>
      <point x="222" y="846"/>
      <point x="212" y="835" type="curve" smooth="yes"/>
      <point x="182" y="798" type="line" smooth="yes"/>
      <point x="169" y="783"/>
      <point x="164" y="756"/>
      <point x="172" y="737" type="curve" smooth="yes"/>
      <point x="185" y="705" type="line"/>
      <point x="83" y="648" type="line" smooth="yes"/>
      <point x="42" y="625"/>
      <point x="39" y="575"/>
      <point x="77" y="548" type="curve" smooth="yes"/>
      <point x="174" y="477" type="line"/>
      <point x="148" y="422" type="line" smooth="yes"/>
      <point x="137" y="399"/>
      <point x="144" y="367"/>
      <point x="163" y="351" type="curve" smooth="yes"/>
      <point x="166" y="348" type="line"/>
      <point x="166" y="281" type="line"/>
      <point x="107" y="249" type="line" smooth="yes"/>
      <point x="60" y="223"/>
      <point x="62" y="163"/>
      <point x="111" y="141" type="curve" smooth="yes"/>
      <point x="214" y="95" type="line"/>
      <point x="118" y="50" type="line" smooth="yes"/>
      <point x="88" y="37"/>
      <point x="75" y="0"/>
      <point x="89" y="-29" type="curve" smooth="yes"/>
      <point x="102" y="-59"/>
      <point x="139" y="-72"/>
    </contour>
  </outline>
</glyph>
<glyph name="S" format="1">
  <advance width="1065"/>
  <unicode hex="0053"/>
  <outline>
    <contour>
      <point x="338" y="-56" type="curve" smooth="yes"/>
      <point x="664" y="-56" type="line"/>
      <point x="664" y="-49" type="line"/>
      <point x="842" y="-18" type="line" smooth="yes"/>
      <point x="873" y="-13"/>
      <point x="895" y="16"/>
      <point x="892" y="47" type="curve" smooth="yes"/>
      <point x="885" y="117" type="line"/>
      <point x="903" y="184" type="line"/>
      <point x="973" y="320" type="line" smooth="yes"/>
      <point x="993" y="359"/>
      <point x="972" y="400"/>
      <point x="930" y="407" type="curve" smooth="yes"/>
      <point x="626" y="457" type="line"/>
      <point x="576" y="464" type="line" smooth="yes"/>
      <point x="574" y="464"/>
      <point x="571" y="464"/>
      <point x="569" y="464" type="curve" smooth="yes"/>
      <point x="473" y="464" type="line"/>
      <point x="417" y="470" type="line"/>
      <point x="266" y="515" type="line"/>
      <point x="212" y="579" type="line"/>
      <point x="342" y="631" type="line" smooth="yes"/>
      <point x="368" y="642"/>
      <point x="385" y="672"/>
      <point x="379" y="699" type="curve" smooth="yes"/>
      <point x="372" y="734" type="line"/>
      <point x="393" y="744" type="line"/>
      <point x="519" y="744" type="line"/>
      <point x="657" y="710" type="line"/>
      <point x="876" y="639" type="line"/>
      <point x="901" y="581" type="line" smooth="yes"/>
      <point x="913" y="551"/>
      <point x="950" y="536"/>
      <point x="979" y="549" type="curve" smooth="yes"/>
      <point x="1009" y="561"/>
      <point x="1024" y="598"/>
      <point x="1011" y="627" type="curve" smooth="yes"/>
      <point x="976" y="711" type="line" smooth="yes"/>
      <point x="970" y="725"/>
      <point x="953" y="740"/>
      <point x="939" y="744" type="curve" smooth="yes"/>
      <point x="692" y="825" type="line" smooth="yes"/>
      <point x="691" y="825"/>
      <point x="689" y="826"/>
      <point x="687" y="826" type="curve" smooth="yes"/>
      <point x="561" y="857" type="line"/>
      <point x="561" y="864" type="line"/>
      <point x="379" y="864" type="line" smooth="yes"/>
      <point x="371" y="864"/>
      <point x="360" y="861"/>
      <point x="353" y="858" type="curve" smooth="yes"/>
      <point x="277" y="822" type="line" smooth="yes"/>
      <point x="254" y="811"/>
      <point x="239" y="781"/>
      <point x="245" y="755" type="curve" smooth="yes"/>
      <point x="251" y="724" type="line"/>
      <point x="90" y="660" type="line" smooth="yes"/>
      <point x="49" y="644"/>
      <point x="38" y="599"/>
      <point x="66" y="565" type="curve" smooth="yes"/>
      <point x="186" y="424" type="line" smooth="yes"/>
      <point x="193" y="416"/>
      <point x="206" y="408"/>
      <point x="215" y="405" type="curve" smooth="yes"/>
      <point x="389" y="353" type="line" smooth="yes"/>
      <point x="391" y="353"/>
      <point x="396" y="352"/>
      <point x="399" y="351" type="curve" smooth="yes"/>
      <point x="464" y="344" type="line" smooth="yes"/>
      <point x="465" y="344"/>
      <point x="468" y="344"/>
      <point x="470" y="344" type="curve" smooth="yes"/>
      <point x="565" y="344" type="line"/>
      <point x="611" y="338" type="line"/>
      <point x="829" y="302" type="line"/>
      <point x="794" y="233" type="line" smooth="yes"/>
      <point x="792" y="230"/>
      <point x="790" y="225"/>
      <point x="789" y="222" type="curve" smooth="yes"/>
      <point x="766" y="138" type="line" smooth="yes"/>
      <point x="765" y="132"/>
      <point x="764" y="123"/>
      <point x="765" y="117" type="curve" smooth="yes"/>
      <point x="767" y="90" type="line"/>
      <point x="614" y="64" type="line"/>
      <point x="421" y="64" type="line"/>
      <point x="415" y="67"/>
      <point x="409" y="69"/>
      <point x="403" y="70" type="curve" smooth="yes"/>
      <point x="239" y="101" type="line"/>
      <point x="297" y="163" type="line" smooth="yes"/>
      <point x="320" y="186"/>
      <point x="319" y="225"/>
      <point x="295" y="247" type="curve" smooth="yes"/>
      <point x="272" y="270"/>
      <point x="233" y="269"/>
      <point x="211" y="245" type="curve" smooth="yes"/>
      <point x="76" y="104" type="line" smooth="yes"/>
      <point x="40" y="66"/>
      <point x="57" y="13"/>
      <point x="108" y="3" type="curve" smooth="yes"/>
      <point x="287" y="-30" type="line"/>
      <point x="297" y="-45"/>
      <point x="314" y="-56"/>
    </contour>
  </outline>
</glyph>
<glyph name="T" format="1">
  <advance width="585"/>
  <unicode hex="0054"/>
  <outline>
    <contour>
      <point x="483" y="-29" type="curve" smooth="yes"/>
      <point x="499" y="-1"/>
      <point x="488" y="37"/>
      <point x="460" y="52" type="curve" smooth="yes"/>
      <point x="344" y="117" type="line"/>
      <point x="382" y="161" type="line" smooth="yes"/>
      <point x="393" y="174"/>
      <point x="398" y="198"/>
      <point x="394" y="215" type="curve" smooth="yes"/>
      <point x="369" y="315" type="line" smooth="yes"/>
      <point x="368" y="318"/>
      <point x="366" y="324"/>
      <point x="365" y="327" type="curve" smooth="yes"/>
      <point x="319" y="419" type="line"/>
      <point x="302" y="511" type="line"/>
      <point x="289" y="589" type="line"/>
      <point x="315" y="637" type="line"/>
      <point x="437" y="706" type="line"/>
      <point x="500" y="740" type="line" smooth="yes"/>
      <point x="552" y="768"/>
      <point x="545" y="836"/>
      <point x="488" y="851" type="curve" smooth="yes"/>
      <point x="462" y="858" type="line" smooth="yes"/>
      <point x="457" y="859"/>
      <point x="450" y="860"/>
      <point x="446" y="860" type="curve" smooth="yes"/>
      <point x="110" y="860" type="line" smooth="yes"/>
      <point x="78" y="860"/>
      <point x="50" y="832"/>
      <point x="50" y="800" type="curve" smooth="yes"/>
      <point x="50" y="768"/>
      <point x="78" y="740"/>
      <point x="110" y="740" type="curve" smooth="yes"/>
      <point x="253" y="740" type="line"/>
      <point x="241" y="733" type="line" smooth="yes"/>
      <point x="233" y="729"/>
      <point x="222" y="718"/>
      <point x="218" y="710" type="curve" smooth="yes"/>
      <point x="173" y="629" type="line" smooth="yes"/>
      <point x="168" y="619"/>
      <point x="165" y="601"/>
      <point x="167" y="590" type="curve" smooth="yes"/>
      <point x="184" y="489" type="line"/>
      <point x="202" y="389" type="line" smooth="yes"/>
      <point x="203" y="385"/>
      <point x="205" y="377"/>
      <point x="207" y="373" type="curve" smooth="yes"/>
      <point x="254" y="279" type="line"/>
      <point x="270" y="215" type="line"/>
      <point x="205" y="139" type="line" smooth="yes"/>
      <point x="180" y="109"/>
      <point x="187" y="67"/>
      <point x="222" y="48" type="curve" smooth="yes"/>
      <point x="402" y="-52" type="line" smooth="yes"/>
      <point x="430" y="-68"/>
      <point x="468" y="-57"/>
    </contour>
  </outline>
</glyph>
<glyph name="U" format="1">
  <advance width="1079"/>
  <unicode hex="0055"/>
  <outline>
    <contour>
      <point x="373" y="-61" type="curve" smooth="yes"/>
      <point x="729" y="-61" type="line" smooth="yes"/>
      <point x="744" y="-61"/>
      <point x="765" y="-51"/>
      <point x="775" y="-40" type="curve" smooth="yes"/>
      <point x="805" y="-4" type="line" smooth="yes"/>
      <point x="824" y="19"/>
      <point x="824" y="54"/>
      <point x="804" y="76" type="curve" smooth="yes"/>
      <point x="773" y="109" type="line"/>
      <point x="823" y="149" type="line"/>
      <point x="996" y="247" type="line" smooth="yes"/>
      <point x="1039" y="271"/>
      <point x="1041" y="323"/>
      <point x="999" y="350" type="curve" smooth="yes"/>
      <point x="880" y="425" type="line"/>
      <point x="897" y="481" type="line" smooth="yes"/>
      <point x="904" y="503"/>
      <point x="895" y="531"/>
      <point x="878" y="546" type="curve" smooth="yes"/>
      <point x="774" y="630" type="line"/>
      <point x="767" y="683" type="line"/>
      <point x="826" y="764" type="line" smooth="yes"/>
      <point x="845" y="790"/>
      <point x="838" y="829"/>
      <point x="812" y="848" type="curve" smooth="yes"/>
      <point x="786" y="867"/>
      <point x="747" y="860"/>
      <point x="728" y="834" type="curve" smooth="yes"/>
      <point x="656" y="734" type="line" smooth="yes"/>
      <point x="649" y="724"/>
      <point x="644" y="705"/>
      <point x="645" y="692" type="curve" smooth="yes"/>
      <point x="657" y="592" type="line" smooth="yes"/>
      <point x="659" y="579"/>
      <point x="669" y="561"/>
      <point x="679" y="552" type="curve" smooth="yes"/>
      <point x="771" y="478" type="line"/>
      <point x="752" y="417" type="line" smooth="yes"/>
      <point x="744" y="393"/>
      <point x="755" y="362"/>
      <point x="777" y="348" type="curve" smooth="yes"/>
      <point x="850" y="302" type="line"/>
      <point x="760" y="251" type="line" smooth="yes"/>
      <point x="757" y="250"/>
      <point x="753" y="247"/>
      <point x="751" y="246" type="curve" smooth="yes"/>
      <point x="648" y="162" type="line" smooth="yes"/>
      <point x="621" y="140"/>
      <point x="618" y="101"/>
      <point x="642" y="75" type="curve" smooth="yes"/>
      <point x="656" y="59" type="line"/>
      <point x="379" y="59" type="line"/>
      <point x="279" y="81" type="line"/>
      <point x="285" y="101" type="line" smooth="yes"/>
      <point x="286" y="105"/>
      <point x="287" y="113"/>
      <point x="286" y="118" type="curve" smooth="yes"/>
      <point x="283" y="198" type="line"/>
      <point x="291" y="294" type="line" smooth="yes"/>
      <point x="292" y="311"/>
      <point x="283" y="333"/>
      <point x="271" y="344" type="curve" smooth="yes"/>
      <point x="207" y="400" type="line"/>
      <point x="266" y="455" type="line" smooth="yes"/>
      <point x="272" y="461"/>
      <point x="279" y="471"/>
      <point x="281" y="479" type="curve" smooth="yes"/>
      <point x="317" y="579" type="line"/>
      <point x="358" y="676" type="line" smooth="yes"/>
      <point x="369" y="704"/>
      <point x="357" y="738"/>
      <point x="330" y="752" type="curve" smooth="yes"/>
      <point x="138" y="852" type="line" smooth="yes"/>
      <point x="109" y="867"/>
      <point x="72" y="855"/>
      <point x="57" y="827" type="curve" smooth="yes"/>
      <point x="42" y="798"/>
      <point x="54" y="761"/>
      <point x="82" y="746" type="curve" smooth="yes"/>
      <point x="226" y="671" type="line"/>
      <point x="205" y="619" type="line"/>
      <point x="173" y="533" type="line"/>
      <point x="77" y="443" type="line" smooth="yes"/>
      <point x="51" y="418"/>
      <point x="51" y="378"/>
      <point x="78" y="354" type="curve" smooth="yes"/>
      <point x="169" y="274" type="line"/>
      <point x="163" y="204" type="line" smooth="yes"/>
      <point x="163" y="202"/>
      <point x="163" y="199"/>
      <point x="163" y="196" type="curve" smooth="yes"/>
      <point x="166" y="122" type="line"/>
      <point x="148" y="50" type="line" smooth="yes"/>
      <point x="139" y="17"/>
      <point x="160" y="-16"/>
      <point x="193" y="-24" type="curve" smooth="yes"/>
      <point x="360" y="-60" type="line" smooth="yes"/>
      <point x="364" y="-60"/>
      <point x="369" y="-61"/>
    </contour>
  </outline>
</glyph>
<glyph name="V" format="1">
  <advance width="1033"/>
  <unicode hex="0056"/>
  <outline>
    <contour>
      <point x="322" y="-60" type="curve" smooth="yes"/>
      <point x="692" y="-60" type="line" smooth="yes"/>
      <point x="707" y="-60"/>
      <point x="728" y="-50"/>
      <point x="738" y="-38" type="curve" smooth="yes"/>
      <point x="769" y="-2" type="line" smooth="yes"/>
      <point x="780" y="12"/>
      <point x="785" y="37"/>
      <point x="780" y="54" type="curve" smooth="yes"/>
      <point x="756" y="134" type="line"/>
      <point x="747" y="165" type="line"/>
      <point x="944" y="244" type="line" smooth="yes"/>
      <point x="991" y="264"/>
      <point x="998" y="318"/>
      <point x="956" y="348" type="curve" smooth="yes"/>
      <point x="832" y="439" type="line"/>
      <point x="815" y="476" type="line"/>
      <point x="937" y="548" type="line" smooth="yes"/>
      <point x="981" y="575"/>
      <point x="979" y="630"/>
      <point x="934" y="653" type="curve" smooth="yes"/>
      <point x="790" y="728" type="line"/>
      <point x="810" y="777" type="line" smooth="yes"/>
      <point x="823" y="807"/>
      <point x="808" y="843"/>
      <point x="778" y="855" type="curve" smooth="yes"/>
      <point x="748" y="868"/>
      <point x="712" y="853"/>
      <point x="700" y="823" type="curve" smooth="yes"/>
      <point x="658" y="723" type="line" smooth="yes"/>
      <point x="646" y="695"/>
      <point x="658" y="661"/>
      <point x="685" y="647" type="curve" smooth="yes"/>
      <point x="783" y="596" type="line"/>
      <point x="707" y="552" type="line" smooth="yes"/>
      <point x="682" y="536"/>
      <point x="671" y="502"/>
      <point x="683" y="475" type="curve" smooth="yes"/>
      <point x="729" y="375" type="line" smooth="yes"/>
      <point x="733" y="367"/>
      <point x="742" y="357"/>
      <point x="749" y="352" type="curve" smooth="yes"/>
      <point x="799" y="315" type="line"/>
      <point x="652" y="256" type="line" smooth="yes"/>
      <point x="625" y="244"/>
      <point x="609" y="212"/>
      <point x="617" y="184" type="curve" smooth="yes"/>
      <point x="641" y="99" type="line"/>
      <point x="653" y="60" type="line"/>
      <point x="446" y="60" type="line"/>
      <point x="480" y="104" type="line" smooth="yes"/>
      <point x="509" y="141"/>
      <point x="493" y="188"/>
      <point x="447" y="199" type="curve" smooth="yes"/>
      <point x="231" y="251" type="line"/>
      <point x="209" y="318" type="line" smooth="yes"/>
      <point x="209" y="320"/>
      <point x="208" y="322"/>
      <point x="207" y="323" type="curve" smooth="yes"/>
      <point x="182" y="384" type="line"/>
      <point x="263" y="455" type="line" smooth="yes"/>
      <point x="270" y="461"/>
      <point x="278" y="474"/>
      <point x="281" y="483" type="curve" smooth="yes"/>
      <point x="310" y="583" type="line" smooth="yes"/>
      <point x="315" y="601"/>
      <point x="309" y="626"/>
      <point x="297" y="640" type="curve" smooth="yes"/>
      <point x="224" y="722" type="line"/>
      <point x="226" y="798" type="line" smooth="yes"/>
      <point x="227" y="831"/>
      <point x="200" y="859"/>
      <point x="168" y="860" type="curve" smooth="yes"/>
      <point x="135" y="861"/>
      <point x="107" y="834"/>
      <point x="106" y="802" type="curve" smooth="yes"/>
      <point x="103" y="702" type="line" smooth="yes"/>
      <point x="103" y="689"/>
      <point x="109" y="670"/>
      <point x="118" y="660" type="curve" smooth="yes"/>
      <point x="185" y="585" type="line"/>
      <point x="170" y="533" type="line"/>
      <point x="70" y="445" type="line" smooth="yes"/>
      <point x="52" y="429"/>
      <point x="45" y="399"/>
      <point x="55" y="377" type="curve" smooth="yes"/>
      <point x="96" y="279" type="line"/>
      <point x="127" y="182" type="line" smooth="yes"/>
      <point x="133" y="164"/>
      <point x="152" y="146"/>
      <point x="171" y="142" type="curve" smooth="yes"/>
      <point x="203" y="134" type="line"/>
      <point x="328" y="104" type="line"/>
      <point x="275" y="37" type="line" smooth="yes"/>
      <point x="241" y="-6"/>
      <point x="267" y="-60"/>
    </contour>
  </outline>
</glyph>
<glyph name="W" format="1">
  <advance width="1098"/>
  <unicode hex="0057"/>
  <outline>
    <contour>
      <point x="557" y="113" type="line"/>
      <point x="525" y="177" type="line"/>
      <point x="550" y="192" type="line"/>
    </contour>
    <contour>
      <point x="346" y="-60" type="line" smooth="yes"/>
      <point x="352" y="-60"/>
      <point x="357" y="-59"/>
      <point x="362" y="-58" type="curve"/>
      <point x="558" y="-53" type="line" smooth="yes"/>
      <point x="569" y="-53"/>
      <point x="585" y="-47"/>
      <point x="594" y="-40" type="curve" smooth="yes"/>
      <point x="602" y="-34" type="line"/>
      <point x="650" y="-50" type="line" smooth="yes"/>
      <point x="655" y="-51"/>
      <point x="663" y="-53"/>
      <point x="667" y="-53" type="curve" smooth="yes"/>
      <point x="893" y="-60" type="line"/>
      <point x="893" y="-60" type="line"/>
      <point x="894" y="-60" type="line" smooth="yes"/>
      <point x="895" y="-60" type="line" smooth="yes"/>
      <point x="947" y="-60"/>
      <point x="966" y="-8"/>
      <point x="949" y="27" type="curve"/>
      <point x="933" y="93" type="line"/>
      <point x="972" y="171" type="line"/>
      <point x="1032" y="268" type="line" smooth="yes"/>
      <point x="1052" y="300"/>
      <point x="1040" y="340"/>
      <point x="1005" y="355" type="curve" smooth="yes"/>
      <point x="834" y="430" type="line"/>
      <point x="852" y="467" type="line"/>
      <point x="934" y="560" type="line"/>
      <point x="1031" y="658" type="line" smooth="yes"/>
      <point x="1046" y="673"/>
      <point x="1052" y="702"/>
      <point x="1044" y="722" type="curve" smooth="yes"/>
      <point x="1005" y="822" type="line" smooth="yes"/>
      <point x="993" y="852"/>
      <point x="957" y="868"/>
      <point x="927" y="856" type="curve" smooth="yes"/>
      <point x="897" y="844"/>
      <point x="881" y="808"/>
      <point x="893" y="778" type="curve" smooth="yes"/>
      <point x="918" y="714" type="line"/>
      <point x="844" y="640" type="line"/>
      <point x="756" y="540" type="line" smooth="yes"/>
      <point x="753" y="536"/>
      <point x="749" y="530"/>
      <point x="747" y="526" type="curve" smooth="yes"/>
      <point x="699" y="426" type="line" smooth="yes"/>
      <point x="684" y="395"/>
      <point x="698" y="359"/>
      <point x="729" y="345" type="curve" smooth="yes"/>
      <point x="894" y="273" type="line"/>
      <point x="868" y="232" type="line" smooth="yes"/>
      <point x="867" y="230"/>
      <point x="866" y="228"/>
      <point x="865" y="226" type="curve" smooth="yes"/>
      <point x="816" y="126" type="line" smooth="yes"/>
      <point x="811" y="116"/>
      <point x="809" y="98"/>
      <point x="812" y="86" type="curve" smooth="yes"/>
      <point x="817" y="62" type="line"/>
      <point x="681" y="67" type="line"/>
      <point x="671" y="191" type="line"/>
      <point x="704" y="279" type="line" smooth="yes"/>
      <point x="710" y="295"/>
      <point x="707" y="320"/>
      <point x="697" y="334" type="curve" smooth="yes"/>
      <point x="628" y="434" type="line" smooth="yes"/>
      <point x="619" y="448"/>
      <point x="596" y="460"/>
      <point x="579" y="460" type="curve" smooth="yes"/>
      <point x="505" y="460" type="line" smooth="yes"/>
      <point x="445" y="460"/>
      <point x="421" y="395"/>
      <point x="465" y="355" type="curve" smooth="yes"/>
      <point x="515" y="310" type="line"/>
      <point x="416" y="252" type="line" smooth="yes"/>
      <point x="389" y="236"/>
      <point x="378" y="201"/>
      <point x="392" y="173" type="curve" smooth="yes"/>
      <point x="447" y="64" type="line"/>
      <point x="359" y="62" type="line"/>
      <point x="266" y="115" type="line"/>
      <point x="305" y="160" type="line" smooth="yes"/>
      <point x="330" y="188"/>
      <point x="325" y="229"/>
      <point x="293" y="250" type="curve" smooth="yes"/>
      <point x="210" y="306" type="line"/>
      <point x="266" y="355" type="line" smooth="yes"/>
      <point x="267" y="356"/>
      <point x="269" y="357"/>
      <point x="270" y="358" type="curve" smooth="yes"/>
      <point x="366" y="458" type="line" smooth="yes"/>
      <point x="387" y="480"/>
      <point x="388" y="516"/>
      <point x="369" y="538" type="curve" smooth="yes"/>
      <point x="324" y="592" type="line"/>
      <point x="398" y="654" type="line" smooth="yes"/>
      <point x="423" y="676"/>
      <point x="426" y="714"/>
      <point x="404" y="739" type="curve" smooth="yes"/>
      <point x="317" y="839" type="line" smooth="yes"/>
      <point x="296" y="864"/>
      <point x="257" y="867"/>
      <point x="233" y="845" type="curve" smooth="yes"/>
      <point x="208" y="824"/>
      <point x="205" y="785"/>
      <point x="227" y="761" type="curve" smooth="yes"/>
      <point x="274" y="707" type="line"/>
      <point x="201" y="646" type="line" smooth="yes"/>
      <point x="176" y="625"/>
      <point x="173" y="587"/>
      <point x="194" y="562" type="curve" smooth="yes"/>
      <point x="243" y="503" type="line"/>
      <point x="186" y="444" type="line"/>
      <point x="72" y="345" type="line" smooth="yes"/>
      <point x="40" y="318"/>
      <point x="43" y="274"/>
      <point x="78" y="250" type="curve" smooth="yes"/>
      <point x="170" y="188" type="line"/>
      <point x="127" y="140" type="line" smooth="yes"/>
      <point x="101" y="110"/>
      <point x="108" y="68"/>
      <point x="142" y="48" type="curve" smooth="yes"/>
      <point x="238" y="-7" type="line"/>
      <point x="242" y="-35"/>
      <point x="262" y="-60"/>
      <point x="298" y="-60" type="curve" smooth="yes"/>
    </contour>
  </outline>
</glyph>
<glyph name="X" format="1">
  <advance width="1054"/>
  <unicode hex="0058"/>
  <outline>
    <contour>
      <point x="284" y="-34" type="curve" smooth="yes"/>
      <point x="353" y="66" type="line" smooth="yes"/>
      <point x="374" y="96"/>
      <point x="365" y="135"/>
      <point x="333" y="152" type="curve" smooth="yes"/>
      <point x="184" y="236" type="line"/>
      <point x="184" y="241" type="line"/>
      <point x="358" y="306" type="line"/>
      <point x="547" y="340" type="line"/>
      <point x="567" y="340" type="line"/>
      <point x="791" y="313" type="line"/>
      <point x="643" y="256" type="line" smooth="yes"/>
      <point x="619" y="246"/>
      <point x="602" y="218"/>
      <point x="606" y="192" type="curve" smooth="yes"/>
      <point x="619" y="92" type="line" smooth="yes"/>
      <point x="620" y="82"/>
      <point x="627" y="67"/>
      <point x="634" y="59" type="curve" smooth="yes"/>
      <point x="726" y="-41" type="line" smooth="yes"/>
      <point x="748" y="-64"/>
      <point x="787" y="-66"/>
      <point x="811" y="-44" type="curve" smooth="yes"/>
      <point x="834" y="-22"/>
      <point x="836" y="17"/>
      <point x="814" y="41" type="curve" smooth="yes"/>
      <point x="735" y="127" type="line"/>
      <point x="731" y="161" type="line"/>
      <point x="900" y="228" type="line" smooth="yes"/>
      <point x="923" y="236"/>
      <point x="940" y="263"/>
      <point x="938" y="287" type="curve" smooth="yes"/>
      <point x="934" y="367" type="line" smooth="yes"/>
      <point x="933" y="390"/>
      <point x="917" y="411"/>
      <point x="895" y="420" type="curve"/>
      <point x="971" y="465" type="line" smooth="yes"/>
      <point x="987" y="474"/>
      <point x="1000" y="496"/>
      <point x="1001" y="514" type="curve" smooth="yes"/>
      <point x="1004" y="598" type="line" smooth="yes"/>
      <point x="1004" y="600"/>
      <point x="1004" y="605"/>
      <point x="1004" y="607" type="curve" smooth="yes"/>
      <point x="992" y="707" type="line" smooth="yes"/>
      <point x="991" y="715"/>
      <point x="986" y="727"/>
      <point x="981" y="734" type="curve" smooth="yes"/>
      <point x="912" y="834" type="line" smooth="yes"/>
      <point x="894" y="861"/>
      <point x="856" y="868"/>
      <point x="829" y="849" type="curve" smooth="yes"/>
      <point x="802" y="831"/>
      <point x="795" y="793"/>
      <point x="814" y="766" type="curve" smooth="yes"/>
      <point x="874" y="678" type="line"/>
      <point x="884" y="598" type="line"/>
      <point x="882" y="551" type="line"/>
      <point x="785" y="494" type="line"/>
      <point x="529" y="460" type="line"/>
      <point x="486" y="460" type="line"/>
      <point x="305" y="488" type="line"/>
      <point x="305" y="516" type="line"/>
      <point x="311" y="596" type="line" smooth="yes"/>
      <point x="312" y="615"/>
      <point x="301" y="638"/>
      <point x="286" y="649" type="curve" smooth="yes"/>
      <point x="181" y="723" type="line"/>
      <point x="201" y="781" type="line" smooth="yes"/>
      <point x="211" y="811"/>
      <point x="194" y="846"/>
      <point x="163" y="857" type="curve" smooth="yes"/>
      <point x="133" y="867"/>
      <point x="98" y="850"/>
      <point x="87" y="819" type="curve" smooth="yes"/>
      <point x="53" y="719" type="line" smooth="yes"/>
      <point x="45" y="696"/>
      <point x="55" y="665"/>
      <point x="75" y="651" type="curve" smooth="yes"/>
      <point x="189" y="570" type="line"/>
      <point x="185" y="517" type="line"/>
      <point x="185" y="437" type="line" smooth="yes"/>
      <point x="185" y="414"/>
      <point x="199" y="392"/>
      <point x="219" y="382" type="curve"/>
      <point x="102" y="339" type="line" smooth="yes"/>
      <point x="80" y="331"/>
      <point x="63" y="305"/>
      <point x="63" y="282" type="curve" smooth="yes"/>
      <point x="65" y="199" type="line" smooth="yes"/>
      <point x="65" y="180"/>
      <point x="79" y="157"/>
      <point x="96" y="148" type="curve" smooth="yes"/>
      <point x="217" y="80" type="line"/>
      <point x="186" y="34" type="line" smooth="yes"/>
      <point x="167" y="7"/>
      <point x="174" y="-31"/>
      <point x="201" y="-49" type="curve" smooth="yes"/>
      <point x="228" y="-68"/>
      <point x="266" y="-61"/>
    </contour>
  </outline>
</glyph>
<glyph name="Y" format="1">
  <advance width="1082"/>
  <unicode hex="0059"/>
  <outline>
    <contour>
      <point x="761" y="686" type="line"/>
      <point x="756" y="695" type="line"/>
      <point x="768" y="713" type="line"/>
      <point x="785" y="701" type="line"/>
    </contour>
    <contour>
      <point x="389" y="-60" type="curve" smooth="yes"/>
      <point x="628" y="-60" type="line" smooth="yes"/>
      <point x="649" y="-60"/>
      <point x="665" y="-52"/>
      <point x="676" y="-39" type="curve"/>
      <point x="905" y="0" type="line" smooth="yes"/>
      <point x="962" y="10"/>
      <point x="977" y="74"/>
      <point x="931" y="108" type="curve" smooth="yes"/>
      <point x="790" y="212" type="line"/>
      <point x="824" y="253" type="line"/>
      <point x="1000" y="347" type="line" smooth="yes"/>
      <point x="1027" y="362"/>
      <point x="1039" y="396"/>
      <point x="1027" y="424" type="curve" smooth="yes"/>
      <point x="983" y="524" type="line" smooth="yes"/>
      <point x="978" y="534"/>
      <point x="966" y="547"/>
      <point x="955" y="553" type="curve" smooth="yes"/>
      <point x="856" y="604" type="line"/>
      <point x="926" y="648" type="line" smooth="yes"/>
      <point x="965" y="672"/>
      <point x="966" y="721"/>
      <point x="928" y="748" type="curve" smooth="yes"/>
      <point x="784" y="847" type="line" smooth="yes"/>
      <point x="756" y="867"/>
      <point x="718" y="859"/>
      <point x="699" y="830" type="curve" smooth="yes"/>
      <point x="636" y="730" type="line" smooth="yes"/>
      <point x="626" y="714"/>
      <point x="625" y="687"/>
      <point x="634" y="671" type="curve" smooth="yes"/>
      <point x="672" y="596" type="line"/>
      <point x="673" y="583"/>
      <point x="679" y="570"/>
      <point x="689" y="560" type="curve"/>
      <point x="717" y="478" type="line" smooth="yes"/>
      <point x="722" y="465"/>
      <point x="736" y="450"/>
      <point x="748" y="444" type="curve" smooth="yes"/>
      <point x="819" y="410" type="line"/>
      <point x="783" y="389" type="line"/>
      <point x="687" y="358" type="line"/>
      <point x="432" y="358" type="line"/>
      <point x="426" y="371"/>
      <point x="415" y="383"/>
      <point x="398" y="390" type="curve" smooth="yes"/>
      <point x="259" y="446" type="line"/>
      <point x="270" y="470" type="line"/>
      <point x="329" y="567" type="line" smooth="yes"/>
      <point x="347" y="595"/>
      <point x="337" y="632"/>
      <point x="309" y="649" type="curve" smooth="yes"/>
      <point x="211" y="708" type="line"/>
      <point x="261" y="754" type="line" smooth="yes"/>
      <point x="285" y="775"/>
      <point x="287" y="814"/>
      <point x="265" y="838" type="curve" smooth="yes"/>
      <point x="244" y="862"/>
      <point x="205" y="864"/>
      <point x="181" y="842" type="curve" smooth="yes"/>
      <point x="71" y="742" type="line" smooth="yes"/>
      <point x="39" y="714"/>
      <point x="44" y="668"/>
      <point x="80" y="647" type="curve" smooth="yes"/>
      <point x="195" y="578" type="line"/>
      <point x="166" y="529" type="line" smooth="yes"/>
      <point x="165" y="528"/>
      <point x="163" y="525"/>
      <point x="163" y="523" type="curve" smooth="yes"/>
      <point x="124" y="440" type="line" smooth="yes"/>
      <point x="110" y="408"/>
      <point x="124" y="372"/>
      <point x="156" y="359" type="curve" smooth="yes"/>
      <point x="262" y="315" type="line"/>
      <point x="249" y="280"/>
      <point x="274" y="238"/>
      <point x="322" y="238" type="curve" smooth="yes"/>
      <point x="656" y="238" type="line"/>
      <point x="634" y="212"/>
      <point x="639" y="173"/>
      <point x="667" y="153" type="curve" smooth="yes"/>
      <point x="746" y="95" type="line"/>
      <point x="584" y="67" type="line" smooth="yes"/>
      <point x="577" y="65"/>
      <point x="570" y="63"/>
      <point x="564" y="60" type="curve"/>
      <point x="410" y="60" type="line"/>
      <point x="407" y="60"/>
      <point x="404" y="60"/>
      <point x="402" y="60" type="curve" smooth="yes"/>
      <point x="156" y="61" type="line" smooth="yes"/>
      <point x="124" y="61"/>
      <point x="96" y="34"/>
      <point x="96" y="1" type="curve" smooth="yes"/>
      <point x="96" y="-31"/>
      <point x="123" y="-59"/>
      <point x="156" y="-59" type="curve" smooth="yes"/>
      <point x="380" y="-59" type="line"/>
      <point x="383" y="-60"/>
      <point x="386" y="-60"/>
    </contour>
  </outline>
</glyph>
